<?xml version="1.0" encoding="UTF-8"?>
<svg width="40px" height="57px" viewBox="0 0 40 57" version="1.1" xmlns="http://www.w3.org/2000/svg" xmlns:xlink="http://www.w3.org/1999/xlink">
    <!-- Generator: Sketch 47.1 (45422) - http://www.bohemiancoding.com/sketch -->
    <title>Group 6</title>
    <desc>Created with Sketch.</desc>
    <defs></defs>
    <g id="Freja-Creative-Multi-Purpose-Portfolio-Template" stroke="none" stroke-width="1" fill="none" fill-rule="evenodd">
        <g id="Home" transform="translate(-847.000000, -2107.000000)" fill-rule="nonzero" fill="#F6F7FA">
            <g id="Group-6" transform="translate(847.020712, 2107.082458)">
                <path d="M19.5732675,10.6763277 C16.6301598,10.6763277 14.2351036,8.28127152 14.2351036,5.33816385 C14.2351036,2.39505618 16.6301598,0 19.5732675,0 C22.5163751,0 24.9114313,2.39505618 24.9114313,5.33816385 C24.9114313,8.28127152 22.5163751,10.6763277 19.5732675,10.6763277 Z M19.5732675,3.5587759 C18.5910453,3.5587759 17.7938795,4.3559417 17.7938795,5.33816385 C17.7938795,6.320386 18.5910453,7.1175518 19.5732675,7.1175518 C20.5554896,7.1175518 21.3526554,6.320386 21.3526554,5.33816385 C21.3526554,4.3559417 20.5554896,3.5587759 19.5732675,3.5587759 Z" id="Shape"></path>
                <path d="M35.587759,23.1320434 L32.0289831,23.1320434 C32.0289831,16.2653853 26.4399256,10.6763277 19.5732675,10.6763277 C12.7066094,10.6763277 7.1175518,16.2653853 7.1175518,23.1320434 L3.5587759,23.1320434 C3.5587759,14.300941 10.7421651,7.1175518 19.5732675,7.1175518 C28.4043698,7.1175518 35.587759,14.300941 35.587759,23.1320434 Z" id="Shape"></path>
                <rect id="Rectangle-path" x="32.0289831" y="23.1320434" width="3.5587759" height="24.9114313"></rect>
                <rect id="Rectangle-path" x="3.5587759" y="23.1320434" width="3.5587759" height="24.9114313"></rect>
                <rect id="Rectangle-path" x="0" y="46.2640867" width="39.1465349" height="3.5587759"></rect>
                <path d="M19.5732675,56.9404144 C16.6301598,56.9404144 14.2351036,54.5453582 14.2351036,51.6022506 C14.2351036,48.6591429 16.6301598,46.2640867 19.5732675,46.2640867 C22.5163751,46.2640867 24.9114313,48.6591429 24.9114313,51.6022506 C24.9114313,54.5453582 22.5163751,56.9404144 19.5732675,56.9404144 Z M19.5732675,49.8228626 C18.5910453,49.8228626 17.7938795,50.6200284 17.7938795,51.6022506 C17.7938795,52.5844727 18.5910453,53.3816385 19.5732675,53.3816385 C20.5554896,53.3816385 21.3526554,52.5844727 21.3526554,51.6022506 C21.3526554,50.6200284 20.5554896,49.8228626 19.5732675,49.8228626 Z" id="Shape"></path>
                <path d="M14.2351036,23.1320434 L10.6763277,23.1320434 C10.6763277,18.2262708 14.6674949,14.2351036 19.5732675,14.2351036 L19.5732675,17.7938795 C16.6301598,17.7938795 14.2351036,20.1889357 14.2351036,23.1320434 Z" id="Shape"></path>
                <rect id="Rectangle-path" x="5.33816385" y="39.1465349" width="28.4702072" height="3.5587759"></rect>
            </g>
        </g>
    </g>
</svg>