<svg xmlns="http://www.w3.org/2000/svg" width="212" height="212" viewBox="0 0 212 212">
    <path fill="#0B0E11" fill-rule="evenodd" d="M125.678 95.739c2.91 0 5.28-2.37 5.28-5.28s-2.37-5.279-5.28-5.279a5.286 5.286 0 0 0-5.28 5.28c0 2.91 2.37 5.279 5.28 5.279zm43.994 56.312v49.273c0 5.822-4.737 10.559-10.558 10.559H53.528c-5.821 0-10.559-4.737-10.559-10.559v-49.273a3.52 3.52 0 0 1 3.52-3.52 3.52 3.52 0 0 1 3.52 3.52v49.273c0 1.94 1.58 3.52 3.519 3.52h105.586c1.939 0 3.52-1.58 3.52-3.52v-49.273a3.52 3.52 0 0 1 3.519-3.52 3.52 3.52 0 0 1 3.52 3.52zm-10.558-24.637h-35.196a3.52 3.52 0 0 0-3.52 3.52 3.52 3.52 0 0 0 3.52 3.52h35.196c1.34 0 2.513.756 3.104 1.865l-43.033 27.663c-2.186-4.945-7.12-8.412-12.864-8.412-5.744 0-10.678 3.467-12.864 8.412L50.424 136.32a3.521 3.521 0 0 1 3.104-1.866h35.195a3.52 3.52 0 0 0 3.52-3.52 3.52 3.52 0 0 0-3.52-3.519H53.528c-5.821 0-10.559 4.738-10.559 10.559 0 1.196.61 2.312 1.62 2.96l47.861 30.77c1.007 6.787 6.81 12.024 13.87 12.024s12.865-5.237 13.871-12.023l47.866-30.771a3.52 3.52 0 0 0 1.615-2.96c0-5.821-4.737-10.559-10.558-10.559zm-52.793 49.274a7.046 7.046 0 0 1-7.04-7.04 7.046 7.046 0 0 1 7.04-7.039 7.046 7.046 0 0 1 7.039 7.04 7.046 7.046 0 0 1-7.04 7.039zm-48.988 18.984a3.518 3.518 0 0 1 1.847-4.621l24.637-10.559a3.515 3.515 0 0 1 4.621 1.848 3.518 3.518 0 0 1-1.848 4.621L61.954 197.52a3.515 3.515 0 0 1-4.621-1.848zm68.718-8.71a3.518 3.518 0 0 1-1.848-4.622 3.51 3.51 0 0 1 4.622-1.848l24.636 10.559a3.518 3.518 0 1 1-2.773 6.469L126.05 186.96zm-65.523-73.626c-.464-.003-11.463-.211-26.143-7.398-11.91-5.825-17.939-14.268-19.547-27.368a3.525 3.525 0 0 1 3.065-3.924c1.936-.218 3.685 1.133 3.925 3.066 1.32 10.766 5.856 17.112 15.647 21.905 13.153 6.434 23.043 6.68 23.141 6.68a3.53 3.53 0 0 1 3.467 3.569 3.517 3.517 0 0 1-3.516 3.47h-.039zM.77 4.731a3.52 3.52 0 1 1 5.695-3.238c.348.278 34.98 27.97 65.005 30.912a3.52 3.52 0 0 1 3.157 3.847 3.504 3.504 0 0 1-3.846 3.157C47.16 37.096 21.926 21.304 9.62 12.622 15.11 31.7 27.97 41.252 37.709 46.947c6.317 3.696 16.679 6.663 16.78 6.691a3.518 3.518 0 0 1 2.426 4.347 3.522 3.522 0 0 1-4.347 2.425c-.457-.13-11.315-3.238-18.414-7.388C21.75 45.772 4.79 32.872.77 4.731zm7.036 40.668a3.518 3.518 0 0 1 3.013-3.96c1.925-.278 3.699 1.084 3.963 3.013 1.46 10.738 7.676 19.39 19.568 27.23 6.346 4.397 13.304 4.92 13.374 4.928a3.521 3.521 0 0 1-.243 7.032c-.08 0-.165-.004-.246-.01-.362-.025-8.975-.68-16.827-6.118C16.95 68.642 9.534 58.122 7.806 45.4zM197.804 78.57c-1.609 13.1-7.638 21.543-19.548 27.368-14.68 7.187-25.678 7.395-26.143 7.398h-.038a3.52 3.52 0 0 1-.05-7.039c.159-.003 10.027-.264 23.141-6.68 9.791-4.793 14.328-11.14 15.648-21.905.24-1.933 2.013-3.284 3.924-3.066a3.525 3.525 0 0 1 3.066 3.924zm-59.79-42.318a3.52 3.52 0 0 1 3.157-3.847c30.06-2.946 64.657-30.634 65.006-30.912a3.52 3.52 0 0 1 5.694 3.238c-4.02 28.142-20.98 41.04-33.382 48.291-7.1 4.15-17.957 7.257-18.415 7.388a3.522 3.522 0 0 1-4.347-2.425 3.518 3.518 0 0 1 2.426-4.347c.102-.028 10.463-2.995 16.78-6.69 9.74-5.695 22.6-15.247 28.087-34.326-12.305 8.682-37.54 24.474-61.16 26.787a3.513 3.513 0 0 1-3.846-3.157zm66.822 9.147c-1.728 12.723-9.144 23.243-22.666 32.161-7.789 5.392-16.401 6.047-16.763 6.071-.081.007-.166.011-.247.011a3.523 3.523 0 0 1-3.509-3.277 3.522 3.522 0 0 1 3.26-3.755c.203-.014 7.161-.623 13.317-4.882 11.956-7.887 18.171-16.538 19.632-27.276a3.512 3.512 0 0 1 3.963-3.013 3.518 3.518 0 0 1 3.013 3.96zM57.047 78.14c0 27.072 23.719 34.92 35.393 37.98.573 4.926 2.854 15.21 11.927 21.26a3.522 3.522 0 0 0 3.907 0c9.073-6.05 11.354-16.334 11.928-21.26 11.674-3.06 35.392-10.908 35.392-37.98 0-26.087-25.576-42.234-49.273-42.234-23.697 0-49.274 16.147-49.274 42.234zm49.274 51.864c-5.21-4.71-6.564-11.773-6.916-14.98 1.27-.735 3.565-1.689 6.916-1.689 3.368 0 5.666.961 6.926 1.69-.338 3.202-1.668 10.248-6.926 14.979zm0-87.06c20.31 0 42.234 13.456 42.234 35.196 0 20.139-15.36 27.27-30.912 31.355-2.01-1.351-5.747-3.199-11.322-3.199-5.572 0-9.31 1.848-11.323 3.2C79.446 105.41 64.086 98.28 64.086 78.14c0-21.74 21.924-35.195 42.235-35.195zM86.963 95.74c2.911 0 5.28-2.37 5.28-5.28s-2.369-5.279-5.28-5.279a5.286 5.286 0 0 0-5.279 5.28c0 2.91 2.369 5.279 5.28 5.279z"/>
</svg>
