<?xml version="1.0" encoding="UTF-8"?>
<svg width="40px" height="53px" viewBox="0 0 40 53" version="1.1" xmlns="http://www.w3.org/2000/svg" xmlns:xlink="http://www.w3.org/1999/xlink">
    <!-- Generator: Sketch 47.1 (45422) - http://www.bohemiancoding.com/sketch -->
    <title>Group 8</title>
    <desc>Created with Sketch.</desc>
    <defs></defs>
    <g id="Freja-Creative-Multi-Purpose-Portfolio-Template" stroke="none" stroke-width="1" fill="none" fill-rule="evenodd">
        <g id="Home" transform="translate(-1136.000000, -2111.000000)" fill-rule="nonzero" fill="#F6F7FA">
            <g id="Group-8" transform="translate(1136.346088, 2111.082458)">
                <path d="M26.1822747,52.3645495 L22.9094904,52.3645495 L22.9291271,48.8430335 L29.4534227,6.43265762 C29.3945126,4.68008161 27.9495783,3.27278434 26.1822747,3.27278434 L13.0911374,3.27278434 C11.2861968,3.27278434 9.81835303,4.74062812 9.81835303,6.54556868 L9.79871632,6.79430029 L3.27278434,49.2177673 L3.27278434,52.3645495 L0,52.3645495 L0.0196367061,48.8430335 L6.54720508,6.41138453 C6.61920633,2.8636863 9.52543883,0 13.0911374,0 L26.1822747,0 C29.7921559,0 32.7278434,2.93568756 32.7278434,6.54556868 L32.7082067,6.79430029 L26.1822747,49.2177673 L26.1822747,52.3645495 Z" id="Shape"></path>
                <polygon id="Shape" points="16.3639217 52.3645495 13.0911374 52.3645495 13.0911374 49.2177673 6.56520539 6.79430029 9.79871632 6.29683707 16.3639217 49.0917651"></polygon>
                <polygon id="Shape" points="39.2734121 52.3645495 36.0006278 52.3645495 36.0006278 49.2177673 29.4746958 6.79430029 32.7082067 6.29683707 39.2734121 49.0917651"></polygon>
                <rect id="Rectangle-path" x="8.18196086" y="13.0911374" width="22.9094904" height="3.27278434"></rect>
                <rect id="Rectangle-path" x="4.90917651" y="26.1822747" width="22.9094904" height="3.27278434"></rect>
                <rect id="Rectangle-path" x="3.27278434" y="39.2734121" width="22.9094904" height="3.27278434"></rect>
            </g>
        </g>
    </g>
</svg>