<svg xmlns="http://www.w3.org/2000/svg" width="201" height="201" viewBox="0 0 201 201">
    <path fill="#2ED9C3" fill-rule="evenodd" d="M127.177 37.023a3.343 3.343 0 0 1 3.343-3.343h26.748a3.343 3.343 0 0 1 3.343 3.343 3.343 3.343 0 0 1-3.343 3.344H130.52a3.343 3.343 0 0 1-3.343-3.344zm-10.03-3.343H36.903a3.343 3.343 0 0 0-3.343 3.343 3.343 3.343 0 0 0 3.343 3.344h80.242a3.343 3.343 0 0 0 3.344-3.344 3.343 3.343 0 0 0-3.344-3.343zM36.903 60.427h40.121a3.343 3.343 0 0 0 3.344-3.343 3.343 3.343 0 0 0-3.344-3.344H36.904a3.343 3.343 0 0 0-3.343 3.344 3.343 3.343 0 0 0 3.343 3.343zm80.242 0a3.343 3.343 0 0 0 3.344-3.343 3.343 3.343 0 0 0-3.344-3.344H90.4a3.343 3.343 0 0 0-3.343 3.344 3.343 3.343 0 0 0 3.343 3.343h26.747zm13.374 0h33.434a3.343 3.343 0 0 0 3.344-3.343 3.343 3.343 0 0 0-3.344-3.344H130.52a3.343 3.343 0 0 0-3.343 3.344 3.343 3.343 0 0 0 3.343 3.343zM21.166 104.871a3.34 3.34 0 0 0 0 4.728l16.718 16.717c.652.652 1.508.98 2.363.98.856 0 1.712-.328 2.364-.98l12.394-12.394h18.673a3.343 3.343 0 0 0 3.344-3.343 3.343 3.343 0 0 0-3.344-3.344H53.621c-.89 0-1.738.351-2.364.98l-11.01 11.01-14.353-14.354a3.34 3.34 0 0 0-4.728 0zM184.015.245H16.843C7.626.245.126 7.745.126 16.963v80.242a16.726 16.726 0 0 0 12.441 16.162c1.782.465 3.618-.592 4.086-2.377a3.34 3.34 0 0 0-2.377-4.086 10.037 10.037 0 0 1-7.463-9.7V16.964c0-5.53 4.5-10.03 10.03-10.03h167.172c5.53 0 10.03 4.5 10.03 10.03v80.242c0 5.53-4.5 10.03-10.03 10.03h-10.03c-.89 0-1.739.351-2.364.98l-11.01 11.01-14.353-14.354a3.34 3.34 0 0 0-4.728 0 3.34 3.34 0 0 0 0 4.728l16.717 16.717c.652.652 1.508.98 2.364.98.856 0 1.712-.328 2.364-.98l12.394-12.394h8.646c9.218 0 16.717-7.5 16.717-16.717V16.963c0-9.218-7.5-16.718-16.717-16.718zm-50.155 106.99h-20.057c-.89 0-1.739.351-2.364.98l-11.01 11.01-14.353-14.354a3.34 3.34 0 0 0-4.728 0 3.34 3.34 0 0 0 0 4.728l16.717 16.717c.652.652 1.508.98 2.364.98.856 0 1.712-.328 2.364-.98l12.394-12.394h18.673a3.343 3.343 0 0 0 3.344-3.343 3.343 3.343 0 0 0-3.344-3.344zM60.308 160.73v6.687a6.692 6.692 0 0 1-3.47 5.861c-.639 6.426-3.434 12.083-3.571 12.35-3.03 6.062-7.61 15.223-23.05 15.223-15.44 0-20.02-9.16-23.053-15.222-.134-.268-2.929-5.925-3.567-12.351a6.692 6.692 0 0 1-3.47-5.861v-6.687c0-2.47 1.343-4.63 3.343-5.787v-.9c0-11.063 8.997-20.06 20.06-20.06h13.374c11.063 0 20.06 8.997 20.06 20.06v.9a6.681 6.681 0 0 1 3.344 5.787zm-6.687 0a3.343 3.343 0 0 1-3.343-3.343v-3.344c0-7.375-5.998-13.373-13.374-13.373H23.53c-7.375 0-13.373 5.998-13.373 13.373v3.344a3.343 3.343 0 0 1-3.344 3.343v6.687a3.343 3.343 0 0 1 3.344 3.343c0 5.785 2.962 11.823 2.992 11.883 3.477 6.958 6.546 11.521 17.068 11.521 10.522 0 13.591-4.563 17.068-11.524.03-.057 2.993-6.095 2.993-11.88a3.343 3.343 0 0 1 3.343-3.343v-6.687zm-13.374 0h-3.343a3.343 3.343 0 0 0-3.343 3.344 3.343 3.343 0 0 0 3.343 3.343h3.343a3.343 3.343 0 0 0 3.344-3.343 3.343 3.343 0 0 0-3.344-3.344zm-16.717 0h-3.343a3.343 3.343 0 0 0-3.344 3.344 3.343 3.343 0 0 0 3.344 3.343h3.343a3.343 3.343 0 0 0 3.344-3.343 3.343 3.343 0 0 0-3.344-3.344zm177.202 0v6.687a6.692 6.692 0 0 1-3.47 5.861c-.639 6.426-3.434 12.083-3.571 12.35-3.03 6.062-7.61 15.223-23.05 15.223-15.44 0-20.02-9.16-23.053-15.222-.133-.268-2.928-5.925-3.567-12.351a6.692 6.692 0 0 1-3.47-5.861v-6.687c0-2.47 1.343-4.63 3.343-5.787v-.9c0-11.063 8.997-20.06 20.06-20.06h13.374c11.064 0 20.06 8.997 20.06 20.06v.9a6.681 6.681 0 0 1 3.344 5.787zm-6.687 0a3.343 3.343 0 0 1-3.343-3.343v-3.344c0-7.375-5.998-13.373-13.374-13.373h-13.374c-7.375 0-13.373 5.998-13.373 13.373v3.344a3.343 3.343 0 0 1-3.344 3.343v6.687a3.343 3.343 0 0 1 3.344 3.343c0 5.785 2.962 11.823 2.992 11.883 3.477 6.958 6.547 11.521 17.068 11.521 10.522 0 13.591-4.563 17.069-11.524.03-.057 2.992-6.095 2.992-11.88a3.343 3.343 0 0 1 3.343-3.343v-6.687zm-13.373 0h-3.344a3.343 3.343 0 0 0-3.343 3.344 3.343 3.343 0 0 0 3.343 3.343h3.344a3.343 3.343 0 0 0 3.343-3.343 3.343 3.343 0 0 0-3.343-3.344zm-16.718 0h-3.343a3.343 3.343 0 0 0-3.343 3.344 3.343 3.343 0 0 0 3.343 3.343h3.343a3.343 3.343 0 0 0 3.344-3.343 3.343 3.343 0 0 0-3.344-3.344zm-33.434 0v6.687a6.692 6.692 0 0 1-3.47 5.861c-.639 6.426-3.434 12.083-3.571 12.35-3.03 6.062-7.61 15.223-23.05 15.223-15.44 0-20.02-9.16-23.053-15.222-.133-.268-2.929-5.925-3.567-12.351a6.692 6.692 0 0 1-3.47-5.861v-6.687c0-2.47 1.343-4.63 3.343-5.787v-.9c0-11.063 8.997-20.06 20.06-20.06h13.374c11.064 0 20.06 8.997 20.06 20.06v.9a6.681 6.681 0 0 1 3.344 5.787zm-6.687 0a3.343 3.343 0 0 1-3.343-3.343v-3.344c0-7.375-5.998-13.373-13.374-13.373H93.742c-7.375 0-13.373 5.998-13.373 13.373v3.344a3.343 3.343 0 0 1-3.344 3.343v6.687a3.343 3.343 0 0 1 3.344 3.343c0 5.785 2.962 11.823 2.992 11.883 3.477 6.958 6.546 11.521 17.068 11.521 10.522 0 13.591-4.563 17.068-11.524.03-.057 2.993-6.095 2.993-11.88a3.343 3.343 0 0 1 3.343-3.343v-6.687zm-13.373 0h-3.344a3.343 3.343 0 0 0-3.343 3.344 3.343 3.343 0 0 0 3.343 3.343h3.344a3.343 3.343 0 0 0 3.343-3.343 3.343 3.343 0 0 0-3.343-3.344zm-16.718 0H90.4a3.343 3.343 0 0 0-3.343 3.344 3.343 3.343 0 0 0 3.343 3.343h3.343a3.343 3.343 0 0 0 3.344-3.343 3.343 3.343 0 0 0-3.344-3.344zM36.904 80.488h33.434a3.343 3.343 0 0 0 3.344-3.344 3.343 3.343 0 0 0-3.344-3.343H36.904a3.343 3.343 0 0 0-3.343 3.343 3.343 3.343 0 0 0 3.343 3.344zm43.465-3.344a3.343 3.343 0 0 0 3.343 3.344h56.838a3.343 3.343 0 0 0 3.344-3.344 3.343 3.343 0 0 0-3.344-3.343H83.712a3.343 3.343 0 0 0-3.343 3.343z"/>
</svg>
