<svg xmlns="http://www.w3.org/2000/svg" width="194" height="194" viewBox="0 0 194 194">
    <path fill="#2ED9C3" fill-rule="evenodd" d="M193.375 16.335v57.904c0 8.87-7.219 16.085-16.088 16.085h-77.206c-8.866 0-16.082-7.216-16.082-16.085V38.853a3.218 3.218 0 0 1 6.434 0V74.24c0 5.321 4.327 9.651 9.648 9.651h77.206c5.32 0 9.654-4.33 9.654-9.65V16.334c0-5.321-4.333-9.651-9.654-9.651H75.684l20.244 20.244a3.213 3.213 0 0 1 0 4.549 3.213 3.213 0 0 1-4.549 0L65.64 5.74A3.217 3.217 0 0 1 67.915.25h109.372c8.87 0 16.088 7.216 16.088 16.085zm-67.555 86.857H15.26c-8.216 0-14.9 7.215-14.9 16.084v57.905c0 8.87 6.684 16.085 14.9 16.085h78.22c8.66 0 16.255-7.515 16.255-16.101v-35.383a3.22 3.22 0 0 0-3.217-3.204h-.016a3.218 3.218 0 0 0-3.201 3.233v35.37c0 5.437-5.279 9.65-9.821 9.65H15.26c-4.668 0-8.467-4.33-8.467-9.65v-57.905c0-5.32 3.8-9.65 8.467-9.65h102.83l-20.12 20.25a3.216 3.216 0 0 0 .017 4.549 3.213 3.213 0 0 0 4.548-.013l25.565-25.735a3.216 3.216 0 0 0-2.28-5.485zm-54.688 35.386a3.218 3.218 0 0 0-3.217-3.217H29.312a3.218 3.218 0 0 0 0 6.434h38.603a3.218 3.218 0 0 0 3.217-3.217zm-41.82 16.084a3.218 3.218 0 0 0 0 6.434h12.867a3.218 3.218 0 0 0 0-6.434H29.312zm25.735 6.434h25.736a3.218 3.218 0 0 0 0-6.434H55.047a3.218 3.218 0 0 0 0 6.434zM.36 32.42v-6.434a6.435 6.435 0 0 1 3.217-5.568v-.865C3.576 8.907 12.233.25 22.878.25h12.868c10.644 0 19.301 8.657 19.301 19.302v.865a6.435 6.435 0 0 1 3.217 5.568v6.434a6.436 6.436 0 0 1-3.342 5.64c-.612 6.182-3.3 11.626-3.433 11.883-2.914 5.832-7.322 14.647-22.177 14.647-14.856 0-19.263-8.815-22.181-14.647-.129-.257-2.815-5.7-3.43-11.883a6.436 6.436 0 0 1-3.342-5.64zm6.434 0a3.218 3.218 0 0 1 3.217 3.217c0 5.565 2.85 11.375 2.88 11.433 3.345 6.695 6.298 11.086 16.422 11.086 10.12 0 13.077-4.391 16.422-11.09.03-.054 2.88-5.864 2.88-11.429a3.218 3.218 0 0 1 3.216-3.217v-6.434a3.218 3.218 0 0 1-3.217-3.217v-3.216c0-7.097-5.77-12.868-12.867-12.868H22.878c-7.097 0-12.868 5.771-12.868 12.868v3.216a3.218 3.218 0 0 1-3.217 3.217v6.434zm28.953 0h3.216a3.218 3.218 0 0 0 0-6.434h-3.216a3.218 3.218 0 0 0 0 6.434zm-16.085 0h3.217a3.218 3.218 0 0 0 0-6.434H19.66a3.218 3.218 0 0 0 0 6.434zm173.714 96.508v6.434a6.44 6.44 0 0 1-3.34 5.64c-.614 6.182-3.303 11.625-3.435 11.883-2.914 5.832-7.322 14.646-22.177 14.646-14.856 0-19.263-8.814-22.181-14.646-.129-.258-2.818-5.7-3.433-11.884a6.44 6.44 0 0 1-3.339-5.64v-6.433a6.428 6.428 0 0 1 3.217-5.568v-.866c0-10.645 8.657-19.301 19.302-19.301h12.868c10.644 0 19.301 8.656 19.301 19.301v.866a6.428 6.428 0 0 1 3.217 5.568zm-6.434 0a3.216 3.216 0 0 1-3.217-3.217v-3.217c0-7.096-5.77-12.867-12.867-12.867h-12.868c-7.097 0-12.868 5.77-12.868 12.867v3.217a3.216 3.216 0 0 1-3.217 3.217v6.434a3.216 3.216 0 0 1 3.217 3.217c0 5.565 2.85 11.375 2.88 11.433 3.345 6.694 6.298 11.085 16.422 11.085 10.123 0 13.076-4.39 16.422-11.088.029-.055 2.88-5.865 2.88-11.43a3.216 3.216 0 0 1 3.216-3.217v-6.434zm-12.868 0h-3.216a3.216 3.216 0 1 0 0 6.434h3.216a3.216 3.216 0 1 0 0-6.434zm-16.084 0h-3.217a3.216 3.216 0 1 0 0 6.434h3.217a3.216 3.216 0 1 0 0-6.434zm-45.037-70.772h12.868a3.216 3.216 0 1 0 0-6.434h-12.868a3.216 3.216 0 1 0 0 6.434zm22.518-3.217a3.216 3.216 0 0 0 3.217 3.217h25.736a3.216 3.216 0 1 0 0-6.434h-25.736a3.216 3.216 0 0 0-3.217 3.217zm16.085-22.519h-38.603a3.216 3.216 0 1 0 0 6.434h38.603a3.216 3.216 0 1 0 0-6.434z"/>
</svg>
