<?xml version="1.0" encoding="UTF-8"?>
<svg width="54px" height="54px" viewBox="0 0 54 54" version="1.1" xmlns="http://www.w3.org/2000/svg" xmlns:xlink="http://www.w3.org/1999/xlink">
    <!-- Generator: Sketch 47.1 (45422) - http://www.bohemiancoding.com/sketch -->
    <title>Group 7</title>
    <desc>Created with Sketch.</desc>
    <defs></defs>
    <g id="Freja-Creative-Multi-Purpose-Portfolio-Template" stroke="none" stroke-width="1" fill="none" fill-rule="evenodd">
        <g id="Home" transform="translate(-253.000000, -2109.000000)" fill-rule="nonzero" fill="#F6F7FA">
            <g id="Group-7" transform="translate(252.877008, 2109.582458)">
                <path d="M13.7978473,53.2667561 L0.554214747,53.2667561 L0.554214747,40.0231235 L13.7978473,40.0231235 L13.7978473,53.2667561 Z M3.8651229,49.9558479 L10.4869392,49.9558479 L10.4869392,43.3340316 L3.8651229,43.3340316 L3.8651229,49.9558479 Z" id="Shape"></path>
                <path d="M33.6632962,53.2667561 L20.4196636,53.2667561 L20.4196636,40.0231235 L33.6632962,40.0231235 L33.6632962,53.2667561 Z M23.7305718,49.9558479 L30.3523881,49.9558479 L30.3523881,43.3340316 L23.7305718,43.3340316 L23.7305718,49.9558479 Z" id="Shape"></path>
                <path d="M53.5287451,53.2667561 L40.2851125,53.2667561 L40.2851125,40.0231235 L53.5287451,40.0231235 L53.5287451,53.2667561 Z M43.5960207,49.9558479 L50.217837,49.9558479 L50.217837,43.3340316 L43.5960207,43.3340316 L43.5960207,49.9558479 Z" id="Shape"></path>
                <path d="M13.7978473,13.5358583 L0.554214747,13.5358583 L0.554214747,0.292225715 L13.7978473,0.292225715 L13.7978473,13.5358583 Z M3.8651229,10.2249502 L10.4869392,10.2249502 L10.4869392,3.60313386 L3.8651229,3.60313386 L3.8651229,10.2249502 Z" id="Shape"></path>
                <path d="M33.6632962,13.5358583 L20.4196636,13.5358583 L20.4196636,0.292225715 L33.6632962,0.292225715 L33.6632962,13.5358583 Z M23.7305718,10.2249502 L30.3523881,10.2249502 L30.3523881,3.60313386 L23.7305718,3.60313386 L23.7305718,10.2249502 Z" id="Shape"></path>
                <path d="M53.5287451,13.5358583 L40.2851125,13.5358583 L40.2851125,0.292225715 L53.5287451,0.292225715 L53.5287451,13.5358583 Z M43.5960207,10.2249502 L50.217837,10.2249502 L50.217837,3.60313386 L43.5960207,3.60313386 L43.5960207,10.2249502 Z" id="Shape"></path>
                <path d="M36.9742044,33.4013072 L17.1087555,33.4013072 L17.1087555,20.1576746 L36.9742044,20.1576746 L36.9742044,33.4013072 Z M20.4196636,30.0903991 L33.6632962,30.0903991 L33.6632962,23.4685828 L20.4196636,23.4685828 L20.4196636,30.0903991 Z" id="Shape"></path>
                <rect id="Rectangle-path" x="25.3860259" y="11.8804042" width="3.31090815" height="9.93272445"></rect>
                <rect id="Rectangle-path" x="25.3860259" y="31.7458531" width="3.31090815" height="9.93272445"></rect>
                <rect id="Rectangle-path" x="45.2514747" y="11.8804042" width="3.31090815" height="29.7981733"></rect>
                <rect id="Rectangle-path" x="35.3187503" y="25.1240368" width="11.5881785" height="3.31090815"></rect>
                <rect id="Rectangle-path" x="5.52057697" y="25.1240368" width="13.2436326" height="3.31090815"></rect>
                <rect id="Rectangle-path" x="5.52057697" y="11.8804042" width="3.31090815" height="29.7981733"></rect>
            </g>
        </g>
    </g>
</svg>