<?xml version="1.0" encoding="UTF-8"?>
<svg width="56px" height="55px" viewBox="0 0 56 55" version="1.1" xmlns="http://www.w3.org/2000/svg" xmlns:xlink="http://www.w3.org/1999/xlink">
    <!-- Generator: Sketch 47.1 (45422) - http://www.bohemiancoding.com/sketch -->
    <title>Group 5</title>
    <desc>Created with Sketch.</desc>
    <defs></defs>
    <g id="Freja-Creative-Multi-Purpose-Portfolio-Template" stroke="none" stroke-width="1" fill="none" fill-rule="evenodd">
        <g id="Home" transform="translate(-551.000000, -2106.000000)" fill-rule="nonzero" fill="#F6F7FA">
            <g id="Group-5" transform="translate(551.772213, 2106.082458)">
                <path d="M33.9009434,54.5669585 L6.78018868,54.5669585 C3.04091462,54.5669585 0,51.5260438 0,47.7867698 L0,8.8006849 L3.39009434,8.8006849 L3.39009434,47.7867698 C3.39009434,49.6564068 4.91055165,51.1768641 6.78018868,51.1768641 L33.9009434,51.1768641 C35.7705804,51.1768641 37.2910377,49.6564068 37.2910377,47.7867698 L37.2910377,8.8006849 L40.6811321,8.8006849 L40.6811321,47.7867698 C40.6811321,51.5260438 37.6402174,54.5669585 33.9009434,54.5669585 Z" id="Shape"></path>
                <polygon id="Shape" points="48.1630703 41.0065811 40.6811321 41.0065811 40.6811321 37.6164868 46.7595712 37.6164868 50.8514151 33.5246429 50.8514151 17.2759207 40.6811321 17.2759207 40.6811321 13.8858264 54.2415094 13.8858264 54.2415094 34.928142"></polygon>
                <path d="M34.7230413,25.7511566 C32.9127309,25.7511566 31.2109035,25.046017 29.9294479,23.7645613 C28.6479922,22.4848007 26.4156151,22.4848007 25.1341594,23.7645613 C22.5712481,26.3257776 18.1081889,26.3257776 15.5469726,23.7645613 C14.265517,22.4848007 12.0331399,22.4848007 10.7516842,23.7645613 C8.18877287,26.3257776 3.72571368,26.3257776 1.16449741,23.7645613 L3.5612941,21.3677646 C4.84274976,22.6492203 7.07343184,22.6492203 8.3548875,21.3677646 C10.9177988,18.8048533 15.3825531,18.8082434 17.9437693,21.3677646 C19.225225,22.6509153 21.4559071,22.6492203 22.7373627,21.3677646 C25.298579,18.8065483 29.7633332,18.8065483 32.3262446,21.3677646 C33.6077002,22.6509153 35.8383823,22.6492203 37.119838,21.3677646 L39.5166346,23.7645613 C38.236874,25.046017 36.5350467,25.7511566 34.7230413,25.7511566 Z" id="Shape"></path>
                <path d="M19.9896913,16.7792719 C18.7082356,15.4995113 18.003096,13.7959889 18.003096,11.9856785 C18.003096,10.1753682 18.7082356,8.47184575 19.9896913,7.19039009 C20.6304191,6.54966226 20.9829889,5.69874858 20.9829889,4.79359339 C20.9829889,3.88843821 20.6304191,3.03582948 19.9896913,2.39510165 L22.386488,0 C23.6679436,1.27976061 24.3730832,2.98328302 24.3730832,4.79528844 C24.3730832,6.60729386 23.6679436,8.30912122 22.386488,9.58888183 C21.7457601,10.2296097 21.3931903,11.0805233 21.3931903,11.9873736 C21.3931903,12.8925288 21.7457601,13.7434424 22.386488,14.3841703 L19.9896913,16.7792719 Z" id="Shape"></path>
                <path d="M28.2598264,16.7792719 C26.9783707,15.4995113 26.2732311,13.797684 26.2732311,11.9856785 C26.2732311,10.1736731 26.9783707,8.47184575 28.2598264,7.19039009 C28.8988592,6.55135731 29.251429,5.70044363 29.251429,4.79359339 C29.251429,3.88674316 28.8988592,3.03582948 28.2598264,2.39510165 L30.6566231,0 C31.9363837,1.27976061 32.6415233,2.98328302 32.6415233,4.79528844 C32.6415233,6.60729386 31.9363837,8.30912122 30.6566231,9.58888183 C30.0158953,10.2296097 29.6633255,11.0805233 29.6633255,11.9856785 C29.6633255,12.8908337 30.0158953,13.7417474 30.6566231,14.3824752 L28.2598264,16.7792719 Z" id="Shape"></path>
                <path d="M11.7195561,16.7792719 C10.4397955,15.5012064 9.73465589,13.797684 9.73465589,11.9856785 C9.73465589,10.1736731 10.4397955,8.4701507 11.7195561,7.19039009 C12.360284,6.55135731 12.7128538,5.69874858 12.7128538,4.79528844 C12.7128538,3.89013325 12.360284,3.03752453 11.7195561,2.3967967 L14.1163528,0 C15.3978085,1.27976061 16.1029481,2.98328302 16.1029481,4.79528844 C16.1029481,6.60729386 15.3978085,8.30742617 14.1163528,9.58888183 C13.47732,10.2279146 13.1247502,11.0805233 13.1247502,11.9873736 C13.1247502,12.8942238 13.47732,13.7451375 14.1163528,14.3841703 L11.7195561,16.7792719 Z" id="Shape"></path>
                <path d="M20.269374,47.8325361 L19.8812082,47.724053 C16.1232887,46.6680387 13.082374,44.3288736 11.3161349,41.1387948 C9.56006603,37.9622764 9.17359528,34.1416401 10.2313047,30.3786354 L10.6906625,28.7463049 L12.3229929,29.2056627 C15.8571663,30.1989604 19.6116957,31.8957026 21.418616,36.006192 C23.7730365,34.0348521 25.7901427,33.0890158 28.4920479,32.5652462 L30.1548891,32.2414922 L30.4769481,33.9060285 C31.7109424,40.2539802 27.3055148,46.4680231 20.6609299,47.757954 L20.269374,47.8325361 Z M13.1400057,33.026299 C12.8348972,35.3349533 13.2264531,37.5825858 14.2841625,39.4962941 C15.3249215,41.3777964 16.9792875,42.8694379 19.0387698,43.8135792 C19.6964481,37.2825625 17.3182969,34.5823523 13.1400057,33.026299 Z M22.3915731,39.6810542 C22.532262,40.8472467 22.5610778,42.1422627 22.4542898,43.5830528 C25.2392523,42.1456528 27.1258398,39.3606903 27.2800891,36.3791023 C25.800313,36.904567 24.3781684,37.8080271 22.3915731,39.6810542 Z" id="Shape"></path>
            </g>
        </g>
    </g>
</svg>