<svg xmlns="http://www.w3.org/2000/svg" width="209" height="208" viewBox="0 0 209 208">
    <path fill="#2ED9C3" fill-rule="evenodd" d="M31.46 183.245l3.487 20.713a3.459 3.459 0 0 1-3.418 4.038 3.462 3.462 0 0 1-3.411-2.888l-3-17.783c-6.534.197-14.79 1.09-20.03 3.14A3.473 3.473 0 0 1 .6 188.5a3.471 3.471 0 0 1 1.967-4.489c8.973-3.5 22.742-3.691 25.481-3.653a3.467 3.467 0 0 1 3.412 2.888zm56.763.776c-6.801-2.708-17.887-3.664-25.384-3.664-1.76.01-3.27 1.177-3.553 2.892l-3.463 20.712a3.463 3.463 0 0 0 6.829 1.143l2.975-17.78c6.953.212 15.185 1.202 20.034 3.131a3.463 3.463 0 1 0 2.563-6.434zm-42.831-3.71c-3.824 0-6.933 3.107-6.933 6.927 0 2.552 1.406 4.762 3.47 5.967v11.349a3.464 3.464 0 0 0 3.463 3.463 3.464 3.464 0 0 0 3.463-3.463v-11.349c2.064-1.205 3.47-3.415 3.47-5.967 0-3.82-3.11-6.926-6.933-6.926zm-34.638-41.556v-6.927a6.927 6.927 0 0 1 3.463-5.994v-.932c0-11.46 9.319-20.778 20.778-20.778h13.853c11.46 0 20.778 9.319 20.778 20.778v.932a6.927 6.927 0 0 1 3.464 5.994v6.927a6.928 6.928 0 0 1-3.599 6.07c-.658 6.657-3.553 12.516-3.691 12.793-3.141 6.279-7.886 15.768-23.878 15.768-15.993 0-20.737-9.49-23.875-15.768-.142-.277-3.034-6.136-3.695-12.793a6.928 6.928 0 0 1-3.598-6.07zm6.926 0a3.464 3.464 0 0 1 3.463 3.463c0 5.99 3.068 12.245 3.1 12.308 3.605 7.206 6.784 11.933 17.679 11.933 10.898 0 14.077-4.727 17.679-11.937.03-.059 3.1-6.313 3.1-12.304a3.464 3.464 0 0 1 3.462-3.463v-6.927a3.464 3.464 0 0 1-3.463-3.463v-3.463c0-7.64-6.213-13.852-13.852-13.852H34.995c-7.64 0-13.852 6.213-13.852 13.852v3.463a3.464 3.464 0 0 1-3.463 3.463v6.927zm31.168 0h3.463a3.464 3.464 0 0 0 3.463-3.463 3.464 3.464 0 0 0-3.463-3.464h-3.463a3.464 3.464 0 0 0-3.463 3.464 3.464 3.464 0 0 0 3.463 3.463zm-17.316 0h3.463a3.464 3.464 0 0 0 3.464-3.463 3.464 3.464 0 0 0-3.464-3.464h-3.463a3.464 3.464 0 0 0-3.463 3.464 3.464 3.464 0 0 0 3.463 3.463zM163.13 111.05a3.462 3.462 0 0 0-3.463 3.463c0 21.004-17.09 38.094-38.094 38.094H95.302l14.867-14.867a3.46 3.46 0 0 0 0-4.897 3.46 3.46 0 0 0-4.897 0l-20.778 20.779a3.467 3.467 0 0 0 0 4.897l20.778 20.778a3.454 3.454 0 0 0 2.449 1.015c.886 0 1.773-.34 2.448-1.015a3.46 3.46 0 0 0 0-4.897l-14.867-14.867h26.271c24.824 0 45.02-20.197 45.02-45.02a3.462 3.462 0 0 0-3.463-3.463zM38.46 97.197a3.464 3.464 0 0 0 3.463-3.463V72.956c0-21.004 17.09-38.094 38.094-38.094h26.27L91.42 49.729a3.46 3.46 0 0 0 0 4.896 3.454 3.454 0 0 0 2.448 1.015c.887 0 1.773-.34 2.449-1.015l20.775-20.778a3.467 3.467 0 0 0 0-4.9L96.317 8.17a3.46 3.46 0 0 0-4.897 0 3.46 3.46 0 0 0 0 4.897l14.867 14.867H80.016c-24.827 0-45.02 20.194-45.02 45.02v20.78a3.464 3.464 0 0 0 3.463 3.462zm79.886-12.591a3.474 3.474 0 0 0 4.489 1.967c5.24-2.05 13.499-2.944 20.03-3.141l3 17.783a3.462 3.462 0 1 0 6.828-1.15l-3.487-20.713c-.287-1.7-1.78-2.836-3.511-2.888-2.913 0-16.516.194-25.382 3.653a3.468 3.468 0 0 0-1.967 4.489zm87.624-4.478c-6.805-2.708-17.89-3.664-25.385-3.664-1.731.027-3.269 1.177-3.553 2.891l-3.463 20.713a3.46 3.46 0 0 0 3.418 4.035 3.463 3.463 0 0 0 3.411-2.892l2.975-17.78c6.954.212 15.186 1.202 20.034 3.131a3.458 3.458 0 0 0 4.499-1.936 3.46 3.46 0 0 0-1.936-4.498zm-42.832-3.71c-3.823 0-6.933 3.107-6.933 6.927 0 2.552 1.406 4.762 3.47 5.963v11.352a3.462 3.462 0 0 0 3.463 3.464 3.462 3.462 0 0 0 3.463-3.464V89.308c2.064-1.201 3.47-3.41 3.47-5.963 0-3.82-3.11-6.926-6.933-6.926zM128.5 34.863v-6.927a6.92 6.92 0 0 1 3.463-5.994v-.932c0-11.46 9.32-20.779 20.779-20.779h13.852c11.46 0 20.779 9.32 20.779 20.78v.93a6.92 6.92 0 0 1 3.463 5.995v6.927a6.932 6.932 0 0 1-3.595 6.07c-.661 6.656-3.556 12.516-3.695 12.793-3.14 6.279-7.885 15.768-23.878 15.768-15.992 0-20.737-9.49-23.874-15.768-.142-.277-3.034-6.137-3.7-12.793a6.932 6.932 0 0 1-3.594-6.07zm6.926 0a3.462 3.462 0 0 1 3.464 3.463c0 5.99 3.068 12.245 3.102 12.307 3.602 7.207 6.781 11.934 17.676 11.934 10.899 0 14.078-4.727 17.683-11.937.027-.059 3.096-6.313 3.096-12.304a3.462 3.462 0 0 1 3.463-3.463v-6.927a3.462 3.462 0 0 1-3.463-3.463V21.01c0-7.64-6.213-13.852-13.853-13.852h-13.852c-7.64 0-13.852 6.212-13.852 13.852v3.463a3.462 3.462 0 0 1-3.464 3.463v6.927zm31.168 0h3.463a3.462 3.462 0 0 0 3.464-3.464 3.462 3.462 0 0 0-3.464-3.463h-3.463a3.462 3.462 0 0 0-3.463 3.463 3.462 3.462 0 0 0 3.463 3.464zm-17.315 0h3.463a3.462 3.462 0 0 0 3.463-3.464 3.462 3.462 0 0 0-3.463-3.463h-3.463a3.462 3.462 0 0 0-3.463 3.463 3.462 3.462 0 0 0 3.463 3.464z"/>
</svg>
