<svg xmlns="http://www.w3.org/2000/svg" width="190" height="219" viewBox="0 0 190 219">
    <path fill="#0B0E11" fill-rule="evenodd" d="M26.732 93.634l-12.592 7.27a3.636 3.636 0 0 0 1.821 6.784c.618 0 1.243-.157 1.814-.488l12.592-7.27a3.633 3.633 0 0 0 1.33-4.965 3.634 3.634 0 0 0-4.965-1.33zm3.635-76.336l-12.592-7.27a3.632 3.632 0 0 0-4.966 1.33 3.636 3.636 0 0 0 1.33 4.966l12.593 7.27c.57.33 1.2.487 1.814.487a3.633 3.633 0 0 0 1.821-6.783zm144.81 83.607l-12.592-7.27a3.632 3.632 0 0 0-4.965 1.33 3.636 3.636 0 0 0 1.33 4.965l12.592 7.27a3.63 3.63 0 0 0 4.966-1.33 3.636 3.636 0 0 0-1.331-4.965zM160.77 24.08c.614 0 1.24-.156 1.814-.487l12.596-7.27a3.636 3.636 0 0 0-3.636-6.296l-12.595 7.27a3.636 3.636 0 0 0 1.821 6.783zm24.766 30.898h-14.54a3.634 3.634 0 0 0-3.636 3.635 3.634 3.634 0 0 0 3.636 3.635h14.54a3.636 3.636 0 0 0 3.635-3.635 3.636 3.636 0 0 0-3.635-3.635zM21.959 58.614a3.636 3.636 0 0 0-3.635-3.635H3.784a3.634 3.634 0 0 0-3.636 3.635 3.634 3.634 0 0 0 3.636 3.635h14.54a3.636 3.636 0 0 0 3.635-3.635zm106.66-21.429a3.637 3.637 0 0 0-1.581 4.893 36.168 36.168 0 0 1 2.617 6.667 3.634 3.634 0 0 0 4.482 2.512 3.63 3.63 0 0 0 2.515-4.482 43.758 43.758 0 0 0-3.14-8.008 3.643 3.643 0 0 0-4.893-1.582zm-22.083-20.552a43.217 43.217 0 0 0-7.132-1.382 3.634 3.634 0 1 0-.785 7.227c2.006.218 4.002.603 5.94 1.152a35.983 35.983 0 0 1 13.351 7.041c.68.568 1.505.844 2.323.844a3.636 3.636 0 0 0 2.33-6.427 43.23 43.23 0 0 0-16.027-8.455zm8.342 42.614a3.653 3.653 0 0 0-4.06-.022c-2.784 1.85-11.12 6.66-16.158 6.66-5.042 0-13.377-4.81-16.161-6.66a3.653 3.653 0 0 0-4.06.022 3.644 3.644 0 0 0-1.513 3.766l10.905 50.89a3.636 3.636 0 1 0 7.114-1.523l-9.211-42.977c3.922 1.912 8.775 3.751 12.926 3.751 4.148 0 9-1.839 12.923-3.75l-9.211 42.976a3.636 3.636 0 0 0 7.113 1.524l10.906-50.891a3.638 3.638 0 0 0-1.513-3.766zM109.2 156.76a3.636 3.636 0 0 0-3.635-3.635h-21.81a3.634 3.634 0 0 0-3.635 3.635 3.634 3.634 0 0 0 3.635 3.635h21.81a3.636 3.636 0 0 0 3.635-3.635zm3.635-10.905a3.636 3.636 0 0 0 3.636-3.635 3.636 3.636 0 0 0-3.636-3.635h-36.35a3.634 3.634 0 0 0-3.635 3.635 3.634 3.634 0 0 0 3.635 3.635h36.35zm32.716-87.242c0-28.063-22.832-50.89-50.89-50.89-28.064 0-50.892 22.827-50.892 50.89 0 11.85 7.165 22.396 14.093 32.596 4.951 7.284 9.626 14.162 11.255 21.101l2.933 11.734h45.217l2.944-11.785c1.618-6.888 6.292-13.766 11.243-21.05 6.929-10.2 14.097-20.745 14.097-32.596zm7.27 0c0 14.086-8.16 26.09-15.358 36.682-4.558 6.71-8.866 13.05-10.185 18.677l-3.646 14.59a3.635 3.635 0 0 1-3.526 2.752H69.215a3.64 3.64 0 0 1-3.53-2.751l-3.635-14.54c-1.33-5.678-5.638-12.018-10.196-18.728C44.656 84.703 36.499 72.7 36.499 58.614 36.5 26.546 62.588.454 94.66.454c32.069 0 58.161 26.092 58.161 58.16zm-10.905 116.322h-7.27c-.084 0-9.535.131-15.605 6.205-6.136 6.136-6.206 15.511-6.206 15.606v7.27h7.26c.229-.004 9.585-.175 15.612-6.205 6.136-6.133 6.209-15.511 6.209-15.606v-7.27zm7.27-3.635v10.905c0 .51-.094 12.509-8.335 20.746-8.24 8.24-20.24 8.335-20.745 8.335H109.2a3.634 3.634 0 0 1-3.635-3.635v-10.905c0-.506.091-12.505 8.332-20.746 8.24-8.24 20.24-8.335 20.749-8.335h10.905a3.636 3.636 0 0 1 3.635 3.635zm-72.701 25.446c0-.084-.135-9.531-6.209-15.606-6.132-6.132-15.51-6.205-15.602-6.205h-7.27v7.27c0 .084.131 9.532 6.205 15.606 6.133 6.136 15.511 6.205 15.606 6.205h7.27v-7.27zM75.42 176c8.24 8.241 8.335 20.24 8.335 20.746v10.905a3.636 3.636 0 0 1-3.635 3.635H69.215c-.51 0-12.509-.095-20.75-8.335-8.24-8.237-8.33-20.237-8.33-20.746v-10.905a3.634 3.634 0 0 1 3.634-3.635h10.905c.506 0 12.505.095 20.746 8.335zm22.875-4.7v43.621a3.634 3.634 0 1 1-7.27 0v-43.62a3.634 3.634 0 1 1 7.27 0z"/>
</svg>
