<svg xmlns="http://www.w3.org/2000/svg" width="211" height="211" viewBox="0 0 211 211">
    <path fill="#2ED9C3" fill-rule="evenodd" d="M98.471 136.847a3.508 3.508 0 0 1 3.507-3.507h7.013a3.508 3.508 0 0 1 3.507 3.507 3.508 3.508 0 0 1-3.507 3.507h-7.013a3.508 3.508 0 0 1-3.507-3.507zm-84.95 48.43c-.389.411-9.573 10.153-13.059 20.596a3.507 3.507 0 0 0 2.22 4.436c.368.119.74.182 1.108.182a3.517 3.517 0 0 0 3.328-2.402c2.98-8.939 11.404-17.891 11.492-17.979a3.514 3.514 0 0 0-.134-4.958 3.51 3.51 0 0 0-4.955.126zM42.364 17.62c0-5.8 4.72-10.52 10.52-10.52s10.52 4.72 10.52 10.52c0 2.999-1.276 5.695-3.3 7.613l23.527 15.682 16.127-21.503c-2.879-1.88-4.794-5.116-4.794-8.805 0-5.8 4.72-10.52 10.52-10.52s10.52 4.72 10.52 10.52c0 3.69-1.914 6.926-4.793 8.805l16.127 21.503 23.526-15.682c-2.023-1.918-3.3-4.614-3.3-7.613 0-5.8 4.72-10.52 10.52-10.52s10.52 4.72 10.52 10.52c0 4.566-2.938 8.42-7.013 9.875v46.232a3.508 3.508 0 0 1-3.506 3.507 3.508 3.508 0 0 1-3.507-3.507v-42.54l-26.107 17.405a3.51 3.51 0 0 1-4.752-.814l-18.235-24.315L87.25 47.777a3.513 3.513 0 0 1-4.752.814L56.391 31.187V70.22h87.667a3.508 3.508 0 0 1 3.507 3.506 3.508 3.508 0 0 1-3.507 3.507H52.884a3.508 3.508 0 0 1-3.507-3.507V27.491c-4.074-1.452-7.013-5.306-7.013-9.872zm112.214 0a3.512 3.512 0 0 0 3.507 3.507 3.512 3.512 0 0 0 3.506-3.507 3.512 3.512 0 0 0-3.506-3.506 3.512 3.512 0 0 0-3.507 3.506zm-52.6-7.013a3.512 3.512 0 0 0 3.506 3.507 3.512 3.512 0 0 0 3.507-3.507 3.512 3.512 0 0 0-3.507-3.507 3.512 3.512 0 0 0-3.506 3.507zm-52.6 7.013a3.512 3.512 0 0 0 3.506 3.507 3.512 3.512 0 0 0 3.507-3.507 3.512 3.512 0 0 0-3.507-3.506 3.512 3.512 0 0 0-3.507 3.506zm-7.014 91.174v-7.013c0-4.755 2.844-8.584 7.013-9.966v-4.06a3.508 3.508 0 0 1 3.507-3.507 3.508 3.508 0 0 1 3.507 3.506v7.014a3.508 3.508 0 0 1-3.507 3.506c-2.164 0-3.507 1.343-3.507 3.507v7.013a3.512 3.512 0 0 0 3.507 3.507c1.315 0 2.518.737 3.117 1.9l7.105 13.8c4.58 3.92 13.97 6.82 19.743 8.216 2.882-8.462 9.468-16.903 22.635-16.903 13.168 0 19.754 8.441 22.636 16.903 5.853-1.417 15.423-4.377 19.929-8.378l6.908-13.62a3.506 3.506 0 0 1 3.128-1.918 3.512 3.512 0 0 0 3.506-3.507v-7.013c0-2.328-1.178-3.507-3.506-3.507a3.508 3.508 0 0 1-3.507-3.506v-7.014a3.508 3.508 0 0 1 3.507-3.506 3.508 3.508 0 0 1 3.506 3.506v4.015c4.261 1.315 7.014 5.071 7.014 10.012v7.013c0 5.018-3.531 9.227-8.24 10.272l-5.973 11.771c-4.38 42.624-28.983 51.598-48.908 51.598-26.868 0-45.015-19.094-48.732-51.124-.116-.242-.165-.495-.221-.754l-5.912-11.488c-4.717-1.038-8.255-5.25-8.255-10.275zm38.574 38.574c0-1.304.101-2.77.308-4.317-4.012-.954-10.667-2.809-16.415-5.688 4.868 23.969 19.648 38.059 40.653 38.059 22.689 0 36.4-12.866 40.906-38.181-5.8 2.952-12.596 4.842-16.667 5.81.207 1.547.308 3.013.308 4.317a3.508 3.508 0 0 1-3.506 3.507 3.508 3.508 0 0 1-3.507-3.507c-.004-.852-.295-21.04-17.534-21.04-17.239 0-17.53 20.188-17.533 21.047a3.51 3.51 0 0 1-3.507 3.496h-.007a3.503 3.503 0 0 1-3.5-3.503zM77.43 91.26a3.508 3.508 0 0 0-3.507 3.507 3.508 3.508 0 0 0 3.507 3.506h3.507a3.508 3.508 0 0 0 3.506 3.507 3.508 3.508 0 0 0 3.507-3.507h3.507a3.508 3.508 0 0 0 3.506-3.506 3.508 3.508 0 0 0-3.506-3.507H77.43zm42.08 0a3.508 3.508 0 0 0-3.507 3.507 3.508 3.508 0 0 0 3.507 3.506h3.507a3.508 3.508 0 0 0 3.507 3.507 3.508 3.508 0 0 0 3.506-3.507h3.507a3.508 3.508 0 0 0 3.507-3.506 3.508 3.508 0 0 0-3.507-3.507H119.51zm90.995 114.613c-3.485-10.443-12.67-20.185-13.059-20.595a3.514 3.514 0 0 0-4.958-.126 3.51 3.51 0 0 0-.126 4.958c.084.088 8.493 9.005 11.488 17.979a3.517 3.517 0 0 0 3.327 2.402 3.507 3.507 0 0 0 3.328-4.618zm-22.8-30.08c-7.136-3.57-21.433-7.386-40.141-7.386a3.508 3.508 0 0 0-3.507 3.507 3.508 3.508 0 0 0 3.507 3.507c13.57 0 24.655 2.15 31.805 4.544-22.162 17.24-47.375 22.17-54.47 23.26-7.76-9.99-17.859-13.448-18.308-13.599a3.522 3.522 0 0 0-2.216 0c-.449.151-10.548 3.609-18.308 13.6-7.098-1.091-32.307-6.022-54.47-23.26 7.15-2.396 18.235-4.545 31.806-4.545a3.508 3.508 0 0 0 3.507-3.507 3.508 3.508 0 0 0-3.507-3.507c-18.708 0-33.005 3.815-40.141 7.385a3.495 3.495 0 0 0-1.911 2.69 3.511 3.511 0 0 0 1.168 3.082c28.569 25 63.32 28.759 64.786 28.906a3.52 3.52 0 0 0 3.233-1.49c5.186-7.47 12.26-11.085 14.952-12.256 2.697 1.16 9.714 4.734 14.939 12.256a3.506 3.506 0 0 0 3.233 1.49c1.466-.147 36.217-3.907 64.786-28.906a3.511 3.511 0 0 0 1.168-3.082 3.495 3.495 0 0 0-1.911-2.69zm-82.116 27.681h-.035a3.493 3.493 0 0 0-3.49 3.507c0 1.935 1.585 3.506 3.525 3.506a3.508 3.508 0 0 0 3.506-3.506 3.508 3.508 0 0 0-3.506-3.507z"/>
</svg>
