<svg xmlns="http://www.w3.org/2000/svg" width="209" height="209" viewBox="0 0 209 209">
    <path fill="#0B0E11" fill-rule="evenodd" d="M104.642 128.94a6.925 6.925 0 0 1-6.918-6.918 6.925 6.925 0 0 1 6.918-6.918 6.925 6.925 0 0 1 6.918 6.918 6.925 6.925 0 0 1-6.918 6.918zm37.678 10.84l-24.4-14.084c.33-1.18.557-2.394.557-3.674 0-6.426-4.424-11.798-10.376-13.344V80.515a3.458 3.458 0 0 0-3.46-3.46 3.458 3.458 0 0 0-3.458 3.46v28.163c-5.953 1.546-10.377 6.918-10.377 13.344 0 1.28.228 2.494.557 3.67l-24.4 14.089a3.46 3.46 0 0 0 1.733 6.454c.588 0 1.183-.149 1.726-.464l24.362-14.064c2.51 2.557 6 4.151 9.858 4.151 3.856 0 7.343-1.594 9.858-4.15l24.361 14.063a3.462 3.462 0 0 0 4.725-1.266 3.46 3.46 0 0 0-1.266-4.724zm31.5 30.668a3.458 3.458 0 0 1-3.458 3.459h-3.46a3.458 3.458 0 0 1-3.458-3.46 3.458 3.458 0 0 1 3.459-3.458h3.459a3.458 3.458 0 0 1 3.459 3.459zm17.295 0a3.458 3.458 0 0 1-3.459 3.459h-3.459a3.458 3.458 0 0 1-3.458-3.46 3.458 3.458 0 0 1 3.458-3.458h3.46a3.458 3.458 0 0 1 3.458 3.459zm10.377 3.459a3.458 3.458 0 0 0-3.459 3.459c0 5.984-3.064 12.23-3.095 12.29-3.601 7.2-6.777 11.922-17.658 11.922-10.882 0-14.058-4.721-17.655-11.92-.034-.062-3.1-6.308-3.1-12.292a3.458 3.458 0 0 0-3.458-3.46v-6.917a3.458 3.458 0 0 0 3.459-3.46v-3.458c0-7.63 6.205-13.836 13.836-13.836h13.835c7.63 0 13.836 6.205 13.836 13.836v3.459a3.458 3.458 0 0 0 3.46 3.459v6.918zm3.46-12.906v-.93c0-11.446-9.309-20.754-20.755-20.754h-13.835c-11.446 0-20.754 9.308-20.754 20.754v.93a6.912 6.912 0 0 0-3.459 5.988v6.918a6.924 6.924 0 0 0 3.59 6.063c.661 6.648 3.553 12.5 3.691 12.777 3.137 6.272 7.876 15.75 23.85 15.75 15.973 0 20.712-9.478 23.85-15.75.137-.276 3.03-6.129 3.69-12.777a6.924 6.924 0 0 0 3.59-6.063v-6.918c0-2.556-1.39-4.791-3.459-5.988zm-176.407 9.447a3.458 3.458 0 0 1-3.46 3.459h-3.458a3.458 3.458 0 0 1-3.46-3.46 3.458 3.458 0 0 1 3.46-3.458h3.459a3.458 3.458 0 0 1 3.459 3.459zm17.294 0a3.458 3.458 0 0 1-3.459 3.459h-3.458a3.458 3.458 0 0 1-3.46-3.46 3.458 3.458 0 0 1 3.46-3.458h3.458a3.458 3.458 0 0 1 3.46 3.459zm10.377 3.459a3.458 3.458 0 0 0-3.459 3.459c0 5.984-3.064 12.23-3.095 12.29-3.601 7.2-6.777 11.922-17.658 11.922-10.882 0-14.058-4.721-17.655-11.92-.034-.062-3.1-6.308-3.1-12.292a3.458 3.458 0 0 0-3.458-3.46v-6.917a3.458 3.458 0 0 0 3.459-3.46v-3.458c0-7.63 6.205-13.836 13.836-13.836h13.836c7.63 0 13.835 6.205 13.835 13.836v3.459a3.458 3.458 0 0 0 3.46 3.459v6.918zM59.676 161v-.93c0-11.446-9.309-20.754-20.754-20.754H25.086c-11.446 0-20.754 9.308-20.754 20.754v.93a6.912 6.912 0 0 0-3.459 5.988v6.918a6.924 6.924 0 0 0 3.59 6.063c.661 6.648 3.553 12.5 3.691 12.777 3.137 6.272 7.876 15.75 23.85 15.75 15.973 0 20.712-9.478 23.85-15.75.137-.276 3.03-6.129 3.69-12.777a6.924 6.924 0 0 0 3.59-6.063v-6.918c0-2.556-1.39-4.791-3.459-5.988zM90.805 32.09a3.458 3.458 0 0 1 3.459-3.46h3.459a3.458 3.458 0 0 1 3.459 3.46 3.458 3.458 0 0 1-3.46 3.458h-3.458a3.458 3.458 0 0 1-3.46-3.458zm17.295 0a3.458 3.458 0 0 1 3.459-3.46h3.458a3.458 3.458 0 0 1 3.46 3.46 3.458 3.458 0 0 1-3.46 3.458h-3.458a3.458 3.458 0 0 1-3.46-3.458zm-27.672-3.46a3.458 3.458 0 0 0 3.459-3.458v-3.46c0-7.63 6.205-13.835 13.836-13.835h13.836c7.63 0 13.835 6.205 13.835 13.836v3.459a3.458 3.458 0 0 0 3.46 3.459v6.917a3.458 3.458 0 0 0-3.46 3.46c0 5.983-3.064 12.23-3.095 12.29-3.601 7.2-6.777 11.922-17.658 11.922-10.882 0-14.058-4.721-17.655-11.92-.034-.062-3.1-6.309-3.1-12.293a3.458 3.458 0 0 0-3.458-3.459v-6.917zM77.1 41.613c.661 6.648 3.553 12.5 3.691 12.777 3.137 6.271 7.876 15.749 23.85 15.749 15.973 0 20.712-9.478 23.85-15.749.137-.276 3.03-6.129 3.69-12.777a6.924 6.924 0 0 0 3.59-6.064v-6.917c0-2.557-1.39-4.791-3.459-5.988v-.93c0-11.446-9.308-20.754-20.753-20.754H97.724c-11.446 0-20.754 9.308-20.754 20.754v.93a6.912 6.912 0 0 0-3.459 5.988v6.917a6.924 6.924 0 0 0 3.59 6.064z"/>
</svg>
