<svg xmlns="http://www.w3.org/2000/svg" width="223" height="222" viewBox="0 0 223 222">
    <path fill="#0B0E11" fill-rule="evenodd" d="M62.005 73.734c.636.318 15.954 7.781 49.707 7.781 12.587 0 24.028-1.028 34.008-3.06a3.7 3.7 0 0 0 2.887-4.363 3.699 3.699 0 0 0-4.358-2.883c-9.5 1.933-20.445 2.913-32.537 2.913-24.223 0-38.414-4.037-43.844-5.981 2.61-12.424 14.605-60.557 43.844-60.557 2.688 0 5.272.049 7.76.137.872.026 1.67.093 2.524.133 1.567.074 3.164.14 4.654.252.902.066 1.73.166 2.602.244 1.353.118 2.728.229 4.004.377.88.1 1.674.236 2.513.347 1.19.163 2.41.31 3.538.496.85.14 1.619.306 2.429.458 1.035.192 2.1.373 3.079.588.79.17 1.515.37 2.27.554.912.222 1.859.436 2.72.677.717.2 1.364.425 2.048.635.817.255 1.663.496 2.429.766.65.225 1.227.473 1.84.71.721.28 1.468.554 2.144.846.577.247 1.09.517 1.634.78.632.3 1.29.595 1.874.91.51.273.954.561 1.431.838.543.326 1.116.64 1.615.972.44.289.817.592 1.228.888.462.34.95.68 1.378 1.027.366.303.684.621 1.024.932.385.355.795.706 1.143 1.068.306.322.565.647.839.972.314.366.643.728.916 1.102.244.329.44.669.658 1.002.237.373.496.743.695 1.116.185.344.326.691.485 1.039.17.373.35.746.488 1.12.125.35.21.706.31 1.053.081.307.178.614.24.92-3.341.603-6.583.829-9.563.847-4.746-.192-9.914-.784-14.02-1.482-1.893-3.442-4.019-6.783-6.466-9.844a3.698 3.698 0 0 0-5.778 4.617c13.94 17.43 17.666 45.922 17.703 46.207a3.699 3.699 0 0 0 4.126 3.208 3.698 3.698 0 0 0 3.208-4.129c-.11-.887-2.122-16.18-8.786-31.801 2.524.336 5.7.613 9.267.628 6.077.27 12.435-.07 16.117-2.092.048-.026.085-.07.133-.1.107-.066.203-.144.303-.222a3.657 3.657 0 0 0 .787-.81c.148-.21.266-.435.366-.672.048-.107.104-.21.137-.321.115-.355.188-.729.188-1.117 0-7.803-5.064-33.269-70.234-33.269-39.638 0-51.226 66.786-51.7 69.628-.265 1.6.54 3.19 1.993 3.915zm46.01 78.015a3.696 3.696 0 1 0 0 7.393h7.394a3.693 3.693 0 0 0 3.696-3.696 3.696 3.696 0 0 0-3.696-3.697h-7.393zm62.31-33.727c4.576-1.364 7.925-5.615 7.925-10.631v-7.393a3.696 3.696 0 1 0-7.393 0v7.393a3.698 3.698 0 0 1-3.697 3.696 3.698 3.698 0 0 0-3.644 3.09c-.037.211-3.49 20.468-10.03 31.018-2.742 1.287-6.782 2.858-8.505 2.858a3.696 3.696 0 1 0 0 7.393c2.255 0 5.212-.913 7.744-1.886.791 28.674-18.042 57.323-41.013 60.99-22.966-3.667-41.8-32.316-41.009-60.99 2.528.973 5.49 1.886 7.74 1.886a3.693 3.693 0 0 0 3.697-3.697 3.696 3.696 0 0 0-3.696-3.696c-1.716 0-5.756-1.571-8.506-2.858-6.54-10.55-9.992-30.807-10.025-31.017a3.702 3.702 0 0 0-3.649-3.09 3.7 3.7 0 0 1-3.696-3.697v-7.393a3.696 3.696 0 1 0-7.393 0v7.393c0 5.016 3.349 9.267 7.929 10.631 1.201 6.121 4.62 21.407 10.443 30.936-3.161 34.356 19.273 68.937 47.644 72.988.174.026.348.037.521.037.178 0 .352-.01.525-.037 28.367-4.051 50.802-38.632 47.645-72.988 5.822-9.53 9.241-24.815 10.443-30.936zm-58.613-21.72c38.356 0 110.896-5.405 110.896-25.876 0-12.979-29.712-19.459-54.638-22.608-1.993-.244-3.874 1.179-4.13 3.204a3.698 3.698 0 0 0 3.206 4.133c36.396 4.599 48.17 12.273 48.17 15.27 0 6.274-36.534 18.483-103.504 18.483S8.21 76.698 8.21 70.426c0-3.013 11.863-10.724 48.529-15.319a3.693 3.693 0 0 0 3.208-4.125c-.255-2.026-2.11-3.479-4.129-3.209-25.088 3.142-55 9.626-55 22.653 0 20.47 72.54 25.875 110.895 25.875zm22.18 85.023a3.7 3.7 0 0 0 3.696 3.693h.004a3.697 3.697 0 0 0 3.693-3.697c0-.436-.037-10.86-3.409-21.45-4.768-14.986-13.814-22.908-26.164-22.908-12.346 0-21.395 7.922-26.164 22.907-3.367 10.591-3.408 21.015-3.408 21.451a3.696 3.696 0 0 0 3.697 3.697 3.693 3.693 0 0 0 3.696-3.697c0-.37.255-36.965 22.18-36.965 21.868 0 22.179 36.6 22.179 36.97zm3.696-77.63h-14.786a3.696 3.696 0 1 0 0 7.393h3.696a3.696 3.696 0 0 0 3.697 3.696 3.693 3.693 0 0 0 3.697-3.697h3.696a3.693 3.693 0 0 0 3.697-3.696 3.696 3.696 0 0 0-3.697-3.697zm-48.055 7.392a3.696 3.696 0 0 0 3.697 3.697 3.693 3.693 0 0 0 3.696-3.697h3.697a3.693 3.693 0 0 0 3.696-3.696 3.696 3.696 0 0 0-3.696-3.697H85.837a3.696 3.696 0 1 0 0 7.393h3.696zm-33.269 73.935c-37.098 0-47.234 8.04-51.559 21.007L1.01 217.12a3.695 3.695 0 0 0 2.336 4.676 3.7 3.7 0 0 0 1.168.192 3.7 3.7 0 0 0 3.508-2.528l3.696-11.09c2.695-8.073 8.35-15.954 44.547-15.954a3.693 3.693 0 0 0 3.697-3.697 3.696 3.696 0 0 0-3.697-3.696zm166.156 32.097a3.701 3.701 0 0 1-3.508 4.868 3.696 3.696 0 0 1-3.505-2.528l-3.696-11.09c-2.695-8.073-8.354-15.958-44.55-15.958a3.696 3.696 0 1 1 0-7.393c37.098 0 47.234 8.04 51.562 21.011l3.697 11.09z"/>
</svg>
