<svg xmlns="http://www.w3.org/2000/svg" width="213" height="214" viewBox="0 0 213 214">
    <path fill="#2ED9C3" fill-rule="evenodd" d="M184.488 124.58v28.328c0 9.763-7.943 17.705-17.705 17.705H46.385c-9.763 0-17.705-7.942-17.705-17.705v-28.329a3.54 3.54 0 0 1 3.54-3.541 3.54 3.54 0 0 1 3.542 3.541v28.329c0 5.857 4.766 10.623 10.623 10.623h120.398c5.857 0 10.623-4.766 10.623-10.623v-28.329a3.54 3.54 0 0 1 3.54-3.541 3.54 3.54 0 0 1 3.542 3.541zm28.329-14.165c0 5.857-4.766 10.623-10.623 10.623-4.611 0-8.503-2.967-9.969-7.082h-11.278a3.54 3.54 0 0 1-3.541-3.541V75.004c0-5.857-4.766-10.624-10.623-10.624H88.878a3.54 3.54 0 0 1-3.54-3.54 3.54 3.54 0 0 1 3.54-3.542h77.905c9.762 0 17.705 7.943 17.705 17.706v31.87h7.737c1.466-4.115 5.358-7.083 9.969-7.083 5.857 0 10.623 4.767 10.623 10.624zm-7.082 0a3.545 3.545 0 0 0-3.541-3.541 3.545 3.545 0 0 0-3.542 3.54 3.545 3.545 0 0 0 3.542 3.542 3.545 3.545 0 0 0 3.54-3.541zm-138.103-3.541c-5.857 0-10.624-4.767-10.624-10.624s4.767-10.623 10.624-10.623 10.623 4.766 10.623 10.623c0 5.857-4.766 10.624-10.623 10.624zm3.54-10.624a3.545 3.545 0 0 0-3.54-3.54 3.545 3.545 0 0 0-3.541 3.54 3.545 3.545 0 0 0 3.54 3.541 3.545 3.545 0 0 0 3.542-3.54zm74.364 10.624c-5.857 0-10.623-4.767-10.623-10.624s4.766-10.623 10.623-10.623c5.857 0 10.623 4.766 10.623 10.623 0 5.857-4.766 10.624-10.623 10.624zm0-7.083a3.545 3.545 0 0 0 3.541-3.54 3.545 3.545 0 0 0-3.541-3.542 3.545 3.545 0 0 0-3.541 3.541 3.545 3.545 0 0 0 3.54 3.541zm-7.082 77.905h-63.74a3.54 3.54 0 0 0-3.541 3.54 3.54 3.54 0 0 0 3.54 3.542h63.74a3.54 3.54 0 0 0 3.542-3.541 3.54 3.54 0 0 0-3.541-3.541zm-7.082 14.164H81.796a3.54 3.54 0 0 0-3.541 3.541 3.54 3.54 0 0 0 3.541 3.541h49.576a3.54 3.54 0 0 0 3.54-3.54 3.54 3.54 0 0 0-3.54-3.542zm0 14.164H81.796a3.54 3.54 0 0 0-3.541 3.542 3.54 3.54 0 0 0 3.541 3.54h49.576a3.54 3.54 0 0 0 3.54-3.54 3.54 3.54 0 0 0-3.54-3.542zm7.082-77.904a3.54 3.54 0 0 1 3.54 3.541v14.165a3.54 3.54 0 0 1-3.54 3.54h-63.74a3.54 3.54 0 0 1-3.541-3.54V131.66a3.54 3.54 0 0 1 3.54-3.54h63.74zm-38.952 14.165h14.164v-7.083H99.502v7.083zm-21.247 0h14.164v-7.083H78.255v7.083zm42.493 0h14.165v-7.083h-14.165v7.083zm-99.81-28.33c-1.469 4.116-5.36 7.083-9.971 7.083-5.857 0-10.623-4.766-10.623-10.623 0-5.857 4.766-10.624 10.623-10.624 4.61 0 8.502 2.968 9.972 7.083h7.734l.007-31.87c0-9.763 7.942-17.706 17.705-17.706H71.41c2.054-15.202 17.04-26.494 31.633-28.109v-7.957c-4.111-1.466-7.082-5.358-7.082-9.968C95.96 5.407 100.727.64 106.584.64c5.857 0 10.623 4.766 10.623 10.623 0 4.61-2.97 8.502-7.082 9.972V29.2c10.404 1.1 20.542 6.894 26.54 15.45a3.54 3.54 0 1 1-5.796 4.065c-5.315-7.575-15.071-12.663-24.285-12.663-13.099 0-28.329 10.828-28.329 24.787a3.54 3.54 0 0 1-3.541 3.541H46.385c-5.857 0-10.623 4.767-10.623 10.624v35.41a3.54 3.54 0 0 1-3.541 3.542H20.939zm82.105-102.691a3.545 3.545 0 0 0 3.54 3.541 3.545 3.545 0 0 0 3.542-3.541 3.545 3.545 0 0 0-3.541-3.541 3.545 3.545 0 0 0-3.541 3.54zm-88.535 99.15a3.545 3.545 0 0 0-3.541-3.54 3.545 3.545 0 0 0-3.541 3.54 3.545 3.545 0 0 0 3.541 3.542 3.545 3.545 0 0 0 3.541-3.541z"/>
</svg>
