<svg xmlns="http://www.w3.org/2000/svg" width="192" height="240" viewBox="0 0 192 240">
    <path fill="#0B0E11" fill-rule="evenodd" d="M167.588 211.838v23.904c0 2.2-1.785 3.985-3.984 3.985a3.986 3.986 0 0 1-3.985-3.985v-23.904a3.986 3.986 0 0 1 7.968 0zm-151.396 0v7.968c0 2.2-1.785 3.984-3.984 3.984a3.986 3.986 0 0 1-3.984-3.984v-7.968c0-2.2 1.785-3.984 3.984-3.984s3.984 1.785 3.984 3.984zm167.332 0v7.968c0 2.2-1.785 3.984-3.984 3.984a3.986 3.986 0 0 1-3.984-3.984v-7.968c0-2.2 1.785-3.984 3.984-3.984 2.2 0 3.984 1.785 3.984 3.984zm-31.873 0v15.936c0 2.2-1.785 3.984-3.984 3.984a3.986 3.986 0 0 1-3.984-3.984v-15.936c0-2.2 1.785-3.984 3.984-3.984 2.2 0 3.984 1.785 3.984 3.984zm-119.523 0v23.904c0 2.2-1.785 3.985-3.984 3.985a3.986 3.986 0 0 1-3.984-3.985v-23.904c0-2.2 1.785-3.984 3.984-3.984 2.2 0 3.984 1.785 3.984 3.984zm15.937 0v15.936c0 2.2-1.785 3.984-3.984 3.984a3.986 3.986 0 0 1-3.985-3.984v-15.936a3.986 3.986 0 0 1 7.968 0zm47.809-91.634c2.2 0 3.984 1.785 3.984 3.984V195.9c0 2.2-1.785 3.985-3.984 3.985a3.986 3.986 0 0 1-3.984-3.985v-71.713c0-2.2 1.785-3.984 3.984-3.984zm95.618 51.793V195.9c0 2.2-1.785 3.985-3.984 3.985h-46.263c-4.462 3.884-20.34 15.936-45.371 15.936-25.032 0-40.909-12.052-45.371-15.936H4.24A3.986 3.986 0 0 1 .255 195.9v-23.904c0-10.618 14.566-17.793 24.204-22.542l7.67-3.825v-29.41c0-6.59 5.362-11.953 11.952-11.953 2.199 0 3.984 1.785 3.984 3.984 0 2.2-1.785 3.984-3.984 3.984a3.99 3.99 0 0 0-3.985 3.985v31.872c0 1.51-.852 2.889-2.203 3.566l-9.912 4.944c-6.41 3.16-19.757 9.733-19.757 15.395v19.92h43.825c1.056 0 2.071.419 2.817 1.168.143.14 15.239 14.769 41.008 14.769 25.769 0 40.865-14.63 41.016-14.777a4.012 4.012 0 0 1 2.809-1.16h43.825v-19.92c0-5.662-13.347-12.235-19.757-15.395l-9.913-4.944a3.988 3.988 0 0 1-2.203-3.566V116.22a3.99 3.99 0 0 0-3.984-3.985 3.986 3.986 0 0 1-3.984-3.984c0-2.199 1.785-3.984 3.984-3.984 6.59 0 11.952 5.363 11.952 11.953v29.41l7.67 3.825c9.637 4.749 24.203 11.924 24.203 22.542zM95.874 80.363c-4.395 0-7.968-3.574-7.968-7.969 0-4.394 3.573-7.968 7.968-7.968 4.394 0 7.968 3.574 7.968 7.968 0 4.395-3.574 7.969-7.968 7.969zm15.936-7.969c0-8.788-7.147-15.936-15.936-15.936-8.79 0-15.937 7.148-15.937 15.936 0 8.79 7.148 15.937 15.937 15.937s15.936-7.148 15.936-15.937zM95.874 10.298l12.586 12.586c-3.04.86-7.34 1.701-12.586 1.701-5.231 0-9.538-.836-12.59-1.697l12.59-12.59zM60.017 183.95c2.2 0 3.984-1.785 3.984-3.984V68.41c0-.235.215-21.283 13.594-38.996 3.518 1.315 9.884 3.14 18.279 3.14 8.418 0 14.765-1.833 18.263-3.152 13.33 17.67 13.61 38.777 13.61 39.008v111.555c0 2.2 1.784 3.984 3.984 3.984 2.199 0 3.984-1.785 3.984-3.984V68.41c0-1.207-.24-29.78-21.088-50.626L98.691 1.848a3.98 3.98 0 0 0-5.634 0L77.121 17.784C56.27 38.63 56.033 67.204 56.033 68.41v111.555c0 2.2 1.785 3.984 3.984 3.984z"/>
</svg>
