<svg xmlns="http://www.w3.org/2000/svg" width="193" height="193" viewBox="0 0 193 193">
    <path fill="#2ED9C3" fill-rule="evenodd" d="M122.512 36.142a3.197 3.197 0 0 1-3.198 3.199H87.33a3.2 3.2 0 0 1 0-6.397h31.983a3.197 3.197 0 0 1 3.198 3.198zm-47.974-3.198a3.2 3.2 0 0 1 0 6.397H61.744a3.2 3.2 0 0 1 0-6.397h12.794zm92.75 9.595v-19.19a3.197 3.197 0 0 1 3.199-3.198h12.793a3.197 3.197 0 1 1 0 6.396h-9.595V42.54a3.197 3.197 0 1 1-6.396 0zM7.374 23.349a3.2 3.2 0 0 1 3.198-3.198h12.794a3.2 3.2 0 0 1 3.198 3.198v19.19a3.2 3.2 0 0 1-6.397 0V26.547h-9.595a3.2 3.2 0 0 1-3.198-3.198zm121.549 3.198V4.16c0-1.292.777-2.46 1.973-2.955 1.2-.49 2.571-.22 3.486.694l25.587 25.586c.598.599.937 1.414.937 2.262v12.793a3.197 3.197 0 1 1-6.397 0v-11.47l-19.19-19.189v14.667c0 1.734 1.465 3.199 3.199 3.199h3.198a3.197 3.197 0 1 1 0 6.396h-3.198c-5.29 0-9.595-4.305-9.595-9.595zM32.96 42.54V10.556c0-5.2 4.394-9.595 9.595-9.595h76.759a3.197 3.197 0 1 1 0 6.397h-76.76c-1.643 0-3.198 1.554-3.198 3.198v31.983a3.2 3.2 0 0 1-6.396 0zM154.495 116.1a6.403 6.403 0 0 1 6.397-6.397 6.403 6.403 0 0 1 6.397 6.397 6.403 6.403 0 0 1-6.397 6.397 6.403 6.403 0 0 1-6.397-6.397zm-25.586 0a6.403 6.403 0 0 1 6.396-6.397 6.403 6.403 0 0 1 6.397 6.397 6.403 6.403 0 0 1-6.397 6.397 6.403 6.403 0 0 1-6.396-6.397zm-25.587 0a6.403 6.403 0 0 1 6.397-6.397 6.403 6.403 0 0 1 6.397 6.397 6.403 6.403 0 0 1-6.397 6.397 6.403 6.403 0 0 1-6.397-6.397zm-25.586 0a6.403 6.403 0 0 1 6.397-6.397 6.403 6.403 0 0 1 6.396 6.397 6.403 6.403 0 0 1-6.396 6.397 6.403 6.403 0 0 1-6.397-6.397zm-25.587 0a6.403 6.403 0 0 1 6.397-6.397 6.403 6.403 0 0 1 6.397 6.397 6.403 6.403 0 0 1-6.397 6.397 6.403 6.403 0 0 1-6.397-6.397zm-25.586 0a6.403 6.403 0 0 1 6.397-6.397 6.403 6.403 0 0 1 6.396 6.397 6.403 6.403 0 0 1-6.396 6.397 6.403 6.403 0 0 1-6.397-6.397zm127.932 19.19a6.403 6.403 0 0 1 6.397-6.397 6.403 6.403 0 0 1 6.397 6.397 6.403 6.403 0 0 1-6.397 6.396 6.403 6.403 0 0 1-6.397-6.396zm-25.586 0a6.403 6.403 0 0 1 6.396-6.397 6.403 6.403 0 0 1 6.397 6.397 6.403 6.403 0 0 1-6.397 6.396 6.403 6.403 0 0 1-6.396-6.396zm-25.587 0a6.403 6.403 0 0 1 6.397-6.397 6.403 6.403 0 0 1 6.397 6.397 6.403 6.403 0 0 1-6.397 6.396 6.403 6.403 0 0 1-6.397-6.396zm-25.586 0a6.403 6.403 0 0 1 6.397-6.397 6.403 6.403 0 0 1 6.396 6.397 6.403 6.403 0 0 1-6.396 6.396 6.403 6.403 0 0 1-6.397-6.396zm-25.587 0a6.403 6.403 0 0 1 6.397-6.397 6.403 6.403 0 0 1 6.397 6.397 6.403 6.403 0 0 1-6.397 6.396 6.403 6.403 0 0 1-6.397-6.396zm-25.586 0a6.403 6.403 0 0 1 6.397-6.397 6.403 6.403 0 0 1 6.396 6.397 6.403 6.403 0 0 1-6.396 6.396 6.403 6.403 0 0 1-6.397-6.396zm127.932 19.19a6.403 6.403 0 0 1 6.397-6.397 6.403 6.403 0 0 1 6.397 6.397 6.403 6.403 0 0 1-6.397 6.396 6.403 6.403 0 0 1-6.397-6.396zm-25.586 0a6.403 6.403 0 0 1 6.396-6.397 6.403 6.403 0 0 1 6.397 6.397 6.403 6.403 0 0 1-6.397 6.396 6.403 6.403 0 0 1-6.396-6.396zm-25.587 0a6.403 6.403 0 0 1 6.397-6.397 6.403 6.403 0 0 1 6.397 6.397 6.403 6.403 0 0 1-6.397 6.396 6.403 6.403 0 0 1-6.397-6.396zm-25.586 0a6.403 6.403 0 0 1 6.397-6.397 6.403 6.403 0 0 1 6.396 6.397 6.403 6.403 0 0 1-6.396 6.396 6.403 6.403 0 0 1-6.397-6.396zm-25.587 0a6.403 6.403 0 0 1 6.397-6.397 6.403 6.403 0 0 1 6.397 6.397 6.403 6.403 0 0 1-6.397 6.396 6.403 6.403 0 0 1-6.397-6.396zm-25.586 0a6.403 6.403 0 0 1 6.397-6.397 6.403 6.403 0 0 1 6.396 6.397 6.403 6.403 0 0 1-6.396 6.396 6.403 6.403 0 0 1-6.397-6.396zm166.312-47.975v70.363c0 8.818-7.174 15.991-15.992 15.991H16.968c-8.818 0-15.991-7.173-15.991-15.991a3.2 3.2 0 0 1 3.198-3.198h172.708a3.197 3.197 0 1 1 0 6.396H7.92c1.321 3.723 4.878 6.397 9.048 6.397h159.915c5.29 0 9.595-4.305 9.595-9.595v-70.363a3.197 3.197 0 1 1 6.397 0zM96.925 77.72c-16.08 0-29.388-8.357-31.618-19.19h63.237c-2.232 10.833-15.54 19.19-31.618 19.19zm79.958-25.586H16.968C8.15 52.134.977 59.308.977 68.125v95.95a3.2 3.2 0 0 0 6.396 0v-95.95c0-5.29 4.305-9.595 9.595-9.595h41.83c2.13 14.37 18.407 25.587 38.128 25.587 19.72 0 36-11.217 38.13-25.587h41.827c5.29 0 9.595 4.305 9.595 9.595v22.389H16.968a3.2 3.2 0 0 0 0 6.396h172.709a3.197 3.197 0 0 0 3.198-3.198V68.125c0-8.817-7.174-15.991-15.992-15.991z"/>
</svg>
