<?xml version="1.0" encoding="UTF-8"?>
<svg width="211px" height="42px" viewBox="0 0 211 42" version="1.1" xmlns="http://www.w3.org/2000/svg" xmlns:xlink="http://www.w3.org/1999/xlink">
    <!-- Generator: Sketch 47.1 (45422) - http://www.bohemiancoding.com/sketch -->
    <title>logo</title>
    <desc>Created with Sketch.</desc>
    <defs></defs>
    <g id="Freja-Creative-Multi-Purpose-Portfolio-Template" stroke="none" stroke-width="1" fill="none" fill-rule="evenodd">
        <g id="Home" transform="translate(-930.000000, -7872.000000)" fill-rule="nonzero" fill="#0B0E11">
            <g id="logo" transform="translate(930.286981, 7871.419020)">
                <rect id="Rectangle-path" x="70.321007" y="15.5908338" width="5.20357143" height="17.4727273"></rect>
                <path d="M89.121007,15.083561 C86.8269594,15.083561 85.0924356,15.9290156 84.1412451,17.2253792 L84.1412451,15.5908338 L78.9376737,15.5908338 L78.9376737,33.063561 L84.1412451,33.063561 L84.1412451,23.5381065 C84.1412451,21.0581065 85.4841022,19.9308338 87.3864832,19.9308338 C89.0650546,19.9308338 90.4079118,20.9453792 90.4079118,23.0871974 L90.4079118,33.063561 L95.6114832,33.063561 L95.6114832,22.2981065 C95.6114832,17.6199247 92.646007,15.083561 89.121007,15.083561 Z" id="Shape"></path>
                <polygon id="Shape" points="185.247197 33.063561 190.450769 33.063561 190.450769 15.5908338 185.247197 15.5908338"></polygon>
                <path d="M204.047197,15.083561 C201.75315,15.083561 200.018626,15.9290156 199.067436,17.2253792 L199.067436,15.5908338 L193.863864,15.5908338 L193.863864,33.063561 L199.067436,33.063561 L199.067436,23.5381065 C199.067436,21.0581065 200.410293,19.9308338 202.312674,19.9308338 C203.991245,19.9308338 205.334102,20.9453792 205.334102,23.0871974 L205.334102,33.063561 L210.537674,33.063561 L210.537674,22.2981065 C210.537674,17.6199247 207.572197,15.083561 204.047197,15.083561 Z" id="Shape"></path>
                <path d="M105.17934,10.292652 L99.9757689,10.292652 L99.9757689,15.5908338 L97.1781499,15.5908338 L97.1781499,20.6071974 L99.9757689,20.6071974 L99.9757689,26.8071974 C99.9757689,31.7108338 101.934102,33.7399247 108.760293,33.063561 L108.760293,28.3290156 C106.466245,28.4417429 105.17934,28.3290156 105.17934,26.8071974 L105.17934,20.6071974 L108.760293,20.6071974 L108.760293,15.5908338 L105.17934,15.5908338 L105.17934,10.292652 L105.17934,10.292652 Z" id="Shape"></path>
                <path d="M175.567436,15.083561 C173.273388,15.083561 171.538864,15.9290156 170.587674,17.2253792 L170.587674,10.292652 L165.384102,10.292652 L165.384102,33.063561 L170.587674,33.063561 L170.587674,23.5381065 C170.587674,21.0581065 171.930531,19.9308338 173.832912,19.9308338 C175.511483,19.9308338 176.85434,20.9453792 176.85434,23.0871974 L176.85434,33.063561 L182.057912,33.063561 L182.057912,22.2981065 C182.057912,17.6199247 179.036483,15.083561 175.567436,15.083561 Z" id="Shape"></path>
                <path d="M132.540055,14.9708338 C127.448388,14.9708338 123.307912,19.1417429 123.307912,24.2708338 C123.307912,29.3999247 127.448388,33.5708338 132.540055,33.5708338 C137.631721,33.5708338 141.772197,29.3999247 141.772197,24.2708338 C141.772197,19.1417429 137.631721,14.9708338 132.540055,14.9708338 Z M132.540055,28.6108338 C130.190055,28.6108338 128.287674,26.6944701 128.287674,24.3271974 C128.287674,21.9599247 130.190055,20.043561 132.540055,20.043561 C134.890055,20.043561 136.792436,21.9599247 136.792436,24.3271974 C136.792436,26.6381065 134.890055,28.6108338 132.540055,28.6108338 Z" id="Shape"></path>
                <path d="M154.75315,14.9708338 C152.571007,14.9708338 150.724578,15.8162883 149.381721,17.1690156 L149.381721,15.5908338 L144.17815,15.5908338 L144.17815,38.3617429 L149.381721,38.3617429 L149.381721,31.4290156 L149.381721,31.4290156 C150.724578,32.7817429 152.515055,33.6271974 154.75315,33.6271974 C159.844817,33.6271974 163.425769,29.4562883 163.425769,24.3271974 C163.369817,19.1417429 159.844817,14.9708338 154.75315,14.9708338 Z M154.137674,28.6108338 C151.787674,28.6108338 149.885293,26.6944701 149.885293,24.3271974 C149.885293,21.9599247 151.787674,20.043561 154.137674,20.043561 C156.487674,20.043561 158.390055,21.9599247 158.390055,24.3271974 C158.390055,26.6381065 156.487674,28.6108338 154.137674,28.6108338 Z" id="Shape"></path>
                <path d="M116.985293,17.1690156 L116.985293,15.5908338 L111.781721,15.5908338 L111.781721,33.063561 L116.985293,33.063561 L116.985293,25.172652 L116.985293,24.2708338 C116.985293,21.452652 119.782912,19.9871974 122.132912,19.9871974 L122.580531,19.9871974 L122.580531,14.9708338 C120.286483,14.9708338 118.384102,15.7599247 116.985293,17.1690156 Z" id="Shape"></path>
                <rect id="Rectangle-path" x="70.3769594" y="7.69992468" width="5.14761905" height="5.18545455"></rect>
                <rect id="Rectangle-path" x="185.247197" y="7.69992468" width="5.14761905" height="5.18545455"></rect>
                <rect id="Rectangle-path" transform="translate(19.440072, 28.765462) rotate(-45.000000) translate(-19.440072, -28.765462) " x="16.1668361" y="25.517493" width="6.54647187" height="6.4959377"></rect>
                <path d="M54.1630273,3.55556104 L54.1630273,3.55556104 C52.2442154,1.65156104 49.7610471,0.699561042 47.2214431,0.699561042 C44.7382748,0.699561042 42.1986708,1.65156104 40.279859,3.55556104 L33.3382748,10.443561 L47.2214431,24.219561 L54.1630273,17.331561 C58.000651,13.523561 58.000651,7.36356104 54.1630273,3.55556104 Z" id="Shape"></path>
                <path d="M3.25807679,3.55556104 L3.25807679,3.55556104 C1.3392649,5.45956104 0.379858964,7.92356104 0.379858964,10.443561 C0.379858964,12.963561 1.3392649,15.427561 3.25807679,17.331561 L10.1996609,24.163561 L24.0828293,10.387561 L17.1412451,3.49956104 C13.3036213,-0.252438958 7.09570055,-0.252438958 3.25807679,3.55556104 Z" id="Shape"></path>
                <rect id="Rectangle-path" transform="translate(28.727917, 19.618103) rotate(-45.000000) translate(-28.727917, -19.618103) " x="25.4546813" y="16.3701338" width="6.54647187" height="6.4959377"></rect>
                <rect id="Rectangle-path" transform="translate(28.698497, 37.942014) rotate(-45.000000) translate(-28.698497, -37.942014) " x="25.4252614" y="34.694045" width="6.54647187" height="6.4959377"></rect>
                <rect id="Rectangle-path" transform="translate(37.946437, 28.755057) rotate(-45.000000) translate(-37.946437, -28.755057) " x="34.673201" y="25.5070882" width="6.54647187" height="6.4959377"></rect>
            </g>
        </g>
    </g>
</svg>