<?xml version="1.0" encoding="UTF-8"?>
<svg width="1410px" height="658px" viewBox="0 0 1410 658" version="1.1" xmlns="http://www.w3.org/2000/svg" xmlns:xlink="http://www.w3.org/1999/xlink">
    <!-- Generator: Sketch 47.1 (45422) - http://www.bohemiancoding.com/sketch -->
    <title>Group 2</title>
    <desc>Created with Sketch.</desc>
    <defs></defs>
    <g id="Freja-Creative-Multi-Purpose-Portfolio-Template" stroke="none" stroke-width="1" fill="none" fill-rule="evenodd">
        <g id="Home" transform="translate(-14.000000, -273.000000)" fill-rule="nonzero" fill="#2ED9C3">
            <g id="Group-2" transform="translate(14.000000, 273.000000)">
                <g id="pattern">
                    <rect id="Rectangle-path" x="68.6038178" y="0" width="16.4861888" height="16.4861888"></rect>
                    <rect id="Rectangle-path" x="102.63982" y="0" width="16.4861888" height="16.4861888"></rect>
                    <g id="Group" transform="translate(0.000000, 68.072005)">
                        <rect id="Rectangle-path" x="0.447725954" y="0.234480984" width="16.9357209" height="51.1168545"></rect>
                        <rect id="Rectangle-path" x="34.4359658" y="0.234480984" width="16.9357209" height="51.1168545"></rect>
                    </g>
                    <g id="Group" transform="translate(137.207636, 0.000000)">
                        <rect id="Rectangle-path" x="0" y="0.117240492" width="16.9789692" height="51.1168545"></rect>
                        <rect id="Rectangle-path" x="34.0750347" y="0.117240492" width="16.9789692" height="51.1168545"></rect>
                    </g>
                    <g id="Group" transform="translate(204.747828, 273.351646)">
                        <rect id="Rectangle-path" transform="translate(25.724557, 8.646078) rotate(90.000000) translate(-25.724557, -8.646078) " x="17.2246214" y="-16.7934026" width="16.9998713" height="50.8789616"></rect>
                        <rect id="Rectangle-path" transform="translate(25.671095, 42.551071) rotate(90.000000) translate(-25.671095, -42.551071) " x="17.1711597" y="17.1115906" width="16.9998713" height="50.8789616"></rect>
                    </g>
                    <path d="M137.207636,68.0720053 L137.207636,119.126009 L188.26164,119.126009 L188.26164,68.0720053 L137.207636,68.0720053 Z M172.453634,103.318003 L153.132738,103.318003 L153.132738,83.8800111 L172.453634,83.8800111 L172.453634,103.318003 Z" id="Shape"></path>
                    <path d="M204.747828,204.216016 L204.747828,255.27002 L255.801832,255.27002 L255.801832,204.216016 L204.747828,204.216016 Z M239.993826,239.462014 L220.67293,239.462014 L220.67293,220.141118 L239.993826,220.141118 L239.993826,239.462014 Z" id="Shape"></path>
                    <path d="M68.6038178,204.216016 L68.6038178,255.27002 L119.657822,255.27002 L119.657822,204.216016 L68.6038178,204.216016 Z M103.849816,239.462014 L84.5289199,239.462014 L84.5289199,220.141118 L103.849816,220.141118 L103.849816,239.462014 Z" id="Shape"></path>
                    <rect id="Rectangle-path" x="68.6038178" y="34.5678152" width="16.4861888" height="16.4861888"></rect>
                    <rect id="Rectangle-path" x="102.63982" y="34.5678152" width="16.4861888" height="16.4861888"></rect>
                    <rect id="Rectangle-path" x="137.207636" y="136.675823" width="16.4861888" height="16.4861888"></rect>
                    <rect id="Rectangle-path" x="273.883459" y="102.63982" width="16.4861888" height="16.4861888"></rect>
                    <rect id="Rectangle-path" x="273.883459" y="204.216016" width="16.4861888" height="16.4861888"></rect>
                    <rect id="Rectangle-path" x="307.919461" y="204.216016" width="16.4861888" height="16.4861888"></rect>
                    <rect id="Rectangle-path" x="290.369647" y="221.76583" width="16.4861888" height="16.4861888"></rect>
                    <rect id="Rectangle-path" x="273.883459" y="238.783831" width="16.4861888" height="16.4861888"></rect>
                    <rect id="Rectangle-path" x="307.919461" y="238.783831" width="16.4861888" height="16.4861888"></rect>
                    <rect id="Rectangle-path" x="137.207636" y="204.216016" width="51.0540039" height="16.4861888"></rect>
                    <rect id="Rectangle-path" x="137.207636" y="238.783831" width="16.4861888" height="16.4861888"></rect>
                    <rect id="Rectangle-path" x="171.243638" y="238.783831" width="16.4861888" height="16.4861888"></rect>
                    <g id="Group" transform="translate(68.072005, 136.144011)">
                        <rect id="Rectangle-path" x="34.0360026" y="0.351721476" width="16.9207556" height="16.9998713"></rect>
                        <polygon id="Shape" points="50.9567582 34.4687046 50.9567582 51.468576 0.0777965774 51.468576 0.0777965774 0.351721476 17.115247 0.351721476 17.115247 34.4687046"></polygon>
                    </g>
                    <g id="Group" transform="translate(272.819834, 0.000000)">
                        <rect id="Rectangle-path" transform="translate(42.857496, 42.681049) rotate(90.000000) translate(-42.857496, -42.681049) " x="34.3575607" y="34.1811137" width="16.9998713" height="16.9998713"></rect>
                        <polygon id="Shape" points="17.3515928 51.234095 0.351721476 51.234095 0.351721476 0.117240492 51.3513355 0.117240492 51.3513355 17.1171118 17.3515928 17.1171118"></polygon>
                    </g>
                    <polygon id="Shape" points="273.883459 85.296518 273.883459 68.0720053 324.937463 68.0720053 324.937463 102.63982 307.919461 102.63982 307.919461 85.296518"></polygon>
                    <polygon id="Shape" points="170.977732 136.675823 188.26164 136.675823 188.26164 187.729827 153.693824 187.729827 153.693824 170.750858 170.977732 170.750858"></polygon>
                    <path d="M94.1308198,68.0720053 C80.079259,68.0720053 68.6038178,79.5474465 68.6038178,93.5990072 C68.6038178,107.650568 80.079259,119.126009 94.1308198,119.126009 C108.18238,119.126009 119.657822,107.650568 119.657822,93.5990072 C119.657822,79.5474465 108.299477,68.0720053 94.1308198,68.0720053 Z M94.1308198,104.840256 C87.9247138,104.840256 82.8895712,99.8051132 82.8895712,93.5990072 C82.8895712,87.3929012 87.9247138,82.3577586 94.1308198,82.3577586 C100.336926,82.3577586 105.372068,87.3929012 105.372068,93.5990072 C105.489165,99.8051132 100.336926,104.840256 94.1308198,104.840256 Z" id="Shape"></path>
                    <path d="M298.346836,136.675823 C284.295275,136.675823 272.819834,148.151264 272.819834,162.202825 C272.819834,176.254386 284.295275,187.729827 298.346836,187.729827 C312.398396,187.729827 323.873837,176.254386 323.873837,162.202825 C323.873837,148.151264 312.515493,136.675823 298.346836,136.675823 Z M298.346836,173.444074 C292.14073,173.444074 287.105587,168.408931 287.105587,162.202825 C287.105587,155.996719 292.14073,150.961576 298.346836,150.961576 C304.552942,150.961576 309.588084,155.996719 309.588084,162.202825 C309.70518,168.408931 304.670038,173.444074 298.346836,173.444074 Z" id="Shape"></path>
                    <path d="M26.0588145,273.351646 C12.0072538,273.351646 0.531812541,284.827087 0.531812541,298.878648 C0.531812541,312.930209 12.0072538,324.40565 26.0588145,324.40565 C40.1103752,324.40565 51.5858165,312.930209 51.5858165,298.878648 C51.5858165,284.827087 40.1103752,273.351646 26.0588145,273.351646 Z M26.0588145,310.236993 C19.8527085,310.236993 14.8175659,305.20185 14.8175659,298.995744 C14.8175659,292.789638 19.8527085,287.754496 26.0588145,287.754496 C32.2649205,287.754496 37.3000631,292.789638 37.3000631,298.995744 C37.3000631,305.20185 32.2649205,310.236993 26.0588145,310.236993 Z" id="Shape"></path>
                    <g id="Group" transform="translate(204.747828, 0.000000)">
                        <rect id="Rectangle-path" transform="translate(25.727019, 25.684344) rotate(90.000000) translate(-25.727019, -25.684344) " x="17.2270834" y="0.125916288" width="16.9998713" height="51.1168545"></rect>
                        <rect id="Rectangle-path" transform="translate(25.718343, 25.677075) rotate(-180.000000) translate(-25.718343, -25.677075) " x="17.2184076" y="0.118647378" width="16.9998713" height="51.1168545"></rect>
                    </g>
                    <g id="Group" transform="translate(0.531813, 204.216016)">
                        <rect id="Rectangle-path" transform="translate(25.451695, 25.490515) rotate(90.000000) translate(-25.451695, -25.490515) " x="16.9913171" y="0.0510345548" width="16.9207556" height="50.8789616"></rect>
                        <rect id="Rectangle-path" transform="translate(25.381211, 25.483280) rotate(-180.000000) translate(-25.381211, -25.483280) " x="16.9208334" y="0.0437994731" width="16.9207556" height="50.8789616"></rect>
                    </g>
                    <path d="M230.27483,68.0720053 C216.22327,68.0720053 204.747828,79.5474465 204.747828,93.5990072 C204.747828,107.650568 216.22327,119.126009 230.27483,119.126009 L255.801832,119.126009 L255.801832,104.840256 L230.27483,104.840256 C224.068724,104.840256 219.033582,99.8051132 219.033582,93.5990072 C219.033582,87.3929012 224.068724,82.3577586 230.27483,82.3577586 L255.801832,82.3577586 L255.801832,68.0720053 L230.27483,68.0720053 Z" id="Shape"></path>
                    <path d="M51.5858165,162.202825 C51.5858165,148.151264 40.1103752,136.675823 26.0588145,136.675823 C12.0072538,136.675823 0.531812541,148.151264 0.531812541,162.202825 L0.531812541,187.729827 L14.8175659,187.729827 L14.8175659,162.202825 C14.8175659,155.996719 19.8527085,150.961576 26.0588145,150.961576 C32.2649205,150.961576 37.3000631,155.996719 37.3000631,162.202825 L37.3000631,187.729827 L51.5858165,187.729827 L51.5858165,162.202825 Z" id="Shape"></path>
                    <path d="M137.207636,298.878648 C137.207636,312.930209 148.683077,324.40565 162.734638,324.40565 C176.786198,324.40565 188.26164,312.930209 188.26164,298.878648 L188.26164,273.351646 L173.975886,273.351646 L173.975886,298.878648 C173.975886,305.084754 168.940744,310.119897 162.734638,310.119897 C156.528532,310.119897 151.493389,305.084754 151.493389,298.878648 L151.493389,273.351646 L137.207636,273.351646 L137.207636,298.878648 Z" id="Shape"></path>
                    <path d="M341.423651,298.878648 C341.423651,312.930209 352.899093,324.40565 366.950653,324.40565 C381.002214,324.40565 392.477655,312.930209 392.477655,298.878648 L392.477655,273.351646 L378.191902,273.351646 L378.191902,298.878648 C378.191902,305.084754 373.156759,310.119897 366.950653,310.119897 C360.744547,310.119897 355.709405,305.084754 355.709405,298.878648 L355.709405,273.351646 L341.423651,273.351646 L341.423651,298.878648 Z" id="Shape"></path>
                    <path d="M0.531812541,51.0540039 C0.531812541,22.8337862 23.3655987,0 51.5858165,0 L51.5858165,16.9789692 C32.8504022,16.9789692 17.5107817,32.2014933 17.5107817,51.0540039 L0.531812541,51.0540039 Z" id="Shape"></path>
                    <path d="M204.747828,136.675823 C232.968046,136.675823 255.801832,159.509609 255.801832,187.729827 L238.822863,187.729827 C238.822863,168.994413 223.600339,153.654792 204.747828,153.654792 L204.747828,136.675823 Z" id="Shape"></path>
                    <path d="M119.657822,324.40565 C91.437604,324.40565 68.6038178,301.571864 68.6038178,273.351646 L85.582787,273.351646 C85.582787,292.08706 100.805311,307.426681 119.657822,307.426681 L119.657822,324.40565 Z" id="Shape"></path>
                    <rect id="Rectangle-path" x="682.847303" y="0" width="16.4861888" height="16.4861888"></rect>
                    <rect id="Rectangle-path" x="717.415118" y="0" width="16.4861888" height="16.4861888"></rect>
                    <path d="M682.847303,204.216016 L682.847303,255.27002 L733.901307,255.27002 L733.901307,204.216016 L682.847303,204.216016 Z M717.976204,239.462014 L698.655308,239.462014 L698.655308,220.141118 L717.976204,220.141118 L717.976204,239.462014 Z" id="Shape"></path>
                    <rect id="Rectangle-path" x="682.847303" y="34.5678152" width="16.4861888" height="16.4861888"></rect>
                    <rect id="Rectangle-path" x="717.415118" y="34.5678152" width="16.4861888" height="16.4861888"></rect>
                    <g id="Group" transform="translate(682.847303, 136.144011)">
                        <rect id="Rectangle-path" x="33.9579384" y="0.351721476" width="16.9789692" height="16.9998713"></rect>
                        <polygon id="Shape" points="51.0540039 34.4687046 51.0540039 51.468576 0 51.468576 0 0.351721476 16.9789692 0.351721476 16.9789692 34.4687046"></polygon>
                    </g>
                    <path d="M708.374305,68.0720053 C694.322744,68.0720053 682.847303,79.5474465 682.847303,93.5990072 C682.847303,107.650568 694.322744,119.126009 708.374305,119.126009 C722.425865,119.126009 733.901307,107.650568 733.901307,93.5990072 C733.901307,79.5474465 722.425865,68.0720053 708.374305,68.0720053 Z M708.374305,104.840256 C702.168199,104.840256 697.133056,99.8051132 697.133056,93.5990072 C697.133056,87.3929012 702.168199,82.3577586 708.374305,82.3577586 C714.580411,82.3577586 719.615553,87.3929012 719.615553,93.5990072 C719.615553,99.8051132 714.580411,104.840256 708.374305,104.840256 Z" id="Shape"></path>
                    <path d="M733.901307,324.40565 C705.681089,324.40565 682.847303,301.571864 682.847303,273.351646 L699.826272,273.351646 C699.826272,292.08706 715.048796,307.426681 733.901307,307.426681 L733.901307,324.40565 Z" id="Shape"></path>
                    <path d="M323.873837,273.351646 C323.873837,301.571864 301.040051,324.40565 272.819834,324.40565 L272.819834,307.426681 C291.555248,307.426681 306.894868,292.204157 306.894868,273.351646 L323.873837,273.351646 L323.873837,273.351646 Z" id="Shape"></path>
                    <rect id="Rectangle-path" transform="translate(349.666746, 247.026925) rotate(-90.000000) translate(-349.666746, -247.026925) " x="341.423651" y="238.783831" width="16.4861888" height="16.4861888"></rect>
                    <rect id="Rectangle-path" transform="translate(349.666746, 212.459110) rotate(-90.000000) translate(-349.666746, -212.459110) " x="341.423651" y="204.216016" width="16.4861888" height="16.4861888"></rect>
                    <g id="Group" transform="translate(409.495657, 273.351646)">
                        <rect id="Rectangle-path" transform="translate(25.595307, 42.587130) rotate(-90.000000) translate(-25.595307, -42.587130) " x="17.1349296" y="17.1476493" width="16.9207556" height="50.8789616"></rect>
                        <rect id="Rectangle-path" transform="translate(25.542095, 8.682137) rotate(-90.000000) translate(-25.542095, -8.682137) " x="17.0817167" y="-16.7573439" width="16.9207556" height="50.8789616"></rect>
                    </g>
                    <g id="Group" transform="translate(340.891839, 136.675823)">
                        <rect id="Rectangle-path" transform="translate(25.878365, 42.490983) rotate(-90.000000) translate(-25.878365, -42.490983) " x="17.4105051" y="16.9639809" width="16.9357209" height="51.0540039"></rect>
                        <rect id="Rectangle-path" transform="translate(25.941904, 8.469344) rotate(-90.000000) translate(-25.941904, -8.469344) " x="17.4740432" y="-17.0576579" width="16.9357209" height="51.0540039"></rect>
                    </g>
                    <g id="Group" transform="translate(613.711672, 68.072005)">
                        <rect id="Rectangle-path" x="0.447725954" y="0.234480984" width="16.9357209" height="51.1168545"></rect>
                        <rect id="Rectangle-path" x="34.4359658" y="0.234480984" width="16.9357209" height="51.1168545"></rect>
                    </g>
                    <path d="M410.027469,187.729827 L461.081473,187.729827 L461.081473,136.675823 L410.027469,136.675823 L410.027469,187.729827 Z M445.273467,152.483829 L445.273467,171.804725 L425.835475,171.804725 L425.835475,152.483829 L445.273467,152.483829 Z" id="Shape"></path>
                    <path d="M546.17148,119.126009 L597.225484,119.126009 L597.225484,68.0720053 L546.17148,68.0720053 L546.17148,119.126009 L546.17148,119.126009 Z M581.417478,83.8800111 L581.417478,103.200907 L562.096582,103.200907 L562.096582,83.8800111 L581.417478,83.8800111 Z" id="Shape"></path>
                    <path d="M546.17148,255.27002 L597.225484,255.27002 L597.225484,204.216016 L546.17148,204.216016 L546.17148,255.27002 L546.17148,255.27002 Z M581.417478,220.141118 L581.417478,239.462014 L562.096582,239.462014 L562.096582,220.141118 L581.417478,220.141118 Z" id="Shape"></path>
                    <rect id="Rectangle-path" transform="translate(383.702748, 247.026925) rotate(-90.000000) translate(-383.702748, -247.026925) " x="375.459654" y="238.783831" width="16.4861888" height="16.4861888"></rect>
                    <rect id="Rectangle-path" transform="translate(383.702748, 212.459110) rotate(-90.000000) translate(-383.702748, -212.459110) " x="375.459654" y="204.216016" width="16.4861888" height="16.4861888"></rect>
                    <rect id="Rectangle-path" transform="translate(485.810756, 179.486733) rotate(-90.000000) translate(-485.810756, -179.486733) " x="477.567662" y="171.243638" width="16.4861888" height="16.4861888"></rect>
                    <rect id="Rectangle-path" transform="translate(452.306566, 42.810910) rotate(-90.000000) translate(-452.306566, -42.810910) " x="444.063472" y="34.5678152" width="16.4861888" height="16.4861888"></rect>
                    <rect id="Rectangle-path" transform="translate(554.414574, 42.810910) rotate(-90.000000) translate(-554.414574, -42.810910) " x="546.17148" y="34.5678152" width="16.4861888" height="16.4861888"></rect>
                    <rect id="Rectangle-path" transform="translate(554.414574, 8.243094) rotate(-90.000000) translate(-554.414574, -8.243094) " x="546.17148" y="0" width="16.4861888" height="16.4861888"></rect>
                    <rect id="Rectangle-path" transform="translate(571.432575, 24.729283) rotate(-90.000000) translate(-571.432575, -24.729283) " x="563.189481" y="16.4861888" width="16.4861888" height="16.4861888"></rect>
                    <rect id="Rectangle-path" transform="translate(588.982389, 42.810910) rotate(-90.000000) translate(-588.982389, -42.810910) " x="580.739295" y="34.5678152" width="16.4861888" height="16.4861888"></rect>
                    <rect id="Rectangle-path" transform="translate(588.982389, 8.243094) rotate(-90.000000) translate(-588.982389, -8.243094) " x="580.739295" y="0" width="16.4861888" height="16.4861888"></rect>
                    <rect id="Rectangle-path" x="546.17148" y="136.675823" width="16.4861888" height="51.0540039"></rect>
                    <rect id="Rectangle-path" transform="translate(588.982389, 179.486733) rotate(-90.000000) translate(-588.982389, -179.486733) " x="580.739295" y="171.243638" width="16.4861888" height="16.4861888"></rect>
                    <rect id="Rectangle-path" transform="translate(588.982389, 144.918917) rotate(-90.000000) translate(-588.982389, -144.918917) " x="580.739295" y="136.675823" width="16.4861888" height="16.4861888"></rect>
                    <g id="Group" transform="translate(477.567662, 204.216016)">
                        <rect id="Rectangle-path" transform="translate(8.676267, 8.582576) rotate(-90.000000) translate(-8.676267, -8.582576) " x="0.208406699" y="0.0930915898" width="16.9357209" height="16.9789692"></rect>
                        <polygon id="Shape" points="34.2023696 0 51.1380905 0 51.1380905 51.0540039 0.214129804 51.0540039 0.214129804 34.0750347 34.2023696 34.0750347"></polygon>
                    </g>
                    <g id="Group" transform="translate(340.891839, 0.000000)">
                        <rect id="Rectangle-path" x="34.4554321" y="0.117240492" width="16.9357209" height="16.9998713"></rect>
                        <polygon id="Shape" points="51.391153 34.2342237 51.391153 51.234095 0.4671923 51.234095 0.4671923 0.117240492 17.4029132 0.117240492 17.4029132 34.2342237"></polygon>
                    </g>
                    <polygon id="Shape" points="427.251982 51.0540039 410.027469 51.0540039 410.027469 0 444.595284 0 444.595284 16.9789692 427.251982 16.9789692"></polygon>
                    <polygon id="Shape" points="477.567662 153.900336 477.567662 136.675823 528.621666 136.675823 528.621666 171.243638 511.642697 171.243638 511.642697 153.900336"></polygon>
                    <path d="M410.027469,229.743018 C410.027469,243.794578 421.50291,255.27002 435.554471,255.27002 C449.606032,255.27002 461.081473,243.794578 461.081473,229.743018 C461.081473,215.691457 449.606032,204.216016 435.554471,204.216016 C421.50291,204.216016 410.027469,215.691457 410.027469,229.743018 Z M446.79572,229.743018 C446.79572,235.949124 441.760577,240.984266 435.554471,240.984266 C429.348365,240.984266 424.313223,235.949124 424.313223,229.743018 C424.313223,223.536912 429.348365,218.501769 435.554471,218.501769 C441.760577,218.501769 446.79572,223.536912 446.79572,229.743018 Z" id="Shape"></path>
                    <path d="M477.567662,25.527002 C477.567662,39.5785627 489.043103,51.0540039 503.094664,51.0540039 C517.146225,51.0540039 528.621666,39.5785627 528.621666,25.527002 C528.621666,11.4754413 517.146225,0 503.094664,0 C489.043103,0 477.567662,11.4754413 477.567662,25.527002 Z M514.335912,25.527002 C514.335912,31.733108 509.30077,36.7682505 503.094664,36.7682505 C496.888558,36.7682505 491.853415,31.733108 491.853415,25.527002 C491.853415,19.320896 496.888558,14.2857534 503.094664,14.2857534 C509.30077,14.2857534 514.335912,19.320896 514.335912,25.527002 Z" id="Shape"></path>
                    <path d="M613.711672,298.878648 C613.711672,312.930209 625.187114,324.40565 639.238674,324.40565 C653.290235,324.40565 664.765676,312.930209 664.765676,298.878648 C664.765676,284.827087 653.290235,273.351646 639.238674,273.351646 C625.187114,273.351646 613.711672,284.827087 613.711672,298.878648 Z M650.597019,298.878648 C650.597019,305.084754 645.561877,310.119897 639.355771,310.119897 C633.149665,310.119897 628.114522,305.084754 628.114522,298.878648 C628.114522,292.672542 633.149665,287.637399 639.355771,287.637399 C645.44478,287.637399 650.597019,292.672542 650.597019,298.878648 Z" id="Shape"></path>
                    <g id="Group" transform="translate(340.891839, 68.072005)">
                        <rect id="Rectangle-path" x="17.4029132" y="0.234480984" width="16.9357209" height="51.1168545"></rect>
                        <rect id="Rectangle-path" transform="translate(25.933494, 25.746129) rotate(90.000000) translate(-25.933494, -25.746129) " x="17.4656337" y="0.187702028" width="16.9357209" height="51.1168545"></rect>
                    </g>
                    <g id="Group" transform="translate(545.639667, 273.351646)">
                        <rect id="Rectangle-path" x="17.3834468" y="0.0972457218" width="16.9357209" height="50.8789616"></rect>
                        <rect id="Rectangle-path" transform="translate(25.859250, 25.606860) rotate(90.000000) translate(-25.859250, -25.606860) " x="17.3913891" y="0.167379336" width="16.9357209" height="50.8789616"></rect>
                    </g>
                    <path d="M410.027469,93.5990072 C410.027469,107.650568 421.50291,119.126009 435.554471,119.126009 C449.606032,119.126009 461.081473,107.650568 461.081473,93.5990072 L461.081473,68.0720053 L446.79572,68.0720053 L446.79572,93.5990072 C446.79572,99.8051132 441.760577,104.840256 435.554471,104.840256 C429.348365,104.840256 424.313223,99.8051132 424.313223,93.5990072 L424.313223,68.0720053 L410.027469,68.0720053 L410.027469,93.5990072 Z" id="Shape"></path>
                    <path d="M503.094664,273.351646 C489.043103,273.351646 477.567662,284.827087 477.567662,298.878648 C477.567662,312.930209 489.043103,324.40565 503.094664,324.40565 L528.621666,324.40565 L528.621666,310.236993 L503.094664,310.236993 C496.888558,310.236993 491.853415,305.20185 491.853415,298.995744 C491.853415,292.789638 496.888558,287.754496 503.094664,287.754496 L528.621666,287.754496 L528.621666,273.468742 L503.094664,273.351646 Z" id="Shape"></path>
                    <path d="M639.238674,187.729827 C653.290235,187.729827 664.765676,176.254386 664.765676,162.202825 C664.765676,148.151264 653.290235,136.675823 639.238674,136.675823 L613.711672,136.675823 L613.711672,150.961576 L639.238674,150.961576 C645.44478,150.961576 650.479923,155.996719 650.479923,162.202825 C650.479923,168.408931 645.44478,173.444074 639.238674,173.444074 L613.711672,173.444074 L613.711672,187.729827 L639.238674,187.729827 Z" id="Shape"></path>
                    <path d="M477.567662,119.126009 C477.567662,90.9057914 500.401448,68.0720053 528.621666,68.0720053 L528.621666,85.0509745 C509.886251,85.0509745 494.546631,100.273499 494.546631,119.126009 L477.567662,119.126009 L477.567662,119.126009 Z" id="Shape"></path>
                    <path d="M664.765676,204.216016 C664.765676,232.436234 641.93189,255.27002 613.711672,255.27002 L613.711672,238.29105 C632.447087,238.29105 647.786707,223.068526 647.786707,204.216016 L664.765676,204.216016 Z" id="Shape"></path>
                    <path d="M613.711672,0 C641.93189,0 664.765676,22.8337862 664.765676,51.0540039 L647.786707,51.0540039 C647.786707,32.3185896 632.564183,16.9789692 613.711672,16.9789692 L613.711672,0 Z" id="Shape"></path>
                </g>
                <g id="pattern-copy-2" transform="translate(0.000000, 332.739015)">
                    <rect id="Rectangle-path" x="68.6038178" y="0" width="16.4861888" height="16.4861888"></rect>
                    <rect id="Rectangle-path" x="102.63982" y="0" width="16.4861888" height="16.4861888"></rect>
                    <g id="Group" transform="translate(0.000000, 68.072005)">
                        <rect id="Rectangle-path" x="0.447725954" y="0.234480984" width="16.9357209" height="51.1168545"></rect>
                        <rect id="Rectangle-path" x="34.4359658" y="0.234480984" width="16.9357209" height="51.1168545"></rect>
                    </g>
                    <g id="Group" transform="translate(137.207636, 0.000000)">
                        <rect id="Rectangle-path" x="0" y="0.117240492" width="16.9789692" height="51.1168545"></rect>
                        <rect id="Rectangle-path" x="34.0750347" y="0.117240492" width="16.9789692" height="51.1168545"></rect>
                    </g>
                    <g id="Group" transform="translate(204.747828, 273.351646)">
                        <rect id="Rectangle-path" transform="translate(25.724557, 8.646078) rotate(90.000000) translate(-25.724557, -8.646078) " x="17.2246214" y="-16.7934026" width="16.9998713" height="50.8789616"></rect>
                        <rect id="Rectangle-path" transform="translate(25.671095, 42.551071) rotate(90.000000) translate(-25.671095, -42.551071) " x="17.1711597" y="17.1115906" width="16.9998713" height="50.8789616"></rect>
                    </g>
                    <path d="M137.207636,68.0720053 L137.207636,119.126009 L188.26164,119.126009 L188.26164,68.0720053 L137.207636,68.0720053 Z M172.453634,103.318003 L153.132738,103.318003 L153.132738,83.8800111 L172.453634,83.8800111 L172.453634,103.318003 Z" id="Shape"></path>
                    <path d="M204.747828,204.216016 L204.747828,255.27002 L255.801832,255.27002 L255.801832,204.216016 L204.747828,204.216016 Z M239.993826,239.462014 L220.67293,239.462014 L220.67293,220.141118 L239.993826,220.141118 L239.993826,239.462014 Z" id="Shape"></path>
                    <path d="M68.6038178,204.216016 L68.6038178,255.27002 L119.657822,255.27002 L119.657822,204.216016 L68.6038178,204.216016 Z M103.849816,239.462014 L84.5289199,239.462014 L84.5289199,220.141118 L103.849816,220.141118 L103.849816,239.462014 Z" id="Shape"></path>
                    <rect id="Rectangle-path" x="68.6038178" y="34.5678152" width="16.4861888" height="16.4861888"></rect>
                    <rect id="Rectangle-path" x="102.63982" y="34.5678152" width="16.4861888" height="16.4861888"></rect>
                    <rect id="Rectangle-path" x="137.207636" y="136.675823" width="16.4861888" height="16.4861888"></rect>
                    <rect id="Rectangle-path" x="273.883459" y="102.63982" width="16.4861888" height="16.4861888"></rect>
                    <rect id="Rectangle-path" x="273.883459" y="204.216016" width="16.4861888" height="16.4861888"></rect>
                    <rect id="Rectangle-path" x="307.919461" y="204.216016" width="16.4861888" height="16.4861888"></rect>
                    <rect id="Rectangle-path" x="290.369647" y="221.76583" width="16.4861888" height="16.4861888"></rect>
                    <rect id="Rectangle-path" x="273.883459" y="238.783831" width="16.4861888" height="16.4861888"></rect>
                    <rect id="Rectangle-path" x="307.919461" y="238.783831" width="16.4861888" height="16.4861888"></rect>
                    <rect id="Rectangle-path" x="137.207636" y="204.216016" width="51.0540039" height="16.4861888"></rect>
                    <rect id="Rectangle-path" x="137.207636" y="238.783831" width="16.4861888" height="16.4861888"></rect>
                    <rect id="Rectangle-path" x="171.243638" y="238.783831" width="16.4861888" height="16.4861888"></rect>
                    <g id="Group" transform="translate(68.072005, 136.144011)">
                        <rect id="Rectangle-path" x="34.0360026" y="0.351721476" width="16.9207556" height="16.9998713"></rect>
                        <polygon id="Shape" points="50.9567582 34.4687046 50.9567582 51.468576 0.0777965774 51.468576 0.0777965774 0.351721476 17.115247 0.351721476 17.115247 34.4687046"></polygon>
                    </g>
                    <g id="Group" transform="translate(272.819834, 0.000000)">
                        <rect id="Rectangle-path" transform="translate(42.857496, 42.681049) rotate(90.000000) translate(-42.857496, -42.681049) " x="34.3575607" y="34.1811137" width="16.9998713" height="16.9998713"></rect>
                        <polygon id="Shape" points="17.3515928 51.234095 0.351721476 51.234095 0.351721476 0.117240492 51.3513355 0.117240492 51.3513355 17.1171118 17.3515928 17.1171118"></polygon>
                    </g>
                    <polygon id="Shape" points="273.883459 85.296518 273.883459 68.0720053 324.937463 68.0720053 324.937463 102.63982 307.919461 102.63982 307.919461 85.296518"></polygon>
                    <polygon id="Shape" points="170.977732 136.675823 188.26164 136.675823 188.26164 187.729827 153.693824 187.729827 153.693824 170.750858 170.977732 170.750858"></polygon>
                    <path d="M94.1308198,68.0720053 C80.079259,68.0720053 68.6038178,79.5474465 68.6038178,93.5990072 C68.6038178,107.650568 80.079259,119.126009 94.1308198,119.126009 C108.18238,119.126009 119.657822,107.650568 119.657822,93.5990072 C119.657822,79.5474465 108.299477,68.0720053 94.1308198,68.0720053 Z M94.1308198,104.840256 C87.9247138,104.840256 82.8895712,99.8051132 82.8895712,93.5990072 C82.8895712,87.3929012 87.9247138,82.3577586 94.1308198,82.3577586 C100.336926,82.3577586 105.372068,87.3929012 105.372068,93.5990072 C105.489165,99.8051132 100.336926,104.840256 94.1308198,104.840256 Z" id="Shape"></path>
                    <path d="M298.346836,136.675823 C284.295275,136.675823 272.819834,148.151264 272.819834,162.202825 C272.819834,176.254386 284.295275,187.729827 298.346836,187.729827 C312.398396,187.729827 323.873837,176.254386 323.873837,162.202825 C323.873837,148.151264 312.515493,136.675823 298.346836,136.675823 Z M298.346836,173.444074 C292.14073,173.444074 287.105587,168.408931 287.105587,162.202825 C287.105587,155.996719 292.14073,150.961576 298.346836,150.961576 C304.552942,150.961576 309.588084,155.996719 309.588084,162.202825 C309.70518,168.408931 304.670038,173.444074 298.346836,173.444074 Z" id="Shape"></path>
                    <path d="M26.0588145,273.351646 C12.0072538,273.351646 0.531812541,284.827087 0.531812541,298.878648 C0.531812541,312.930209 12.0072538,324.40565 26.0588145,324.40565 C40.1103752,324.40565 51.5858165,312.930209 51.5858165,298.878648 C51.5858165,284.827087 40.1103752,273.351646 26.0588145,273.351646 Z M26.0588145,310.236993 C19.8527085,310.236993 14.8175659,305.20185 14.8175659,298.995744 C14.8175659,292.789638 19.8527085,287.754496 26.0588145,287.754496 C32.2649205,287.754496 37.3000631,292.789638 37.3000631,298.995744 C37.3000631,305.20185 32.2649205,310.236993 26.0588145,310.236993 Z" id="Shape"></path>
                    <g id="Group" transform="translate(204.747828, 0.000000)">
                        <rect id="Rectangle-path" transform="translate(25.727019, 25.684344) rotate(90.000000) translate(-25.727019, -25.684344) " x="17.2270834" y="0.125916288" width="16.9998713" height="51.1168545"></rect>
                        <rect id="Rectangle-path" transform="translate(25.718343, 25.677075) rotate(-180.000000) translate(-25.718343, -25.677075) " x="17.2184076" y="0.118647378" width="16.9998713" height="51.1168545"></rect>
                    </g>
                    <g id="Group" transform="translate(0.531813, 204.216016)">
                        <rect id="Rectangle-path" transform="translate(25.451695, 25.490515) rotate(90.000000) translate(-25.451695, -25.490515) " x="16.9913171" y="0.0510345548" width="16.9207556" height="50.8789616"></rect>
                        <rect id="Rectangle-path" transform="translate(25.381211, 25.483280) rotate(-180.000000) translate(-25.381211, -25.483280) " x="16.9208334" y="0.0437994731" width="16.9207556" height="50.8789616"></rect>
                    </g>
                    <path d="M230.27483,68.0720053 C216.22327,68.0720053 204.747828,79.5474465 204.747828,93.5990072 C204.747828,107.650568 216.22327,119.126009 230.27483,119.126009 L255.801832,119.126009 L255.801832,104.840256 L230.27483,104.840256 C224.068724,104.840256 219.033582,99.8051132 219.033582,93.5990072 C219.033582,87.3929012 224.068724,82.3577586 230.27483,82.3577586 L255.801832,82.3577586 L255.801832,68.0720053 L230.27483,68.0720053 Z" id="Shape"></path>
                    <path d="M51.5858165,162.202825 C51.5858165,148.151264 40.1103752,136.675823 26.0588145,136.675823 C12.0072538,136.675823 0.531812541,148.151264 0.531812541,162.202825 L0.531812541,187.729827 L14.8175659,187.729827 L14.8175659,162.202825 C14.8175659,155.996719 19.8527085,150.961576 26.0588145,150.961576 C32.2649205,150.961576 37.3000631,155.996719 37.3000631,162.202825 L37.3000631,187.729827 L51.5858165,187.729827 L51.5858165,162.202825 Z" id="Shape"></path>
                    <path d="M137.207636,298.878648 C137.207636,312.930209 148.683077,324.40565 162.734638,324.40565 C176.786198,324.40565 188.26164,312.930209 188.26164,298.878648 L188.26164,273.351646 L173.975886,273.351646 L173.975886,298.878648 C173.975886,305.084754 168.940744,310.119897 162.734638,310.119897 C156.528532,310.119897 151.493389,305.084754 151.493389,298.878648 L151.493389,273.351646 L137.207636,273.351646 L137.207636,298.878648 Z" id="Shape"></path>
                    <path d="M341.423651,298.878648 C341.423651,312.930209 352.899093,324.40565 366.950653,324.40565 C381.002214,324.40565 392.477655,312.930209 392.477655,298.878648 L392.477655,273.351646 L378.191902,273.351646 L378.191902,298.878648 C378.191902,305.084754 373.156759,310.119897 366.950653,310.119897 C360.744547,310.119897 355.709405,305.084754 355.709405,298.878648 L355.709405,273.351646 L341.423651,273.351646 L341.423651,298.878648 Z" id="Shape"></path>
                    <path d="M0.531812541,51.0540039 C0.531812541,22.8337862 23.3655987,0 51.5858165,0 L51.5858165,16.9789692 C32.8504022,16.9789692 17.5107817,32.2014933 17.5107817,51.0540039 L0.531812541,51.0540039 Z" id="Shape"></path>
                    <path d="M204.747828,136.675823 C232.968046,136.675823 255.801832,159.509609 255.801832,187.729827 L238.822863,187.729827 C238.822863,168.994413 223.600339,153.654792 204.747828,153.654792 L204.747828,136.675823 Z" id="Shape"></path>
                    <path d="M119.657822,324.40565 C91.437604,324.40565 68.6038178,301.571864 68.6038178,273.351646 L85.582787,273.351646 C85.582787,292.08706 100.805311,307.426681 119.657822,307.426681 L119.657822,324.40565 Z" id="Shape"></path>
                    <rect id="Rectangle-path" x="682.847303" y="0" width="16.4861888" height="16.4861888"></rect>
                    <rect id="Rectangle-path" x="717.415118" y="0" width="16.4861888" height="16.4861888"></rect>
                    <path d="M682.847303,204.216016 L682.847303,255.27002 L733.901307,255.27002 L733.901307,204.216016 L682.847303,204.216016 Z M717.976204,239.462014 L698.655308,239.462014 L698.655308,220.141118 L717.976204,220.141118 L717.976204,239.462014 Z" id="Shape"></path>
                    <rect id="Rectangle-path" x="682.847303" y="34.5678152" width="16.4861888" height="16.4861888"></rect>
                    <rect id="Rectangle-path" x="717.415118" y="34.5678152" width="16.4861888" height="16.4861888"></rect>
                    <g id="Group" transform="translate(682.847303, 136.144011)">
                        <rect id="Rectangle-path" x="33.9579384" y="0.351721476" width="16.9789692" height="16.9998713"></rect>
                        <polygon id="Shape" points="51.0540039 34.4687046 51.0540039 51.468576 0 51.468576 0 0.351721476 16.9789692 0.351721476 16.9789692 34.4687046"></polygon>
                    </g>
                    <path d="M708.374305,68.0720053 C694.322744,68.0720053 682.847303,79.5474465 682.847303,93.5990072 C682.847303,107.650568 694.322744,119.126009 708.374305,119.126009 C722.425865,119.126009 733.901307,107.650568 733.901307,93.5990072 C733.901307,79.5474465 722.425865,68.0720053 708.374305,68.0720053 Z M708.374305,104.840256 C702.168199,104.840256 697.133056,99.8051132 697.133056,93.5990072 C697.133056,87.3929012 702.168199,82.3577586 708.374305,82.3577586 C714.580411,82.3577586 719.615553,87.3929012 719.615553,93.5990072 C719.615553,99.8051132 714.580411,104.840256 708.374305,104.840256 Z" id="Shape"></path>
                    <path d="M733.901307,324.40565 C705.681089,324.40565 682.847303,301.571864 682.847303,273.351646 L699.826272,273.351646 C699.826272,292.08706 715.048796,307.426681 733.901307,307.426681 L733.901307,324.40565 Z" id="Shape"></path>
                    <path d="M323.873837,273.351646 C323.873837,301.571864 301.040051,324.40565 272.819834,324.40565 L272.819834,307.426681 C291.555248,307.426681 306.894868,292.204157 306.894868,273.351646 L323.873837,273.351646 L323.873837,273.351646 Z" id="Shape"></path>
                    <rect id="Rectangle-path" transform="translate(349.666746, 247.026925) rotate(-90.000000) translate(-349.666746, -247.026925) " x="341.423651" y="238.783831" width="16.4861888" height="16.4861888"></rect>
                    <rect id="Rectangle-path" transform="translate(349.666746, 212.459110) rotate(-90.000000) translate(-349.666746, -212.459110) " x="341.423651" y="204.216016" width="16.4861888" height="16.4861888"></rect>
                    <g id="Group" transform="translate(409.495657, 273.351646)">
                        <rect id="Rectangle-path" transform="translate(25.595307, 42.587130) rotate(-90.000000) translate(-25.595307, -42.587130) " x="17.1349296" y="17.1476493" width="16.9207556" height="50.8789616"></rect>
                        <rect id="Rectangle-path" transform="translate(25.542095, 8.682137) rotate(-90.000000) translate(-25.542095, -8.682137) " x="17.0817167" y="-16.7573439" width="16.9207556" height="50.8789616"></rect>
                    </g>
                    <g id="Group" transform="translate(340.891839, 136.675823)">
                        <rect id="Rectangle-path" transform="translate(25.878365, 42.490983) rotate(-90.000000) translate(-25.878365, -42.490983) " x="17.4105051" y="16.9639809" width="16.9357209" height="51.0540039"></rect>
                        <rect id="Rectangle-path" transform="translate(25.941904, 8.469344) rotate(-90.000000) translate(-25.941904, -8.469344) " x="17.4740432" y="-17.0576579" width="16.9357209" height="51.0540039"></rect>
                    </g>
                    <g id="Group" transform="translate(613.711672, 68.072005)">
                        <rect id="Rectangle-path" x="0.447725954" y="0.234480984" width="16.9357209" height="51.1168545"></rect>
                        <rect id="Rectangle-path" x="34.4359658" y="0.234480984" width="16.9357209" height="51.1168545"></rect>
                    </g>
                    <path d="M410.027469,187.729827 L461.081473,187.729827 L461.081473,136.675823 L410.027469,136.675823 L410.027469,187.729827 Z M445.273467,152.483829 L445.273467,171.804725 L425.835475,171.804725 L425.835475,152.483829 L445.273467,152.483829 Z" id="Shape"></path>
                    <path d="M546.17148,119.126009 L597.225484,119.126009 L597.225484,68.0720053 L546.17148,68.0720053 L546.17148,119.126009 L546.17148,119.126009 Z M581.417478,83.8800111 L581.417478,103.200907 L562.096582,103.200907 L562.096582,83.8800111 L581.417478,83.8800111 Z" id="Shape"></path>
                    <path d="M546.17148,255.27002 L597.225484,255.27002 L597.225484,204.216016 L546.17148,204.216016 L546.17148,255.27002 L546.17148,255.27002 Z M581.417478,220.141118 L581.417478,239.462014 L562.096582,239.462014 L562.096582,220.141118 L581.417478,220.141118 Z" id="Shape"></path>
                    <rect id="Rectangle-path" transform="translate(383.702748, 247.026925) rotate(-90.000000) translate(-383.702748, -247.026925) " x="375.459654" y="238.783831" width="16.4861888" height="16.4861888"></rect>
                    <rect id="Rectangle-path" transform="translate(383.702748, 212.459110) rotate(-90.000000) translate(-383.702748, -212.459110) " x="375.459654" y="204.216016" width="16.4861888" height="16.4861888"></rect>
                    <rect id="Rectangle-path" transform="translate(485.810756, 179.486733) rotate(-90.000000) translate(-485.810756, -179.486733) " x="477.567662" y="171.243638" width="16.4861888" height="16.4861888"></rect>
                    <rect id="Rectangle-path" transform="translate(452.306566, 42.810910) rotate(-90.000000) translate(-452.306566, -42.810910) " x="444.063472" y="34.5678152" width="16.4861888" height="16.4861888"></rect>
                    <rect id="Rectangle-path" transform="translate(554.414574, 42.810910) rotate(-90.000000) translate(-554.414574, -42.810910) " x="546.17148" y="34.5678152" width="16.4861888" height="16.4861888"></rect>
                    <rect id="Rectangle-path" transform="translate(554.414574, 8.243094) rotate(-90.000000) translate(-554.414574, -8.243094) " x="546.17148" y="0" width="16.4861888" height="16.4861888"></rect>
                    <rect id="Rectangle-path" transform="translate(571.432575, 24.729283) rotate(-90.000000) translate(-571.432575, -24.729283) " x="563.189481" y="16.4861888" width="16.4861888" height="16.4861888"></rect>
                    <rect id="Rectangle-path" transform="translate(588.982389, 42.810910) rotate(-90.000000) translate(-588.982389, -42.810910) " x="580.739295" y="34.5678152" width="16.4861888" height="16.4861888"></rect>
                    <rect id="Rectangle-path" transform="translate(588.982389, 8.243094) rotate(-90.000000) translate(-588.982389, -8.243094) " x="580.739295" y="0" width="16.4861888" height="16.4861888"></rect>
                    <rect id="Rectangle-path" x="546.17148" y="136.675823" width="16.4861888" height="51.0540039"></rect>
                    <rect id="Rectangle-path" transform="translate(588.982389, 179.486733) rotate(-90.000000) translate(-588.982389, -179.486733) " x="580.739295" y="171.243638" width="16.4861888" height="16.4861888"></rect>
                    <rect id="Rectangle-path" transform="translate(588.982389, 144.918917) rotate(-90.000000) translate(-588.982389, -144.918917) " x="580.739295" y="136.675823" width="16.4861888" height="16.4861888"></rect>
                    <g id="Group" transform="translate(477.567662, 204.216016)">
                        <rect id="Rectangle-path" transform="translate(8.676267, 8.582576) rotate(-90.000000) translate(-8.676267, -8.582576) " x="0.208406699" y="0.0930915898" width="16.9357209" height="16.9789692"></rect>
                        <polygon id="Shape" points="34.2023696 0 51.1380905 0 51.1380905 51.0540039 0.214129804 51.0540039 0.214129804 34.0750347 34.2023696 34.0750347"></polygon>
                    </g>
                    <g id="Group" transform="translate(340.891839, 0.000000)">
                        <rect id="Rectangle-path" x="34.4554321" y="0.117240492" width="16.9357209" height="16.9998713"></rect>
                        <polygon id="Shape" points="51.391153 34.2342237 51.391153 51.234095 0.4671923 51.234095 0.4671923 0.117240492 17.4029132 0.117240492 17.4029132 34.2342237"></polygon>
                    </g>
                    <polygon id="Shape" points="427.251982 51.0540039 410.027469 51.0540039 410.027469 0 444.595284 0 444.595284 16.9789692 427.251982 16.9789692"></polygon>
                    <polygon id="Shape" points="477.567662 153.900336 477.567662 136.675823 528.621666 136.675823 528.621666 171.243638 511.642697 171.243638 511.642697 153.900336"></polygon>
                    <path d="M410.027469,229.743018 C410.027469,243.794578 421.50291,255.27002 435.554471,255.27002 C449.606032,255.27002 461.081473,243.794578 461.081473,229.743018 C461.081473,215.691457 449.606032,204.216016 435.554471,204.216016 C421.50291,204.216016 410.027469,215.691457 410.027469,229.743018 Z M446.79572,229.743018 C446.79572,235.949124 441.760577,240.984266 435.554471,240.984266 C429.348365,240.984266 424.313223,235.949124 424.313223,229.743018 C424.313223,223.536912 429.348365,218.501769 435.554471,218.501769 C441.760577,218.501769 446.79572,223.536912 446.79572,229.743018 Z" id="Shape"></path>
                    <path d="M477.567662,25.527002 C477.567662,39.5785627 489.043103,51.0540039 503.094664,51.0540039 C517.146225,51.0540039 528.621666,39.5785627 528.621666,25.527002 C528.621666,11.4754413 517.146225,0 503.094664,0 C489.043103,0 477.567662,11.4754413 477.567662,25.527002 Z M514.335912,25.527002 C514.335912,31.733108 509.30077,36.7682505 503.094664,36.7682505 C496.888558,36.7682505 491.853415,31.733108 491.853415,25.527002 C491.853415,19.320896 496.888558,14.2857534 503.094664,14.2857534 C509.30077,14.2857534 514.335912,19.320896 514.335912,25.527002 Z" id="Shape"></path>
                    <path d="M613.711672,298.878648 C613.711672,312.930209 625.187114,324.40565 639.238674,324.40565 C653.290235,324.40565 664.765676,312.930209 664.765676,298.878648 C664.765676,284.827087 653.290235,273.351646 639.238674,273.351646 C625.187114,273.351646 613.711672,284.827087 613.711672,298.878648 Z M650.597019,298.878648 C650.597019,305.084754 645.561877,310.119897 639.355771,310.119897 C633.149665,310.119897 628.114522,305.084754 628.114522,298.878648 C628.114522,292.672542 633.149665,287.637399 639.355771,287.637399 C645.44478,287.637399 650.597019,292.672542 650.597019,298.878648 Z" id="Shape"></path>
                    <g id="Group" transform="translate(340.891839, 68.072005)">
                        <rect id="Rectangle-path" x="17.4029132" y="0.234480984" width="16.9357209" height="51.1168545"></rect>
                        <rect id="Rectangle-path" transform="translate(25.933494, 25.746129) rotate(90.000000) translate(-25.933494, -25.746129) " x="17.4656337" y="0.187702028" width="16.9357209" height="51.1168545"></rect>
                    </g>
                    <g id="Group" transform="translate(545.639667, 273.351646)">
                        <rect id="Rectangle-path" x="17.3834468" y="0.0972457218" width="16.9357209" height="50.8789616"></rect>
                        <rect id="Rectangle-path" transform="translate(25.859250, 25.606860) rotate(90.000000) translate(-25.859250, -25.606860) " x="17.3913891" y="0.167379336" width="16.9357209" height="50.8789616"></rect>
                    </g>
                    <path d="M410.027469,93.5990072 C410.027469,107.650568 421.50291,119.126009 435.554471,119.126009 C449.606032,119.126009 461.081473,107.650568 461.081473,93.5990072 L461.081473,68.0720053 L446.79572,68.0720053 L446.79572,93.5990072 C446.79572,99.8051132 441.760577,104.840256 435.554471,104.840256 C429.348365,104.840256 424.313223,99.8051132 424.313223,93.5990072 L424.313223,68.0720053 L410.027469,68.0720053 L410.027469,93.5990072 Z" id="Shape"></path>
                    <path d="M503.094664,273.351646 C489.043103,273.351646 477.567662,284.827087 477.567662,298.878648 C477.567662,312.930209 489.043103,324.40565 503.094664,324.40565 L528.621666,324.40565 L528.621666,310.236993 L503.094664,310.236993 C496.888558,310.236993 491.853415,305.20185 491.853415,298.995744 C491.853415,292.789638 496.888558,287.754496 503.094664,287.754496 L528.621666,287.754496 L528.621666,273.468742 L503.094664,273.351646 Z" id="Shape"></path>
                    <path d="M639.238674,187.729827 C653.290235,187.729827 664.765676,176.254386 664.765676,162.202825 C664.765676,148.151264 653.290235,136.675823 639.238674,136.675823 L613.711672,136.675823 L613.711672,150.961576 L639.238674,150.961576 C645.44478,150.961576 650.479923,155.996719 650.479923,162.202825 C650.479923,168.408931 645.44478,173.444074 639.238674,173.444074 L613.711672,173.444074 L613.711672,187.729827 L639.238674,187.729827 Z" id="Shape"></path>
                    <path d="M477.567662,119.126009 C477.567662,90.9057914 500.401448,68.0720053 528.621666,68.0720053 L528.621666,85.0509745 C509.886251,85.0509745 494.546631,100.273499 494.546631,119.126009 L477.567662,119.126009 L477.567662,119.126009 Z" id="Shape"></path>
                    <path d="M664.765676,204.216016 C664.765676,232.436234 641.93189,255.27002 613.711672,255.27002 L613.711672,238.29105 C632.447087,238.29105 647.786707,223.068526 647.786707,204.216016 L664.765676,204.216016 Z" id="Shape"></path>
                    <path d="M613.711672,0 C641.93189,0 664.765676,22.8337862 664.765676,51.0540039 L647.786707,51.0540039 C647.786707,32.3185896 632.564183,16.9789692 613.711672,16.9789692 L613.711672,0 Z" id="Shape"></path>
                </g>
                <g id="pattern-copy" transform="translate(744.195643, 0.000000)">
                    <rect id="Rectangle-path" x="68.6038178" y="0" width="16.4861888" height="16.4861888"></rect>
                    <rect id="Rectangle-path" x="102.63982" y="0" width="16.4861888" height="16.4861888"></rect>
                    <g id="Group" transform="translate(0.000000, 68.072005)">
                        <rect id="Rectangle-path" x="0.447725954" y="0.234480984" width="16.9357209" height="51.1168545"></rect>
                        <rect id="Rectangle-path" x="34.4359658" y="0.234480984" width="16.9357209" height="51.1168545"></rect>
                    </g>
                    <g id="Group" transform="translate(137.207636, 0.000000)">
                        <rect id="Rectangle-path" x="0" y="0.117240492" width="16.9789692" height="51.1168545"></rect>
                        <rect id="Rectangle-path" x="34.0750347" y="0.117240492" width="16.9789692" height="51.1168545"></rect>
                    </g>
                    <g id="Group" transform="translate(204.747828, 273.351646)">
                        <rect id="Rectangle-path" transform="translate(25.724557, 8.646078) rotate(90.000000) translate(-25.724557, -8.646078) " x="17.2246214" y="-16.7934026" width="16.9998713" height="50.8789616"></rect>
                        <rect id="Rectangle-path" transform="translate(25.671095, 42.551071) rotate(90.000000) translate(-25.671095, -42.551071) " x="17.1711597" y="17.1115906" width="16.9998713" height="50.8789616"></rect>
                    </g>
                    <path d="M137.207636,68.0720053 L137.207636,119.126009 L188.26164,119.126009 L188.26164,68.0720053 L137.207636,68.0720053 Z M172.453634,103.318003 L153.132738,103.318003 L153.132738,83.8800111 L172.453634,83.8800111 L172.453634,103.318003 Z" id="Shape"></path>
                    <path d="M204.747828,204.216016 L204.747828,255.27002 L255.801832,255.27002 L255.801832,204.216016 L204.747828,204.216016 Z M239.993826,239.462014 L220.67293,239.462014 L220.67293,220.141118 L239.993826,220.141118 L239.993826,239.462014 Z" id="Shape"></path>
                    <path d="M68.6038178,204.216016 L68.6038178,255.27002 L119.657822,255.27002 L119.657822,204.216016 L68.6038178,204.216016 Z M103.849816,239.462014 L84.5289199,239.462014 L84.5289199,220.141118 L103.849816,220.141118 L103.849816,239.462014 Z" id="Shape"></path>
                    <rect id="Rectangle-path" x="68.6038178" y="34.5678152" width="16.4861888" height="16.4861888"></rect>
                    <rect id="Rectangle-path" x="102.63982" y="34.5678152" width="16.4861888" height="16.4861888"></rect>
                    <rect id="Rectangle-path" x="137.207636" y="136.675823" width="16.4861888" height="16.4861888"></rect>
                    <rect id="Rectangle-path" x="273.883459" y="102.63982" width="16.4861888" height="16.4861888"></rect>
                    <rect id="Rectangle-path" x="273.883459" y="204.216016" width="16.4861888" height="16.4861888"></rect>
                    <rect id="Rectangle-path" x="307.919461" y="204.216016" width="16.4861888" height="16.4861888"></rect>
                    <rect id="Rectangle-path" x="290.369647" y="221.76583" width="16.4861888" height="16.4861888"></rect>
                    <rect id="Rectangle-path" x="273.883459" y="238.783831" width="16.4861888" height="16.4861888"></rect>
                    <rect id="Rectangle-path" x="307.919461" y="238.783831" width="16.4861888" height="16.4861888"></rect>
                    <rect id="Rectangle-path" x="137.207636" y="204.216016" width="51.0540039" height="16.4861888"></rect>
                    <rect id="Rectangle-path" x="137.207636" y="238.783831" width="16.4861888" height="16.4861888"></rect>
                    <rect id="Rectangle-path" x="171.243638" y="238.783831" width="16.4861888" height="16.4861888"></rect>
                    <g id="Group" transform="translate(68.072005, 136.144011)">
                        <rect id="Rectangle-path" x="34.0360026" y="0.351721476" width="16.9207556" height="16.9998713"></rect>
                        <polygon id="Shape" points="50.9567582 34.4687046 50.9567582 51.468576 0.0777965774 51.468576 0.0777965774 0.351721476 17.115247 0.351721476 17.115247 34.4687046"></polygon>
                    </g>
                    <g id="Group" transform="translate(272.819834, 0.000000)">
                        <rect id="Rectangle-path" transform="translate(42.857496, 42.681049) rotate(90.000000) translate(-42.857496, -42.681049) " x="34.3575607" y="34.1811137" width="16.9998713" height="16.9998713"></rect>
                        <polygon id="Shape" points="17.3515928 51.234095 0.351721476 51.234095 0.351721476 0.117240492 51.3513355 0.117240492 51.3513355 17.1171118 17.3515928 17.1171118"></polygon>
                    </g>
                    <polygon id="Shape" points="273.883459 85.296518 273.883459 68.0720053 324.937463 68.0720053 324.937463 102.63982 307.919461 102.63982 307.919461 85.296518"></polygon>
                    <polygon id="Shape" points="170.977732 136.675823 188.26164 136.675823 188.26164 187.729827 153.693824 187.729827 153.693824 170.750858 170.977732 170.750858"></polygon>
                    <path d="M94.1308198,68.0720053 C80.079259,68.0720053 68.6038178,79.5474465 68.6038178,93.5990072 C68.6038178,107.650568 80.079259,119.126009 94.1308198,119.126009 C108.18238,119.126009 119.657822,107.650568 119.657822,93.5990072 C119.657822,79.5474465 108.299477,68.0720053 94.1308198,68.0720053 Z M94.1308198,104.840256 C87.9247138,104.840256 82.8895712,99.8051132 82.8895712,93.5990072 C82.8895712,87.3929012 87.9247138,82.3577586 94.1308198,82.3577586 C100.336926,82.3577586 105.372068,87.3929012 105.372068,93.5990072 C105.489165,99.8051132 100.336926,104.840256 94.1308198,104.840256 Z" id="Shape"></path>
                    <path d="M298.346836,136.675823 C284.295275,136.675823 272.819834,148.151264 272.819834,162.202825 C272.819834,176.254386 284.295275,187.729827 298.346836,187.729827 C312.398396,187.729827 323.873837,176.254386 323.873837,162.202825 C323.873837,148.151264 312.515493,136.675823 298.346836,136.675823 Z M298.346836,173.444074 C292.14073,173.444074 287.105587,168.408931 287.105587,162.202825 C287.105587,155.996719 292.14073,150.961576 298.346836,150.961576 C304.552942,150.961576 309.588084,155.996719 309.588084,162.202825 C309.70518,168.408931 304.670038,173.444074 298.346836,173.444074 Z" id="Shape"></path>
                    <path d="M26.0588145,273.351646 C12.0072538,273.351646 0.531812541,284.827087 0.531812541,298.878648 C0.531812541,312.930209 12.0072538,324.40565 26.0588145,324.40565 C40.1103752,324.40565 51.5858165,312.930209 51.5858165,298.878648 C51.5858165,284.827087 40.1103752,273.351646 26.0588145,273.351646 Z M26.0588145,310.236993 C19.8527085,310.236993 14.8175659,305.20185 14.8175659,298.995744 C14.8175659,292.789638 19.8527085,287.754496 26.0588145,287.754496 C32.2649205,287.754496 37.3000631,292.789638 37.3000631,298.995744 C37.3000631,305.20185 32.2649205,310.236993 26.0588145,310.236993 Z" id="Shape"></path>
                    <g id="Group" transform="translate(204.747828, 0.000000)">
                        <rect id="Rectangle-path" transform="translate(25.727019, 25.684344) rotate(90.000000) translate(-25.727019, -25.684344) " x="17.2270834" y="0.125916288" width="16.9998713" height="51.1168545"></rect>
                        <rect id="Rectangle-path" transform="translate(25.718343, 25.677075) rotate(-180.000000) translate(-25.718343, -25.677075) " x="17.2184076" y="0.118647378" width="16.9998713" height="51.1168545"></rect>
                    </g>
                    <g id="Group" transform="translate(0.531813, 204.216016)">
                        <rect id="Rectangle-path" transform="translate(25.451695, 25.490515) rotate(90.000000) translate(-25.451695, -25.490515) " x="16.9913171" y="0.0510345548" width="16.9207556" height="50.8789616"></rect>
                        <rect id="Rectangle-path" transform="translate(25.381211, 25.483280) rotate(-180.000000) translate(-25.381211, -25.483280) " x="16.9208334" y="0.0437994731" width="16.9207556" height="50.8789616"></rect>
                    </g>
                    <path d="M230.27483,68.0720053 C216.22327,68.0720053 204.747828,79.5474465 204.747828,93.5990072 C204.747828,107.650568 216.22327,119.126009 230.27483,119.126009 L255.801832,119.126009 L255.801832,104.840256 L230.27483,104.840256 C224.068724,104.840256 219.033582,99.8051132 219.033582,93.5990072 C219.033582,87.3929012 224.068724,82.3577586 230.27483,82.3577586 L255.801832,82.3577586 L255.801832,68.0720053 L230.27483,68.0720053 Z" id="Shape"></path>
                    <path d="M51.5858165,162.202825 C51.5858165,148.151264 40.1103752,136.675823 26.0588145,136.675823 C12.0072538,136.675823 0.531812541,148.151264 0.531812541,162.202825 L0.531812541,187.729827 L14.8175659,187.729827 L14.8175659,162.202825 C14.8175659,155.996719 19.8527085,150.961576 26.0588145,150.961576 C32.2649205,150.961576 37.3000631,155.996719 37.3000631,162.202825 L37.3000631,187.729827 L51.5858165,187.729827 L51.5858165,162.202825 Z" id="Shape"></path>
                    <path d="M137.207636,298.878648 C137.207636,312.930209 148.683077,324.40565 162.734638,324.40565 C176.786198,324.40565 188.26164,312.930209 188.26164,298.878648 L188.26164,273.351646 L173.975886,273.351646 L173.975886,298.878648 C173.975886,305.084754 168.940744,310.119897 162.734638,310.119897 C156.528532,310.119897 151.493389,305.084754 151.493389,298.878648 L151.493389,273.351646 L137.207636,273.351646 L137.207636,298.878648 Z" id="Shape"></path>
                    <path d="M341.423651,298.878648 C341.423651,312.930209 352.899093,324.40565 366.950653,324.40565 C381.002214,324.40565 392.477655,312.930209 392.477655,298.878648 L392.477655,273.351646 L378.191902,273.351646 L378.191902,298.878648 C378.191902,305.084754 373.156759,310.119897 366.950653,310.119897 C360.744547,310.119897 355.709405,305.084754 355.709405,298.878648 L355.709405,273.351646 L341.423651,273.351646 L341.423651,298.878648 Z" id="Shape"></path>
                    <path d="M0.531812541,51.0540039 C0.531812541,22.8337862 23.3655987,0 51.5858165,0 L51.5858165,16.9789692 C32.8504022,16.9789692 17.5107817,32.2014933 17.5107817,51.0540039 L0.531812541,51.0540039 Z" id="Shape"></path>
                    <path d="M204.747828,136.675823 C232.968046,136.675823 255.801832,159.509609 255.801832,187.729827 L238.822863,187.729827 C238.822863,168.994413 223.600339,153.654792 204.747828,153.654792 L204.747828,136.675823 Z" id="Shape"></path>
                    <path d="M119.657822,324.40565 C91.437604,324.40565 68.6038178,301.571864 68.6038178,273.351646 L85.582787,273.351646 C85.582787,292.08706 100.805311,307.426681 119.657822,307.426681 L119.657822,324.40565 Z" id="Shape"></path>
                    <path d="M323.873837,273.351646 C323.873837,301.571864 301.040051,324.40565 272.819834,324.40565 L272.819834,307.426681 C291.555248,307.426681 306.894868,292.204157 306.894868,273.351646 L323.873837,273.351646 L323.873837,273.351646 Z" id="Shape"></path>
                    <rect id="Rectangle-path" transform="translate(349.666746, 247.026925) rotate(-90.000000) translate(-349.666746, -247.026925) " x="341.423651" y="238.783831" width="16.4861888" height="16.4861888"></rect>
                    <rect id="Rectangle-path" transform="translate(349.666746, 212.459110) rotate(-90.000000) translate(-349.666746, -212.459110) " x="341.423651" y="204.216016" width="16.4861888" height="16.4861888"></rect>
                    <g id="Group" transform="translate(409.495657, 273.351646)">
                        <rect id="Rectangle-path" transform="translate(25.595307, 42.587130) rotate(-90.000000) translate(-25.595307, -42.587130) " x="17.1349296" y="17.1476493" width="16.9207556" height="50.8789616"></rect>
                        <rect id="Rectangle-path" transform="translate(25.542095, 8.682137) rotate(-90.000000) translate(-25.542095, -8.682137) " x="17.0817167" y="-16.7573439" width="16.9207556" height="50.8789616"></rect>
                    </g>
                    <g id="Group" transform="translate(340.891839, 136.675823)">
                        <rect id="Rectangle-path" transform="translate(25.878365, 42.490983) rotate(-90.000000) translate(-25.878365, -42.490983) " x="17.4105051" y="16.9639809" width="16.9357209" height="51.0540039"></rect>
                        <rect id="Rectangle-path" transform="translate(25.941904, 8.469344) rotate(-90.000000) translate(-25.941904, -8.469344) " x="17.4740432" y="-17.0576579" width="16.9357209" height="51.0540039"></rect>
                    </g>
                    <g id="Group" transform="translate(613.711672, 68.072005)">
                        <rect id="Rectangle-path" x="0.447725954" y="0.234480984" width="16.9357209" height="51.1168545"></rect>
                        <rect id="Rectangle-path" x="34.4359658" y="0.234480984" width="16.9357209" height="51.1168545"></rect>
                    </g>
                    <path d="M410.027469,187.729827 L461.081473,187.729827 L461.081473,136.675823 L410.027469,136.675823 L410.027469,187.729827 Z M445.273467,152.483829 L445.273467,171.804725 L425.835475,171.804725 L425.835475,152.483829 L445.273467,152.483829 Z" id="Shape"></path>
                    <path d="M546.17148,119.126009 L597.225484,119.126009 L597.225484,68.0720053 L546.17148,68.0720053 L546.17148,119.126009 L546.17148,119.126009 Z M581.417478,83.8800111 L581.417478,103.200907 L562.096582,103.200907 L562.096582,83.8800111 L581.417478,83.8800111 Z" id="Shape"></path>
                    <path d="M546.17148,255.27002 L597.225484,255.27002 L597.225484,204.216016 L546.17148,204.216016 L546.17148,255.27002 L546.17148,255.27002 Z M581.417478,220.141118 L581.417478,239.462014 L562.096582,239.462014 L562.096582,220.141118 L581.417478,220.141118 Z" id="Shape"></path>
                    <rect id="Rectangle-path" transform="translate(383.702748, 247.026925) rotate(-90.000000) translate(-383.702748, -247.026925) " x="375.459654" y="238.783831" width="16.4861888" height="16.4861888"></rect>
                    <rect id="Rectangle-path" transform="translate(383.702748, 212.459110) rotate(-90.000000) translate(-383.702748, -212.459110) " x="375.459654" y="204.216016" width="16.4861888" height="16.4861888"></rect>
                    <rect id="Rectangle-path" transform="translate(485.810756, 179.486733) rotate(-90.000000) translate(-485.810756, -179.486733) " x="477.567662" y="171.243638" width="16.4861888" height="16.4861888"></rect>
                    <rect id="Rectangle-path" transform="translate(452.306566, 42.810910) rotate(-90.000000) translate(-452.306566, -42.810910) " x="444.063472" y="34.5678152" width="16.4861888" height="16.4861888"></rect>
                    <rect id="Rectangle-path" transform="translate(554.414574, 42.810910) rotate(-90.000000) translate(-554.414574, -42.810910) " x="546.17148" y="34.5678152" width="16.4861888" height="16.4861888"></rect>
                    <rect id="Rectangle-path" transform="translate(554.414574, 8.243094) rotate(-90.000000) translate(-554.414574, -8.243094) " x="546.17148" y="0" width="16.4861888" height="16.4861888"></rect>
                    <rect id="Rectangle-path" transform="translate(571.432575, 24.729283) rotate(-90.000000) translate(-571.432575, -24.729283) " x="563.189481" y="16.4861888" width="16.4861888" height="16.4861888"></rect>
                    <rect id="Rectangle-path" transform="translate(588.982389, 42.810910) rotate(-90.000000) translate(-588.982389, -42.810910) " x="580.739295" y="34.5678152" width="16.4861888" height="16.4861888"></rect>
                    <rect id="Rectangle-path" transform="translate(588.982389, 8.243094) rotate(-90.000000) translate(-588.982389, -8.243094) " x="580.739295" y="0" width="16.4861888" height="16.4861888"></rect>
                    <rect id="Rectangle-path" x="546.17148" y="136.675823" width="16.4861888" height="51.0540039"></rect>
                    <rect id="Rectangle-path" transform="translate(588.982389, 179.486733) rotate(-90.000000) translate(-588.982389, -179.486733) " x="580.739295" y="171.243638" width="16.4861888" height="16.4861888"></rect>
                    <rect id="Rectangle-path" transform="translate(588.982389, 144.918917) rotate(-90.000000) translate(-588.982389, -144.918917) " x="580.739295" y="136.675823" width="16.4861888" height="16.4861888"></rect>
                    <g id="Group" transform="translate(477.567662, 204.216016)">
                        <rect id="Rectangle-path" transform="translate(8.676267, 8.582576) rotate(-90.000000) translate(-8.676267, -8.582576) " x="0.208406699" y="0.0930915898" width="16.9357209" height="16.9789692"></rect>
                        <polygon id="Shape" points="34.2023696 0 51.1380905 0 51.1380905 51.0540039 0.214129804 51.0540039 0.214129804 34.0750347 34.2023696 34.0750347"></polygon>
                    </g>
                    <g id="Group" transform="translate(340.891839, 0.000000)">
                        <rect id="Rectangle-path" x="34.4554321" y="0.117240492" width="16.9357209" height="16.9998713"></rect>
                        <polygon id="Shape" points="51.391153 34.2342237 51.391153 51.234095 0.4671923 51.234095 0.4671923 0.117240492 17.4029132 0.117240492 17.4029132 34.2342237"></polygon>
                    </g>
                    <polygon id="Shape" points="427.251982 51.0540039 410.027469 51.0540039 410.027469 0 444.595284 0 444.595284 16.9789692 427.251982 16.9789692"></polygon>
                    <polygon id="Shape" points="477.567662 153.900336 477.567662 136.675823 528.621666 136.675823 528.621666 171.243638 511.642697 171.243638 511.642697 153.900336"></polygon>
                    <path d="M410.027469,229.743018 C410.027469,243.794578 421.50291,255.27002 435.554471,255.27002 C449.606032,255.27002 461.081473,243.794578 461.081473,229.743018 C461.081473,215.691457 449.606032,204.216016 435.554471,204.216016 C421.50291,204.216016 410.027469,215.691457 410.027469,229.743018 Z M446.79572,229.743018 C446.79572,235.949124 441.760577,240.984266 435.554471,240.984266 C429.348365,240.984266 424.313223,235.949124 424.313223,229.743018 C424.313223,223.536912 429.348365,218.501769 435.554471,218.501769 C441.760577,218.501769 446.79572,223.536912 446.79572,229.743018 Z" id="Shape"></path>
                    <path d="M477.567662,25.527002 C477.567662,39.5785627 489.043103,51.0540039 503.094664,51.0540039 C517.146225,51.0540039 528.621666,39.5785627 528.621666,25.527002 C528.621666,11.4754413 517.146225,0 503.094664,0 C489.043103,0 477.567662,11.4754413 477.567662,25.527002 Z M514.335912,25.527002 C514.335912,31.733108 509.30077,36.7682505 503.094664,36.7682505 C496.888558,36.7682505 491.853415,31.733108 491.853415,25.527002 C491.853415,19.320896 496.888558,14.2857534 503.094664,14.2857534 C509.30077,14.2857534 514.335912,19.320896 514.335912,25.527002 Z" id="Shape"></path>
                    <path d="M613.711672,298.878648 C613.711672,312.930209 625.187114,324.40565 639.238674,324.40565 C653.290235,324.40565 664.765676,312.930209 664.765676,298.878648 C664.765676,284.827087 653.290235,273.351646 639.238674,273.351646 C625.187114,273.351646 613.711672,284.827087 613.711672,298.878648 Z M650.597019,298.878648 C650.597019,305.084754 645.561877,310.119897 639.355771,310.119897 C633.149665,310.119897 628.114522,305.084754 628.114522,298.878648 C628.114522,292.672542 633.149665,287.637399 639.355771,287.637399 C645.44478,287.637399 650.597019,292.672542 650.597019,298.878648 Z" id="Shape"></path>
                    <g id="Group" transform="translate(340.891839, 68.072005)">
                        <rect id="Rectangle-path" x="17.4029132" y="0.234480984" width="16.9357209" height="51.1168545"></rect>
                        <rect id="Rectangle-path" transform="translate(25.933494, 25.746129) rotate(90.000000) translate(-25.933494, -25.746129) " x="17.4656337" y="0.187702028" width="16.9357209" height="51.1168545"></rect>
                    </g>
                    <g id="Group" transform="translate(545.639667, 273.351646)">
                        <rect id="Rectangle-path" x="17.3834468" y="0.0972457218" width="16.9357209" height="50.8789616"></rect>
                        <rect id="Rectangle-path" transform="translate(25.859250, 25.606860) rotate(90.000000) translate(-25.859250, -25.606860) " x="17.3913891" y="0.167379336" width="16.9357209" height="50.8789616"></rect>
                    </g>
                    <path d="M410.027469,93.5990072 C410.027469,107.650568 421.50291,119.126009 435.554471,119.126009 C449.606032,119.126009 461.081473,107.650568 461.081473,93.5990072 L461.081473,68.0720053 L446.79572,68.0720053 L446.79572,93.5990072 C446.79572,99.8051132 441.760577,104.840256 435.554471,104.840256 C429.348365,104.840256 424.313223,99.8051132 424.313223,93.5990072 L424.313223,68.0720053 L410.027469,68.0720053 L410.027469,93.5990072 Z" id="Shape"></path>
                    <path d="M503.094664,273.351646 C489.043103,273.351646 477.567662,284.827087 477.567662,298.878648 C477.567662,312.930209 489.043103,324.40565 503.094664,324.40565 L528.621666,324.40565 L528.621666,310.236993 L503.094664,310.236993 C496.888558,310.236993 491.853415,305.20185 491.853415,298.995744 C491.853415,292.789638 496.888558,287.754496 503.094664,287.754496 L528.621666,287.754496 L528.621666,273.468742 L503.094664,273.351646 Z" id="Shape"></path>
                    <path d="M639.238674,187.729827 C653.290235,187.729827 664.765676,176.254386 664.765676,162.202825 C664.765676,148.151264 653.290235,136.675823 639.238674,136.675823 L613.711672,136.675823 L613.711672,150.961576 L639.238674,150.961576 C645.44478,150.961576 650.479923,155.996719 650.479923,162.202825 C650.479923,168.408931 645.44478,173.444074 639.238674,173.444074 L613.711672,173.444074 L613.711672,187.729827 L639.238674,187.729827 Z" id="Shape"></path>
                    <path d="M477.567662,119.126009 C477.567662,90.9057914 500.401448,68.0720053 528.621666,68.0720053 L528.621666,85.0509745 C509.886251,85.0509745 494.546631,100.273499 494.546631,119.126009 L477.567662,119.126009 L477.567662,119.126009 Z" id="Shape"></path>
                    <path d="M664.765676,204.216016 C664.765676,232.436234 641.93189,255.27002 613.711672,255.27002 L613.711672,238.29105 C632.447087,238.29105 647.786707,223.068526 647.786707,204.216016 L664.765676,204.216016 Z" id="Shape"></path>
                    <path d="M613.711672,0 C641.93189,0 664.765676,22.8337862 664.765676,51.0540039 L647.786707,51.0540039 C647.786707,32.3185896 632.564183,16.9789692 613.711672,16.9789692 L613.711672,0 Z" id="Shape"></path>
                </g>
                <g id="pattern-copy-3" transform="translate(744.195643, 332.739015)">
                    <rect id="Rectangle-path" x="68.6038178" y="0" width="16.4861888" height="16.4861888"></rect>
                    <rect id="Rectangle-path" x="102.63982" y="0" width="16.4861888" height="16.4861888"></rect>
                    <g id="Group" transform="translate(0.000000, 68.072005)">
                        <rect id="Rectangle-path" x="0.447725954" y="0.234480984" width="16.9357209" height="51.1168545"></rect>
                        <rect id="Rectangle-path" x="34.4359658" y="0.234480984" width="16.9357209" height="51.1168545"></rect>
                    </g>
                    <g id="Group" transform="translate(137.207636, 0.000000)">
                        <rect id="Rectangle-path" x="0" y="0.117240492" width="16.9789692" height="51.1168545"></rect>
                        <rect id="Rectangle-path" x="34.0750347" y="0.117240492" width="16.9789692" height="51.1168545"></rect>
                    </g>
                    <g id="Group" transform="translate(204.747828, 273.351646)">
                        <rect id="Rectangle-path" transform="translate(25.724557, 8.646078) rotate(90.000000) translate(-25.724557, -8.646078) " x="17.2246214" y="-16.7934026" width="16.9998713" height="50.8789616"></rect>
                        <rect id="Rectangle-path" transform="translate(25.671095, 42.551071) rotate(90.000000) translate(-25.671095, -42.551071) " x="17.1711597" y="17.1115906" width="16.9998713" height="50.8789616"></rect>
                    </g>
                    <path d="M137.207636,68.0720053 L137.207636,119.126009 L188.26164,119.126009 L188.26164,68.0720053 L137.207636,68.0720053 Z M172.453634,103.318003 L153.132738,103.318003 L153.132738,83.8800111 L172.453634,83.8800111 L172.453634,103.318003 Z" id="Shape"></path>
                    <path d="M204.747828,204.216016 L204.747828,255.27002 L255.801832,255.27002 L255.801832,204.216016 L204.747828,204.216016 Z M239.993826,239.462014 L220.67293,239.462014 L220.67293,220.141118 L239.993826,220.141118 L239.993826,239.462014 Z" id="Shape"></path>
                    <path d="M68.6038178,204.216016 L68.6038178,255.27002 L119.657822,255.27002 L119.657822,204.216016 L68.6038178,204.216016 Z M103.849816,239.462014 L84.5289199,239.462014 L84.5289199,220.141118 L103.849816,220.141118 L103.849816,239.462014 Z" id="Shape"></path>
                    <rect id="Rectangle-path" x="68.6038178" y="34.5678152" width="16.4861888" height="16.4861888"></rect>
                    <rect id="Rectangle-path" x="102.63982" y="34.5678152" width="16.4861888" height="16.4861888"></rect>
                    <rect id="Rectangle-path" x="137.207636" y="136.675823" width="16.4861888" height="16.4861888"></rect>
                    <rect id="Rectangle-path" x="273.883459" y="102.63982" width="16.4861888" height="16.4861888"></rect>
                    <rect id="Rectangle-path" x="273.883459" y="204.216016" width="16.4861888" height="16.4861888"></rect>
                    <rect id="Rectangle-path" x="307.919461" y="204.216016" width="16.4861888" height="16.4861888"></rect>
                    <rect id="Rectangle-path" x="290.369647" y="221.76583" width="16.4861888" height="16.4861888"></rect>
                    <rect id="Rectangle-path" x="273.883459" y="238.783831" width="16.4861888" height="16.4861888"></rect>
                    <rect id="Rectangle-path" x="307.919461" y="238.783831" width="16.4861888" height="16.4861888"></rect>
                    <rect id="Rectangle-path" x="137.207636" y="204.216016" width="51.0540039" height="16.4861888"></rect>
                    <rect id="Rectangle-path" x="137.207636" y="238.783831" width="16.4861888" height="16.4861888"></rect>
                    <rect id="Rectangle-path" x="171.243638" y="238.783831" width="16.4861888" height="16.4861888"></rect>
                    <g id="Group" transform="translate(68.072005, 136.144011)">
                        <rect id="Rectangle-path" x="34.0360026" y="0.351721476" width="16.9207556" height="16.9998713"></rect>
                        <polygon id="Shape" points="50.9567582 34.4687046 50.9567582 51.468576 0.0777965774 51.468576 0.0777965774 0.351721476 17.115247 0.351721476 17.115247 34.4687046"></polygon>
                    </g>
                    <g id="Group" transform="translate(272.819834, 0.000000)">
                        <rect id="Rectangle-path" transform="translate(42.857496, 42.681049) rotate(90.000000) translate(-42.857496, -42.681049) " x="34.3575607" y="34.1811137" width="16.9998713" height="16.9998713"></rect>
                        <polygon id="Shape" points="17.3515928 51.234095 0.351721476 51.234095 0.351721476 0.117240492 51.3513355 0.117240492 51.3513355 17.1171118 17.3515928 17.1171118"></polygon>
                    </g>
                    <polygon id="Shape" points="273.883459 85.296518 273.883459 68.0720053 324.937463 68.0720053 324.937463 102.63982 307.919461 102.63982 307.919461 85.296518"></polygon>
                    <polygon id="Shape" points="170.977732 136.675823 188.26164 136.675823 188.26164 187.729827 153.693824 187.729827 153.693824 170.750858 170.977732 170.750858"></polygon>
                    <path d="M94.1308198,68.0720053 C80.079259,68.0720053 68.6038178,79.5474465 68.6038178,93.5990072 C68.6038178,107.650568 80.079259,119.126009 94.1308198,119.126009 C108.18238,119.126009 119.657822,107.650568 119.657822,93.5990072 C119.657822,79.5474465 108.299477,68.0720053 94.1308198,68.0720053 Z M94.1308198,104.840256 C87.9247138,104.840256 82.8895712,99.8051132 82.8895712,93.5990072 C82.8895712,87.3929012 87.9247138,82.3577586 94.1308198,82.3577586 C100.336926,82.3577586 105.372068,87.3929012 105.372068,93.5990072 C105.489165,99.8051132 100.336926,104.840256 94.1308198,104.840256 Z" id="Shape"></path>
                    <path d="M298.346836,136.675823 C284.295275,136.675823 272.819834,148.151264 272.819834,162.202825 C272.819834,176.254386 284.295275,187.729827 298.346836,187.729827 C312.398396,187.729827 323.873837,176.254386 323.873837,162.202825 C323.873837,148.151264 312.515493,136.675823 298.346836,136.675823 Z M298.346836,173.444074 C292.14073,173.444074 287.105587,168.408931 287.105587,162.202825 C287.105587,155.996719 292.14073,150.961576 298.346836,150.961576 C304.552942,150.961576 309.588084,155.996719 309.588084,162.202825 C309.70518,168.408931 304.670038,173.444074 298.346836,173.444074 Z" id="Shape"></path>
                    <path d="M26.0588145,273.351646 C12.0072538,273.351646 0.531812541,284.827087 0.531812541,298.878648 C0.531812541,312.930209 12.0072538,324.40565 26.0588145,324.40565 C40.1103752,324.40565 51.5858165,312.930209 51.5858165,298.878648 C51.5858165,284.827087 40.1103752,273.351646 26.0588145,273.351646 Z M26.0588145,310.236993 C19.8527085,310.236993 14.8175659,305.20185 14.8175659,298.995744 C14.8175659,292.789638 19.8527085,287.754496 26.0588145,287.754496 C32.2649205,287.754496 37.3000631,292.789638 37.3000631,298.995744 C37.3000631,305.20185 32.2649205,310.236993 26.0588145,310.236993 Z" id="Shape"></path>
                    <g id="Group" transform="translate(204.747828, 0.000000)">
                        <rect id="Rectangle-path" transform="translate(25.727019, 25.684344) rotate(90.000000) translate(-25.727019, -25.684344) " x="17.2270834" y="0.125916288" width="16.9998713" height="51.1168545"></rect>
                        <rect id="Rectangle-path" transform="translate(25.718343, 25.677075) rotate(-180.000000) translate(-25.718343, -25.677075) " x="17.2184076" y="0.118647378" width="16.9998713" height="51.1168545"></rect>
                    </g>
                    <g id="Group" transform="translate(0.531813, 204.216016)">
                        <rect id="Rectangle-path" transform="translate(25.451695, 25.490515) rotate(90.000000) translate(-25.451695, -25.490515) " x="16.9913171" y="0.0510345548" width="16.9207556" height="50.8789616"></rect>
                        <rect id="Rectangle-path" transform="translate(25.381211, 25.483280) rotate(-180.000000) translate(-25.381211, -25.483280) " x="16.9208334" y="0.0437994731" width="16.9207556" height="50.8789616"></rect>
                    </g>
                    <path d="M230.27483,68.0720053 C216.22327,68.0720053 204.747828,79.5474465 204.747828,93.5990072 C204.747828,107.650568 216.22327,119.126009 230.27483,119.126009 L255.801832,119.126009 L255.801832,104.840256 L230.27483,104.840256 C224.068724,104.840256 219.033582,99.8051132 219.033582,93.5990072 C219.033582,87.3929012 224.068724,82.3577586 230.27483,82.3577586 L255.801832,82.3577586 L255.801832,68.0720053 L230.27483,68.0720053 Z" id="Shape"></path>
                    <path d="M51.5858165,162.202825 C51.5858165,148.151264 40.1103752,136.675823 26.0588145,136.675823 C12.0072538,136.675823 0.531812541,148.151264 0.531812541,162.202825 L0.531812541,187.729827 L14.8175659,187.729827 L14.8175659,162.202825 C14.8175659,155.996719 19.8527085,150.961576 26.0588145,150.961576 C32.2649205,150.961576 37.3000631,155.996719 37.3000631,162.202825 L37.3000631,187.729827 L51.5858165,187.729827 L51.5858165,162.202825 Z" id="Shape"></path>
                    <path d="M137.207636,298.878648 C137.207636,312.930209 148.683077,324.40565 162.734638,324.40565 C176.786198,324.40565 188.26164,312.930209 188.26164,298.878648 L188.26164,273.351646 L173.975886,273.351646 L173.975886,298.878648 C173.975886,305.084754 168.940744,310.119897 162.734638,310.119897 C156.528532,310.119897 151.493389,305.084754 151.493389,298.878648 L151.493389,273.351646 L137.207636,273.351646 L137.207636,298.878648 Z" id="Shape"></path>
                    <path d="M341.423651,298.878648 C341.423651,312.930209 352.899093,324.40565 366.950653,324.40565 C381.002214,324.40565 392.477655,312.930209 392.477655,298.878648 L392.477655,273.351646 L378.191902,273.351646 L378.191902,298.878648 C378.191902,305.084754 373.156759,310.119897 366.950653,310.119897 C360.744547,310.119897 355.709405,305.084754 355.709405,298.878648 L355.709405,273.351646 L341.423651,273.351646 L341.423651,298.878648 Z" id="Shape"></path>
                    <path d="M0.531812541,51.0540039 C0.531812541,22.8337862 23.3655987,0 51.5858165,0 L51.5858165,16.9789692 C32.8504022,16.9789692 17.5107817,32.2014933 17.5107817,51.0540039 L0.531812541,51.0540039 Z" id="Shape"></path>
                    <path d="M204.747828,136.675823 C232.968046,136.675823 255.801832,159.509609 255.801832,187.729827 L238.822863,187.729827 C238.822863,168.994413 223.600339,153.654792 204.747828,153.654792 L204.747828,136.675823 Z" id="Shape"></path>
                    <path d="M119.657822,324.40565 C91.437604,324.40565 68.6038178,301.571864 68.6038178,273.351646 L85.582787,273.351646 C85.582787,292.08706 100.805311,307.426681 119.657822,307.426681 L119.657822,324.40565 Z" id="Shape"></path>
                    <path d="M323.873837,273.351646 C323.873837,301.571864 301.040051,324.40565 272.819834,324.40565 L272.819834,307.426681 C291.555248,307.426681 306.894868,292.204157 306.894868,273.351646 L323.873837,273.351646 L323.873837,273.351646 Z" id="Shape"></path>
                    <rect id="Rectangle-path" transform="translate(349.666746, 247.026925) rotate(-90.000000) translate(-349.666746, -247.026925) " x="341.423651" y="238.783831" width="16.4861888" height="16.4861888"></rect>
                    <rect id="Rectangle-path" transform="translate(349.666746, 212.459110) rotate(-90.000000) translate(-349.666746, -212.459110) " x="341.423651" y="204.216016" width="16.4861888" height="16.4861888"></rect>
                    <g id="Group" transform="translate(409.495657, 273.351646)">
                        <rect id="Rectangle-path" transform="translate(25.595307, 42.587130) rotate(-90.000000) translate(-25.595307, -42.587130) " x="17.1349296" y="17.1476493" width="16.9207556" height="50.8789616"></rect>
                        <rect id="Rectangle-path" transform="translate(25.542095, 8.682137) rotate(-90.000000) translate(-25.542095, -8.682137) " x="17.0817167" y="-16.7573439" width="16.9207556" height="50.8789616"></rect>
                    </g>
                    <g id="Group" transform="translate(340.891839, 136.675823)">
                        <rect id="Rectangle-path" transform="translate(25.878365, 42.490983) rotate(-90.000000) translate(-25.878365, -42.490983) " x="17.4105051" y="16.9639809" width="16.9357209" height="51.0540039"></rect>
                        <rect id="Rectangle-path" transform="translate(25.941904, 8.469344) rotate(-90.000000) translate(-25.941904, -8.469344) " x="17.4740432" y="-17.0576579" width="16.9357209" height="51.0540039"></rect>
                    </g>
                    <g id="Group" transform="translate(613.711672, 68.072005)">
                        <rect id="Rectangle-path" x="0.447725954" y="0.234480984" width="16.9357209" height="51.1168545"></rect>
                        <rect id="Rectangle-path" x="34.4359658" y="0.234480984" width="16.9357209" height="51.1168545"></rect>
                    </g>
                    <path d="M410.027469,187.729827 L461.081473,187.729827 L461.081473,136.675823 L410.027469,136.675823 L410.027469,187.729827 Z M445.273467,152.483829 L445.273467,171.804725 L425.835475,171.804725 L425.835475,152.483829 L445.273467,152.483829 Z" id="Shape"></path>
                    <path d="M546.17148,119.126009 L597.225484,119.126009 L597.225484,68.0720053 L546.17148,68.0720053 L546.17148,119.126009 L546.17148,119.126009 Z M581.417478,83.8800111 L581.417478,103.200907 L562.096582,103.200907 L562.096582,83.8800111 L581.417478,83.8800111 Z" id="Shape"></path>
                    <path d="M546.17148,255.27002 L597.225484,255.27002 L597.225484,204.216016 L546.17148,204.216016 L546.17148,255.27002 L546.17148,255.27002 Z M581.417478,220.141118 L581.417478,239.462014 L562.096582,239.462014 L562.096582,220.141118 L581.417478,220.141118 Z" id="Shape"></path>
                    <rect id="Rectangle-path" transform="translate(383.702748, 247.026925) rotate(-90.000000) translate(-383.702748, -247.026925) " x="375.459654" y="238.783831" width="16.4861888" height="16.4861888"></rect>
                    <rect id="Rectangle-path" transform="translate(383.702748, 212.459110) rotate(-90.000000) translate(-383.702748, -212.459110) " x="375.459654" y="204.216016" width="16.4861888" height="16.4861888"></rect>
                    <rect id="Rectangle-path" transform="translate(485.810756, 179.486733) rotate(-90.000000) translate(-485.810756, -179.486733) " x="477.567662" y="171.243638" width="16.4861888" height="16.4861888"></rect>
                    <rect id="Rectangle-path" transform="translate(452.306566, 42.810910) rotate(-90.000000) translate(-452.306566, -42.810910) " x="444.063472" y="34.5678152" width="16.4861888" height="16.4861888"></rect>
                    <rect id="Rectangle-path" transform="translate(554.414574, 42.810910) rotate(-90.000000) translate(-554.414574, -42.810910) " x="546.17148" y="34.5678152" width="16.4861888" height="16.4861888"></rect>
                    <rect id="Rectangle-path" transform="translate(554.414574, 8.243094) rotate(-90.000000) translate(-554.414574, -8.243094) " x="546.17148" y="0" width="16.4861888" height="16.4861888"></rect>
                    <rect id="Rectangle-path" transform="translate(571.432575, 24.729283) rotate(-90.000000) translate(-571.432575, -24.729283) " x="563.189481" y="16.4861888" width="16.4861888" height="16.4861888"></rect>
                    <rect id="Rectangle-path" transform="translate(588.982389, 42.810910) rotate(-90.000000) translate(-588.982389, -42.810910) " x="580.739295" y="34.5678152" width="16.4861888" height="16.4861888"></rect>
                    <rect id="Rectangle-path" transform="translate(588.982389, 8.243094) rotate(-90.000000) translate(-588.982389, -8.243094) " x="580.739295" y="0" width="16.4861888" height="16.4861888"></rect>
                    <rect id="Rectangle-path" x="546.17148" y="136.675823" width="16.4861888" height="51.0540039"></rect>
                    <rect id="Rectangle-path" transform="translate(588.982389, 179.486733) rotate(-90.000000) translate(-588.982389, -179.486733) " x="580.739295" y="171.243638" width="16.4861888" height="16.4861888"></rect>
                    <rect id="Rectangle-path" transform="translate(588.982389, 144.918917) rotate(-90.000000) translate(-588.982389, -144.918917) " x="580.739295" y="136.675823" width="16.4861888" height="16.4861888"></rect>
                    <g id="Group" transform="translate(477.567662, 204.216016)">
                        <rect id="Rectangle-path" transform="translate(8.676267, 8.582576) rotate(-90.000000) translate(-8.676267, -8.582576) " x="0.208406699" y="0.0930915898" width="16.9357209" height="16.9789692"></rect>
                        <polygon id="Shape" points="34.2023696 0 51.1380905 0 51.1380905 51.0540039 0.214129804 51.0540039 0.214129804 34.0750347 34.2023696 34.0750347"></polygon>
                    </g>
                    <g id="Group" transform="translate(340.891839, 0.000000)">
                        <rect id="Rectangle-path" x="34.4554321" y="0.117240492" width="16.9357209" height="16.9998713"></rect>
                        <polygon id="Shape" points="51.391153 34.2342237 51.391153 51.234095 0.4671923 51.234095 0.4671923 0.117240492 17.4029132 0.117240492 17.4029132 34.2342237"></polygon>
                    </g>
                    <polygon id="Shape" points="427.251982 51.0540039 410.027469 51.0540039 410.027469 0 444.595284 0 444.595284 16.9789692 427.251982 16.9789692"></polygon>
                    <polygon id="Shape" points="477.567662 153.900336 477.567662 136.675823 528.621666 136.675823 528.621666 171.243638 511.642697 171.243638 511.642697 153.900336"></polygon>
                    <path d="M410.027469,229.743018 C410.027469,243.794578 421.50291,255.27002 435.554471,255.27002 C449.606032,255.27002 461.081473,243.794578 461.081473,229.743018 C461.081473,215.691457 449.606032,204.216016 435.554471,204.216016 C421.50291,204.216016 410.027469,215.691457 410.027469,229.743018 Z M446.79572,229.743018 C446.79572,235.949124 441.760577,240.984266 435.554471,240.984266 C429.348365,240.984266 424.313223,235.949124 424.313223,229.743018 C424.313223,223.536912 429.348365,218.501769 435.554471,218.501769 C441.760577,218.501769 446.79572,223.536912 446.79572,229.743018 Z" id="Shape"></path>
                    <path d="M477.567662,25.527002 C477.567662,39.5785627 489.043103,51.0540039 503.094664,51.0540039 C517.146225,51.0540039 528.621666,39.5785627 528.621666,25.527002 C528.621666,11.4754413 517.146225,0 503.094664,0 C489.043103,0 477.567662,11.4754413 477.567662,25.527002 Z M514.335912,25.527002 C514.335912,31.733108 509.30077,36.7682505 503.094664,36.7682505 C496.888558,36.7682505 491.853415,31.733108 491.853415,25.527002 C491.853415,19.320896 496.888558,14.2857534 503.094664,14.2857534 C509.30077,14.2857534 514.335912,19.320896 514.335912,25.527002 Z" id="Shape"></path>
                    <path d="M613.711672,298.878648 C613.711672,312.930209 625.187114,324.40565 639.238674,324.40565 C653.290235,324.40565 664.765676,312.930209 664.765676,298.878648 C664.765676,284.827087 653.290235,273.351646 639.238674,273.351646 C625.187114,273.351646 613.711672,284.827087 613.711672,298.878648 Z M650.597019,298.878648 C650.597019,305.084754 645.561877,310.119897 639.355771,310.119897 C633.149665,310.119897 628.114522,305.084754 628.114522,298.878648 C628.114522,292.672542 633.149665,287.637399 639.355771,287.637399 C645.44478,287.637399 650.597019,292.672542 650.597019,298.878648 Z" id="Shape"></path>
                    <g id="Group" transform="translate(340.891839, 68.072005)">
                        <rect id="Rectangle-path" x="17.4029132" y="0.234480984" width="16.9357209" height="51.1168545"></rect>
                        <rect id="Rectangle-path" transform="translate(25.933494, 25.746129) rotate(90.000000) translate(-25.933494, -25.746129) " x="17.4656337" y="0.187702028" width="16.9357209" height="51.1168545"></rect>
                    </g>
                    <g id="Group" transform="translate(545.639667, 273.351646)">
                        <rect id="Rectangle-path" x="17.3834468" y="0.0972457218" width="16.9357209" height="50.8789616"></rect>
                        <rect id="Rectangle-path" transform="translate(25.859250, 25.606860) rotate(90.000000) translate(-25.859250, -25.606860) " x="17.3913891" y="0.167379336" width="16.9357209" height="50.8789616"></rect>
                    </g>
                    <path d="M410.027469,93.5990072 C410.027469,107.650568 421.50291,119.126009 435.554471,119.126009 C449.606032,119.126009 461.081473,107.650568 461.081473,93.5990072 L461.081473,68.0720053 L446.79572,68.0720053 L446.79572,93.5990072 C446.79572,99.8051132 441.760577,104.840256 435.554471,104.840256 C429.348365,104.840256 424.313223,99.8051132 424.313223,93.5990072 L424.313223,68.0720053 L410.027469,68.0720053 L410.027469,93.5990072 Z" id="Shape"></path>
                    <path d="M503.094664,273.351646 C489.043103,273.351646 477.567662,284.827087 477.567662,298.878648 C477.567662,312.930209 489.043103,324.40565 503.094664,324.40565 L528.621666,324.40565 L528.621666,310.236993 L503.094664,310.236993 C496.888558,310.236993 491.853415,305.20185 491.853415,298.995744 C491.853415,292.789638 496.888558,287.754496 503.094664,287.754496 L528.621666,287.754496 L528.621666,273.468742 L503.094664,273.351646 Z" id="Shape"></path>
                    <path d="M639.238674,187.729827 C653.290235,187.729827 664.765676,176.254386 664.765676,162.202825 C664.765676,148.151264 653.290235,136.675823 639.238674,136.675823 L613.711672,136.675823 L613.711672,150.961576 L639.238674,150.961576 C645.44478,150.961576 650.479923,155.996719 650.479923,162.202825 C650.479923,168.408931 645.44478,173.444074 639.238674,173.444074 L613.711672,173.444074 L613.711672,187.729827 L639.238674,187.729827 Z" id="Shape"></path>
                    <path d="M477.567662,119.126009 C477.567662,90.9057914 500.401448,68.0720053 528.621666,68.0720053 L528.621666,85.0509745 C509.886251,85.0509745 494.546631,100.273499 494.546631,119.126009 L477.567662,119.126009 L477.567662,119.126009 Z" id="Shape"></path>
                    <path d="M664.765676,204.216016 C664.765676,232.436234 641.93189,255.27002 613.711672,255.27002 L613.711672,238.29105 C632.447087,238.29105 647.786707,223.068526 647.786707,204.216016 L664.765676,204.216016 Z" id="Shape"></path>
                    <path d="M613.711672,0 C641.93189,0 664.765676,22.8337862 664.765676,51.0540039 L647.786707,51.0540039 C647.786707,32.3185896 632.564183,16.9789692 613.711672,16.9789692 L613.711672,0 Z" id="Shape"></path>
                </g>
            </g>
        </g>
    </g>
</svg>