<?xml version="1.0" encoding="UTF-8"?>
<svg width="211px" height="42px" viewBox="0 0 211 42" version="1.1" xmlns="http://www.w3.org/2000/svg" xmlns:xlink="http://www.w3.org/1999/xlink">
    <!-- Generator: Sketch 47.1 (45422) - http://www.bohemiancoding.com/sketch -->
    <title>logo</title>
    <desc>Created with Sketch.</desc>
    <defs></defs>
    <g id="Freja-Creative-Multi-Purpose-Portfolio-Template" stroke="none" stroke-width="1" fill="none" fill-rule="evenodd">
        <g id="Home" transform="translate(-638.000000, -108.000000)" fill-rule="nonzero" fill="#F6F7FA">
            <g id="Group-4" transform="translate(638.000000, 108.000000)">
                <g id="logo">
                    <rect id="Rectangle-path" x="70.2797619" y="14.9472727" width="5.20357143" height="17.4727273"></rect>
                    <path d="M89.0797619,14.44 C86.7857143,14.44 85.0511905,15.2854545 84.1,16.5818182 L84.1,14.9472727 L78.8964286,14.9472727 L78.8964286,32.42 L84.1,32.42 L84.1,22.8945455 C84.1,20.4145455 85.4428571,19.2872727 87.3452381,19.2872727 C89.0238095,19.2872727 90.3666667,20.3018182 90.3666667,22.4436364 L90.3666667,32.42 L95.5702381,32.42 L95.5702381,21.6545455 C95.5702381,16.9763636 92.6047619,14.44 89.0797619,14.44 Z" id="Shape"></path>
                    <polygon id="Shape" points="185.205952 32.42 190.409524 32.42 190.409524 14.9472727 185.205952 14.9472727"></polygon>
                    <path d="M204.005952,14.44 C201.711905,14.44 199.977381,15.2854545 199.02619,16.5818182 L199.02619,14.9472727 L193.822619,14.9472727 L193.822619,32.42 L199.02619,32.42 L199.02619,22.8945455 C199.02619,20.4145455 200.369048,19.2872727 202.271429,19.2872727 C203.95,19.2872727 205.292857,20.3018182 205.292857,22.4436364 L205.292857,32.42 L210.496429,32.42 L210.496429,21.6545455 C210.496429,16.9763636 207.530952,14.44 204.005952,14.44 Z" id="Shape"></path>
                    <path d="M105.138095,9.64909091 L99.9345238,9.64909091 L99.9345238,14.9472727 L97.1369048,14.9472727 L97.1369048,19.9636364 L99.9345238,19.9636364 L99.9345238,26.1636364 C99.9345238,31.0672727 101.892857,33.0963636 108.719048,32.42 L108.719048,27.6854545 C106.425,27.7981818 105.138095,27.6854545 105.138095,26.1636364 L105.138095,19.9636364 L108.719048,19.9636364 L108.719048,14.9472727 L105.138095,14.9472727 L105.138095,9.64909091 L105.138095,9.64909091 Z" id="Shape"></path>
                    <path d="M175.52619,14.44 C173.232143,14.44 171.497619,15.2854545 170.546429,16.5818182 L170.546429,9.64909091 L165.342857,9.64909091 L165.342857,32.42 L170.546429,32.42 L170.546429,22.8945455 C170.546429,20.4145455 171.889286,19.2872727 173.791667,19.2872727 C175.470238,19.2872727 176.813095,20.3018182 176.813095,22.4436364 L176.813095,32.42 L182.016667,32.42 L182.016667,21.6545455 C182.016667,16.9763636 178.995238,14.44 175.52619,14.44 Z" id="Shape"></path>
                    <path d="M132.49881,14.3272727 C127.407143,14.3272727 123.266667,18.4981818 123.266667,23.6272727 C123.266667,28.7563636 127.407143,32.9272727 132.49881,32.9272727 C137.590476,32.9272727 141.730952,28.7563636 141.730952,23.6272727 C141.730952,18.4981818 137.590476,14.3272727 132.49881,14.3272727 Z M132.49881,27.9672727 C130.14881,27.9672727 128.246429,26.0509091 128.246429,23.6836364 C128.246429,21.3163636 130.14881,19.4 132.49881,19.4 C134.84881,19.4 136.75119,21.3163636 136.75119,23.6836364 C136.75119,25.9945455 134.84881,27.9672727 132.49881,27.9672727 Z" id="Shape"></path>
                    <path d="M154.711905,14.3272727 C152.529762,14.3272727 150.683333,15.1727273 149.340476,16.5254545 L149.340476,14.9472727 L144.136905,14.9472727 L144.136905,37.7181818 L149.340476,37.7181818 L149.340476,30.7854545 L149.340476,30.7854545 C150.683333,32.1381818 152.47381,32.9836364 154.711905,32.9836364 C159.803571,32.9836364 163.384524,28.8127273 163.384524,23.6836364 C163.328571,18.4981818 159.803571,14.3272727 154.711905,14.3272727 Z M154.096429,27.9672727 C151.746429,27.9672727 149.844048,26.0509091 149.844048,23.6836364 C149.844048,21.3163636 151.746429,19.4 154.096429,19.4 C156.446429,19.4 158.34881,21.3163636 158.34881,23.6836364 C158.34881,25.9945455 156.446429,27.9672727 154.096429,27.9672727 Z" id="Shape"></path>
                    <path d="M116.944048,16.5254545 L116.944048,14.9472727 L111.740476,14.9472727 L111.740476,32.42 L116.944048,32.42 L116.944048,24.5290909 L116.944048,23.6272727 C116.944048,20.8090909 119.741667,19.3436364 122.091667,19.3436364 L122.539286,19.3436364 L122.539286,14.3272727 C120.245238,14.3272727 118.342857,15.1163636 116.944048,16.5254545 Z" id="Shape"></path>
                    <rect id="Rectangle-path" x="70.3357143" y="7.05636364" width="5.14761905" height="5.18545455"></rect>
                    <rect id="Rectangle-path" x="185.205952" y="7.05636364" width="5.14761905" height="5.18545455"></rect>
                    <rect id="Rectangle-path" transform="translate(19.398827, 28.121901) rotate(-45.000000) translate(-19.398827, -28.121901) " x="16.125591" y="24.8739319" width="6.54647187" height="6.4959377"></rect>
                    <path d="M54.1217822,2.912 L54.1217822,2.912 C52.2029703,1.008 49.719802,0.056 47.180198,0.056 C44.6970297,0.056 42.1574257,1.008 40.2386139,2.912 L33.2970297,9.8 L47.180198,23.576 L54.1217822,16.688 C57.9594059,12.88 57.9594059,6.72 54.1217822,2.912 Z" id="Shape"></path>
                    <path d="M3.21683168,2.912 L3.21683168,2.912 C1.2980198,4.816 0.338613861,7.28 0.338613861,9.8 C0.338613861,12.32 1.2980198,14.784 3.21683168,16.688 L10.1584158,23.52 L24.0415842,9.744 L17.1,2.856 C13.2623762,-0.896 7.05445545,-0.896 3.21683168,2.912 Z" id="Shape"></path>
                    <rect id="Rectangle-path" transform="translate(28.686672, 18.974542) rotate(-45.000000) translate(-28.686672, -18.974542) " x="25.4134362" y="15.7265727" width="6.54647187" height="6.4959377"></rect>
                    <rect id="Rectangle-path" transform="translate(28.657252, 37.298453) rotate(-45.000000) translate(-28.657252, -37.298453) " x="25.3840163" y="34.0504839" width="6.54647187" height="6.4959377"></rect>
                    <rect id="Rectangle-path" transform="translate(37.905192, 28.111496) rotate(-45.000000) translate(-37.905192, -28.111496) " x="34.6319559" y="24.8635271" width="6.54647187" height="6.4959377"></rect>
                </g>
            </g>
        </g>
    </g>
</svg>