<?xml version="1.0" encoding="UTF-8"?>
<svg width="801px" height="610px" viewBox="0 0 801 610" version="1.1" xmlns="http://www.w3.org/2000/svg" xmlns:xlink="http://www.w3.org/1999/xlink">
    <!-- Generator: Sketch 47.1 (45422) - http://www.bohemiancoding.com/sketch -->
    <title>pattern</title>
    <desc>Created with Sketch.</desc>
    <defs></defs>
    <g id="Freja-Creative-Multi-Purpose-Portfolio-Template" stroke="none" stroke-width="1" fill="none" fill-rule="evenodd">
        <g id="Home" transform="translate(0.000000, -7383.000000)" fill-rule="nonzero" fill="#2ED9C3">
            <g id="pattern" transform="translate(-579.000000, 7383.000000)">
                <rect id="Rectangle-path" x="579" y="384" width="31" height="31"></rect>
                <rect id="Rectangle-path" x="579" y="449" width="31" height="31"></rect>
                <g id="Group" transform="translate(513.000000, 0.000000)">
                    <rect id="Rectangle-path" transform="translate(80.587600, 80.255816) rotate(90.000000) translate(-80.587600, -80.255816) " x="64.6046455" y="64.2728614" width="31.9659091" height="31.9659091"></rect>
                    <polygon id="Shape" points="32.6272727 96.3386364 0.661363636 96.3386364 0.661363636 0.220454545 96.5590909 0.220454545 96.5590909 32.1863636 32.6272727 32.1863636"></polygon>
                </g>
                <polygon id="Shape" points="515 160.388316 515 128 611 128 611 193 579 193 579 160.388316"></polygon>
                <path d="M561,257 C534.577982,257 513,278.577982 513,305 C513,331.422018 534.577982,353 561,353 C587.422018,353 609,331.422018 609,305 C609,278.577982 587.642202,257 561,257 Z M561,326.137615 C549.330275,326.137615 539.862385,316.669725 539.862385,305 C539.862385,293.330275 549.330275,283.862385 561,283.862385 C572.669725,283.862385 582.137615,293.330275 582.137615,305 C582.357798,316.669725 572.889908,326.137615 561,326.137615 Z" id="Shape"></path>
                <path d="M642,562 C642,588.422018 663.577982,610 690,610 C716.422018,610 738,588.422018 738,562 L738,514 L711.137615,514 L711.137615,562 C711.137615,573.669725 701.669725,583.137615 690,583.137615 C678.330275,583.137615 668.862385,573.669725 668.862385,562 L668.862385,514 L642,514 L642,562 Z" id="Shape"></path>
                <rect id="Rectangle-path" x="1284" y="0" width="31" height="31"></rect>
                <rect id="Rectangle-path" x="1349" y="0" width="31" height="31"></rect>
                <path d="M1284,384 L1284,480 L1380,480 L1380,384 L1284,384 Z M1350.05505,450.275229 L1313.72477,450.275229 L1313.72477,413.944954 L1350.05505,413.944954 L1350.05505,450.275229 Z" id="Shape"></path>
                <rect id="Rectangle-path" x="1284" y="65" width="31" height="31"></rect>
                <rect id="Rectangle-path" x="1349" y="65" width="31" height="31"></rect>
                <g id="Group" transform="translate(1284.000000, 256.000000)">
                    <rect id="Rectangle-path" x="63.853211" y="0.661363636" width="31.9266055" height="31.9659091"></rect>
                    <polygon id="Shape" points="96 64.8136364 96 96.7795455 0 96.7795455 0 0.661363636 31.9266055 0.661363636 31.9266055 64.8136364"></polygon>
                </g>
                <path d="M1332,128 C1305.57798,128 1284,149.577982 1284,176 C1284,202.422018 1305.57798,224 1332,224 C1358.42202,224 1380,202.422018 1380,176 C1380,149.577982 1358.42202,128 1332,128 Z M1332,197.137615 C1320.33028,197.137615 1310.86239,187.669725 1310.86239,176 C1310.86239,164.330275 1320.33028,154.862385 1332,154.862385 C1343.66972,154.862385 1353.13761,164.330275 1353.13761,176 C1353.13761,187.669725 1343.66972,197.137615 1332,197.137615 Z" id="Shape"></path>
                <path d="M1380,610 C1326.93578,610 1284,567.06422 1284,514 L1315.92661,514 C1315.92661,549.229358 1344.55046,578.073394 1380,578.073394 L1380,610 Z" id="Shape"></path>
                <path d="M609,514 C609,567.06422 566.06422,610 513,610 L513,578.073394 C548.229358,578.073394 577.073394,549.449541 577.073394,514 L609,514 L609,514 Z" id="Shape"></path>
                <rect id="Rectangle-path" transform="translate(657.500000, 464.500000) rotate(-90.000000) translate(-657.500000, -464.500000) " x="642" y="449" width="31" height="31"></rect>
                <rect id="Rectangle-path" transform="translate(657.500000, 399.500000) rotate(-90.000000) translate(-657.500000, -399.500000) " x="642" y="384" width="31" height="31"></rect>
                <g id="Group" transform="translate(770.000000, 514.000000)">
                    <rect id="Rectangle-path" transform="translate(48.128439, 80.079214) rotate(-90.000000) translate(-48.128439, -80.079214) " x="32.2198674" y="32.2437851" width="31.8171429" height="95.6708571"></rect>
                    <rect id="Rectangle-path" transform="translate(48.028379, 16.325559) rotate(-90.000000) translate(-48.028379, -16.325559) " x="32.119808" y="-31.5098697" width="31.8171429" height="95.6708571"></rect>
                </g>
                <g id="Group" transform="translate(641.000000, 257.000000)">
                    <rect id="Rectangle-path" transform="translate(48.660691, 79.898422) rotate(-90.000000) translate(-48.660691, -79.898422) " x="32.7380491" y="31.898422" width="31.845283" height="96"></rect>
                    <rect id="Rectangle-path" transform="translate(48.780165, 15.925431) rotate(-90.000000) translate(-48.780165, -15.925431) " x="32.8575238" y="-32.0745688" width="31.845283" height="96"></rect>
                </g>
                <g id="Group" transform="translate(1154.000000, 128.000000)">
                    <rect id="Rectangle-path" x="0.841886792" y="0.440909091" width="31.845283" height="96.1181818"></rect>
                    <rect id="Rectangle-path" x="64.7520755" y="0.440909091" width="31.845283" height="96.1181818"></rect>
                </g>
                <path d="M771,353 L867,353 L867,257 L771,257 L771,353 Z M837.275229,286.724771 L837.275229,323.055046 L800.724771,323.055046 L800.724771,286.724771 L837.275229,286.724771 Z" id="Shape"></path>
                <path d="M1027,224 L1123,224 L1123,128 L1027,128 L1027,224 L1027,224 Z M1093.27523,157.724771 L1093.27523,194.055046 L1056.94495,194.055046 L1056.94495,157.724771 L1093.27523,157.724771 Z" id="Shape"></path>
                <path d="M1027,480 L1123,480 L1123,384 L1027,384 L1027,480 L1027,480 Z M1093.27523,413.944954 L1093.27523,450.275229 L1056.94495,450.275229 L1056.94495,413.944954 L1093.27523,413.944954 Z" id="Shape"></path>
                <rect id="Rectangle-path" transform="translate(721.500000, 464.500000) rotate(-90.000000) translate(-721.500000, -464.500000) " x="706" y="449" width="31" height="31"></rect>
                <rect id="Rectangle-path" transform="translate(721.500000, 399.500000) rotate(-90.000000) translate(-721.500000, -399.500000) " x="706" y="384" width="31" height="31"></rect>
                <rect id="Rectangle-path" transform="translate(913.500000, 337.500000) rotate(-90.000000) translate(-913.500000, -337.500000) " x="898" y="322" width="31" height="31"></rect>
                <rect id="Rectangle-path" transform="translate(850.500000, 80.500000) rotate(-90.000000) translate(-850.500000, -80.500000) " x="835" y="65" width="31" height="31"></rect>
                <rect id="Rectangle-path" transform="translate(1042.500000, 80.500000) rotate(-90.000000) translate(-1042.500000, -80.500000) " x="1027" y="65" width="31" height="31"></rect>
                <rect id="Rectangle-path" transform="translate(1042.500000, 15.500000) rotate(-90.000000) translate(-1042.500000, -15.500000) " x="1027" y="0" width="31" height="31"></rect>
                <rect id="Rectangle-path" transform="translate(1074.500000, 46.500000) rotate(-90.000000) translate(-1074.500000, -46.500000) " x="1059" y="31" width="31" height="31"></rect>
                <rect id="Rectangle-path" transform="translate(1107.500000, 80.500000) rotate(-90.000000) translate(-1107.500000, -80.500000) " x="1092" y="65" width="31" height="31"></rect>
                <rect id="Rectangle-path" transform="translate(1107.500000, 15.500000) rotate(-90.000000) translate(-1107.500000, -15.500000) " x="1092" y="0" width="31" height="31"></rect>
                <rect id="Rectangle-path" x="1027" y="257" width="31" height="96"></rect>
                <rect id="Rectangle-path" transform="translate(1107.500000, 337.500000) rotate(-90.000000) translate(-1107.500000, -337.500000) " x="1092" y="322" width="31" height="31"></rect>
                <rect id="Rectangle-path" transform="translate(1107.500000, 272.500000) rotate(-90.000000) translate(-1107.500000, -272.500000) " x="1092" y="257" width="31" height="31"></rect>
                <g id="Group" transform="translate(898.000000, 384.000000)">
                    <rect id="Rectangle-path" transform="translate(16.314522, 16.138349) rotate(-90.000000) translate(-16.314522, -16.138349) " x="0.39188" y="0.175045872" width="31.845283" height="31.9266055"></rect>
                    <polygon id="Shape" points="64.3128302 0 96.1581132 0 96.1581132 96 0.402641509 96 0.402641509 64.0733945 64.3128302 64.0733945"></polygon>
                </g>
                <g id="Group" transform="translate(641.000000, 0.000000)">
                    <rect id="Rectangle-path" x="64.7886792" y="0.220454545" width="31.845283" height="31.9659091"></rect>
                    <polygon id="Shape" points="96.6339623 64.3727273 96.6339623 96.3386364 0.878490566 96.3386364 0.878490566 0.220454545 32.7237736 0.220454545 32.7237736 64.3727273"></polygon>
                </g>
                <polygon id="Shape" points="803.388316 96 771 96 771 0 836 0 836 31.9266055 803.388316 31.9266055"></polygon>
                <polygon id="Shape" points="898 289.388316 898 257 994 257 994 322 962.073394 322 962.073394 289.388316"></polygon>
                <path d="M771,432 C771,458.422018 792.577982,480 819,480 C845.422018,480 867,458.422018 867,432 C867,405.577982 845.422018,384 819,384 C792.577982,384 771,405.577982 771,432 Z M840.137615,432 C840.137615,443.669725 830.669725,453.137615 819,453.137615 C807.330275,453.137615 797.862385,443.669725 797.862385,432 C797.862385,420.330275 807.330275,410.862385 819,410.862385 C830.669725,410.862385 840.137615,420.330275 840.137615,432 Z" id="Shape"></path>
                <path d="M898,48 C898,74.4220183 919.577982,96 946,96 C972.422018,96 994,74.4220183 994,48 C994,21.5779817 972.422018,0 946,0 C919.577982,0 898,21.5779817 898,48 Z M967.137615,48 C967.137615,59.6697248 957.669725,69.1376147 946,69.1376147 C934.330275,69.1376147 924.862385,59.6697248 924.862385,48 C924.862385,36.3302752 934.330275,26.8623853 946,26.8623853 C957.669725,26.8623853 967.137615,36.3302752 967.137615,48 Z" id="Shape"></path>
                <path d="M1154,562 C1154,588.422018 1175.57798,610 1202,610 C1228.42202,610 1250,588.422018 1250,562 C1250,535.577982 1228.42202,514 1202,514 C1175.57798,514 1154,535.577982 1154,562 Z M1223.3578,562 C1223.3578,573.669725 1213.88991,583.137615 1202.22018,583.137615 C1190.55046,583.137615 1181.08257,573.669725 1181.08257,562 C1181.08257,550.330275 1190.55046,540.862385 1202.22018,540.862385 C1213.66972,540.862385 1223.3578,550.330275 1223.3578,562 Z" id="Shape"></path>
                <g id="Group" transform="translate(641.000000, 128.000000)">
                    <rect id="Rectangle-path" x="32.7237736" y="0.440909091" width="31.845283" height="96.1181818"></rect>
                    <rect id="Rectangle-path" transform="translate(48.764352, 48.412039) rotate(90.000000) translate(-48.764352, -48.412039) " x="32.8417109" y="0.352947727" width="31.845283" height="96.1181818"></rect>
                </g>
                <g id="Group" transform="translate(1026.000000, 514.000000)">
                    <rect id="Rectangle-path" x="32.6871698" y="0.182857143" width="31.845283" height="95.6708571"></rect>
                    <rect id="Rectangle-path" transform="translate(48.624746, 48.150162) rotate(90.000000) translate(-48.624746, -48.150162) " x="32.7021042" y="0.314733714" width="31.845283" height="95.6708571"></rect>
                </g>
                <path d="M771,176 C771,202.422018 792.577982,224 819,224 C845.422018,224 867,202.422018 867,176 L867,128 L840.137615,128 L840.137615,176 C840.137615,187.669725 830.669725,197.137615 819,197.137615 C807.330275,197.137615 797.862385,187.669725 797.862385,176 L797.862385,128 L771,128 L771,176 Z" id="Shape"></path>
                <path d="M946,514 C919.577982,514 898,535.577982 898,562 C898,588.422018 919.577982,610 946,610 L994,610 L994,583.357798 L946,583.357798 C934.330275,583.357798 924.862385,573.889908 924.862385,562.220183 C924.862385,550.550459 934.330275,541.082569 946,541.082569 L994,541.082569 L994,514.220183 L946,514 Z" id="Shape"></path>
                <path d="M1202,353 C1228.42202,353 1250,331.422018 1250,305 C1250,278.577982 1228.42202,257 1202,257 L1154,257 L1154,283.862385 L1202,283.862385 C1213.66972,283.862385 1223.13761,293.330275 1223.13761,305 C1223.13761,316.669725 1213.66972,326.137615 1202,326.137615 L1154,326.137615 L1154,353 L1202,353 Z" id="Shape"></path>
                <path d="M898,224 C898,170.93578 940.93578,128 994,128 L994,159.926606 C958.770642,159.926606 929.926606,188.550459 929.926606,224 L898,224 L898,224 Z" id="Shape"></path>
                <path d="M1250,384 C1250,437.06422 1207.06422,480 1154,480 L1154,448.073394 C1189.22936,448.073394 1218.07339,419.449541 1218.07339,384 L1250,384 Z" id="Shape"></path>
                <path d="M1154,0 C1207.06422,0 1250,42.9357798 1250,96 L1218.07339,96 C1218.07339,60.7706422 1189.44954,31.9266055 1154,31.9266055 L1154,0 Z" id="Shape"></path>
            </g>
        </g>
    </g>
</svg>